<svg width="98" height="56" viewBox="0 0 98 56" fill="none" xmlns="http://www.w3.org/2000/svg">
<path fill-rule="evenodd" clip-rule="evenodd" d="M58.4578 3.11915C65.5165 4.8545 71.5929 6.37225 71.9605 6.49204C72.3518 6.61946 70.6432 7.92545 67.844 9.63746C63.1947 12.4818 62.8073 12.625 54.225 14.6762L45.3915 16.7875L33.1581 13.9013C26.4297 12.3141 20.514 10.9206 20.0118 10.8048C19.1483 10.6061 19.113 10.8501 19.3653 15.2612C19.5125 17.8279 19.7832 20.281 19.9673 20.7131C20.2327 21.3362 20.0477 21.4982 19.0699 21.4982C17.9138 21.4982 17.8567 21.3941 18.1478 19.8158C18.3182 18.8907 18.4679 16.4173 18.4805 14.3199L18.5032 10.5065L14.7499 9.62355C12.6858 9.13767 10.9981 8.63295 11 8.50195C11.0034 8.29019 43.9289 0.0912799 45.1396 0.000205734C45.406 -0.0195345 51.3992 1.38381 58.4578 3.11915ZM86.5471 2.86298C86.5471 2.97694 85.1853 3.91953 83.5202 4.95724C79.0003 7.77515 69.695 14.2006 66.8662 16.4568C65.4981 17.5488 59.8511 22.8706 54.3176 28.283C48.7845 33.6958 44.0872 38.0678 43.8795 37.9992C43.3526 37.8238 23.1733 21.2999 23.3152 21.1599C23.3787 21.0971 27.5344 23.155 32.5508 25.732L41.6706 30.4181L43.647 29.069C44.7343 28.327 50.9115 23.9307 57.3744 19.2998C69.218 10.8134 76.1967 6.57414 82.4306 4.07835C85.8967 2.6907 86.5471 2.49869 86.5471 2.86298ZM33.3043 5.8285C25.635 7.7267 24.8064 7.97077 25.1032 8.24578C25.3691 8.49253 40.8628 4.74772 41.3166 4.32779C41.9084 3.77911 40.5761 4.029 33.3043 5.8285ZM32.5537 8.15919C30.4262 8.67064 28.965 9.17581 29.3069 9.28124C30.0368 9.5069 36.2106 8.07081 36.8823 7.51943C37.5076 7.00619 37.0964 7.06674 32.5537 8.15919ZM37.7502 8.60514C34.7514 9.35885 32.3992 10.0699 32.5237 10.1848C32.8932 10.5276 43.4446 7.97121 43.4446 7.53917C43.4446 7.32023 43.3899 7.16231 43.3235 7.18788C43.2572 7.21345 40.749 7.85097 37.7502 8.60514ZM44.6553 9.11793C41.459 9.9219 38.2185 10.725 37.4548 10.9017C36.691 11.0785 36.1772 11.3266 36.3138 11.4527C36.5487 11.6703 52.1799 8.13137 52.606 7.76438C53.209 7.24441 49.7811 7.82809 44.6553 9.11793ZM44.4732 11.4244C40.502 12.4661 39.2075 12.9794 40.579 12.9686C41.4764 12.961 49.7976 10.8277 50.1298 10.5195C50.6553 10.0327 48.4072 10.3925 44.4732 11.4244ZM88 12.0767C88 12.8502 87.7423 13.4262 87.3946 13.4307C86.0541 13.4491 78.3242 16.7148 74.1176 19.0401C68.6475 22.0639 61.2387 27.1345 55.6324 31.6904C52.3203 34.3818 51.9459 34.6057 53.857 32.751C59.4947 27.2789 70.2839 19.2545 76.8955 15.6156C79.4555 14.2069 87.1985 10.7671 87.8789 10.7362C87.9453 10.733 88 11.3365 88 12.0767ZM38.1173 16.3294L45.6239 18.0226L53.101 16.2356C61.7699 14.1642 62.1651 13.4321 49.8857 22.186C45.5706 25.2623 41.8159 27.7792 41.5418 27.7792C41.2677 27.7792 38.4234 26.4279 35.2217 24.7764L29.3999 21.7732V17.9988C29.3999 15.1683 29.5515 14.2755 30.0053 14.4298C30.3385 14.5429 33.9887 15.398 38.1173 16.3294ZM31.095 28.9115C34.456 31.8371 33.4337 31.2018 26.8491 26.274C24.2596 24.3358 22.2657 22.5633 22.4183 22.3344C22.6943 21.9208 25.5575 24.0913 31.095 28.9115ZM79.7669 24.3776C79.7669 25.3516 78.964 25.9846 77.7285 25.9846C74.5525 25.9846 65.1377 29.5203 57.9735 33.4029C56.5201 34.1907 56.1976 34.2791 57.0049 33.6694C58.6825 32.4015 66.8057 28.1928 70.3551 26.7522C74.229 25.1797 79.7669 23.7827 79.7669 24.3776ZM26.9479 27.8249C29.6285 29.5773 31.8214 31.1144 31.8214 31.2413C31.8214 31.3678 31.2984 31.1538 30.6591 30.7662C30.0198 30.3781 27.7315 29.0223 25.574 27.7531C23.4164 26.4844 21.6512 25.2645 21.6512 25.0424C21.6512 24.3879 21.8531 24.4938 26.9479 27.8249Z" fill="#263868"/>
<path d="M0.360352 53L2.39062 40.1328H6.31934L9.03516 46.4873C9.05859 46.54 9.09668 46.6309 9.14941 46.7598C9.44824 47.457 9.65625 48.0664 9.77344 48.5879V48.2627C9.77344 48.0283 9.78516 47.7705 9.80859 47.4893C9.83789 47.2021 9.87891 46.8564 9.93164 46.4521L10.9248 40.1328H14.3613L12.3311 53H8.55176L5.66895 46.4521C5.45801 45.9775 5.29688 45.585 5.18555 45.2744C5.08008 44.9639 4.98926 44.6533 4.91309 44.3428V44.7031C4.91309 44.9375 4.90137 45.1865 4.87793 45.4502C4.86035 45.708 4.8252 46.0537 4.77246 46.4873L3.79688 53H0.360352ZM13.9812 53L19.6854 46.0479L16.2488 40.1328H20.1512L21.5047 42.6641C21.5867 42.8223 21.6658 42.9863 21.742 43.1562C21.824 43.3203 21.9002 43.4873 21.9705 43.6572C22.0467 43.4932 22.1346 43.3291 22.2342 43.165C22.3396 43.001 22.4598 42.8281 22.5945 42.6465L24.5105 40.1328H28.7205L23.7547 46.25L27.7625 53H23.7371L21.8826 49.5635C21.8064 49.4287 21.7273 49.2764 21.6453 49.1064C21.5691 48.9365 21.49 48.7578 21.408 48.5703C21.2967 48.7988 21.1912 48.9951 21.0916 49.1592C20.992 49.3232 20.8953 49.4697 20.8016 49.5986L18.2439 53H13.9812ZM30.7398 53L32.3043 43.1211H29.4215L29.9137 40.1328H39.0016L38.5094 43.1211H35.7584L34.1939 53H30.7398ZM43.26 53L50.7131 39.623L55.4152 53H53.3234L52.2775 49.959H47.1535L45.4572 53H43.26ZM47.9621 48.2451H51.7238L50.7307 45.0635C50.6838 44.9111 50.634 44.709 50.5812 44.457C50.5285 44.2051 50.4641 43.874 50.3879 43.4639C50.259 43.7686 50.1301 44.0586 50.0012 44.334C49.8781 44.6035 49.7551 44.8584 49.632 45.0986L47.9621 48.2451ZM56.4941 50.5479C56.8047 50.9814 57.1475 51.3125 57.5225 51.541C57.8975 51.7695 58.2871 51.8838 58.6914 51.8838C59.0898 51.8838 59.4092 51.7959 59.6494 51.6201C59.8896 51.4385 60.0098 51.2012 60.0098 50.9082C60.0098 50.4922 59.5645 50.0381 58.6738 49.5459C58.6387 49.5283 58.6152 49.5166 58.6035 49.5107C57.7539 49.0303 57.1943 48.6172 56.9248 48.2715C56.6611 47.9199 56.5293 47.498 56.5293 47.0059C56.5293 46.2207 56.8193 45.585 57.3994 45.0986C57.9795 44.6064 58.7354 44.3604 59.667 44.3604C60.2354 44.3604 60.7598 44.4658 61.2402 44.6768C61.7207 44.8877 62.1719 45.207 62.5938 45.6348L61.4248 46.8477C61.1553 46.5137 60.8535 46.2588 60.5195 46.083C60.1855 45.9072 59.834 45.8193 59.4648 45.8193C59.166 45.8193 58.9111 45.9102 58.7002 46.0918C58.4893 46.2734 58.3838 46.4873 58.3838 46.7334C58.3838 47.1377 58.7588 47.5244 59.5088 47.8936C59.7842 48.0342 59.998 48.1455 60.1504 48.2275C60.8008 48.585 61.249 48.9424 61.4951 49.2998C61.7412 49.6514 61.8643 50.0879 61.8643 50.6094C61.8643 51.4414 61.5742 52.1064 60.9941 52.6045C60.4141 53.0967 59.6348 53.3428 58.6562 53.3428C58.0117 53.3428 57.4111 53.2139 56.8545 52.9561C56.3037 52.6924 55.8174 52.3115 55.3955 51.8135L56.4941 50.5479ZM63.9539 50.5479C64.2645 50.9814 64.6072 51.3125 64.9822 51.541C65.3572 51.7695 65.7469 51.8838 66.1512 51.8838C66.5496 51.8838 66.8689 51.7959 67.1092 51.6201C67.3494 51.4385 67.4695 51.2012 67.4695 50.9082C67.4695 50.4922 67.0242 50.0381 66.1336 49.5459C66.0984 49.5283 66.075 49.5166 66.0633 49.5107C65.2137 49.0303 64.6541 48.6172 64.3846 48.2715C64.1209 47.9199 63.9891 47.498 63.9891 47.0059C63.9891 46.2207 64.2791 45.585 64.8592 45.0986C65.4393 44.6064 66.1951 44.3604 67.1268 44.3604C67.6951 44.3604 68.2195 44.4658 68.7 44.6768C69.1805 44.8877 69.6316 45.207 70.0535 45.6348L68.8846 46.8477C68.615 46.5137 68.3133 46.2588 67.9793 46.083C67.6453 45.9072 67.2938 45.8193 66.9246 45.8193C66.6258 45.8193 66.3709 45.9102 66.16 46.0918C65.949 46.2734 65.8436 46.4873 65.8436 46.7334C65.8436 47.1377 66.2186 47.5244 66.9686 47.8936C67.2439 48.0342 67.4578 48.1455 67.6102 48.2275C68.2605 48.585 68.7088 48.9424 68.9549 49.2998C69.201 49.6514 69.324 50.0879 69.324 50.6094C69.324 51.4414 69.034 52.1064 68.4539 52.6045C67.8738 53.0967 67.0945 53.3428 66.116 53.3428C65.4715 53.3428 64.8709 53.2139 64.3143 52.9561C63.7635 52.6924 63.2771 52.3115 62.8553 51.8135L63.9539 50.5479ZM73.0748 47.832H77.3727C77.3551 47.2695 77.1793 46.8271 76.8453 46.5049C76.5172 46.1768 76.0748 46.0127 75.5182 46.0127C74.8854 46.0127 74.3492 46.1768 73.9098 46.5049C73.4703 46.833 73.192 47.2754 73.0748 47.832ZM77.2672 50.4424L78.6295 51.5059C78.1432 52.1445 77.6158 52.6104 77.0475 52.9033C76.4791 53.1963 75.8258 53.3428 75.0875 53.3428C73.8512 53.3428 72.8521 52.9707 72.0904 52.2266C71.3287 51.4766 70.9479 50.4922 70.9479 49.2734C70.9479 47.8438 71.3844 46.6719 72.2574 45.7578C73.1363 44.8379 74.2525 44.3779 75.6061 44.3779C76.7369 44.3779 77.6363 44.7295 78.3043 45.4326C78.9781 46.1299 79.315 47.0674 79.315 48.2451C79.315 48.3447 79.3092 48.4736 79.2975 48.6318C79.2916 48.7842 79.2799 48.9688 79.2623 49.1855H72.9078C72.9078 49.9414 73.0982 50.5449 73.4791 50.9961C73.86 51.4414 74.3668 51.6641 74.9996 51.6641C75.4391 51.6641 75.8551 51.5586 76.2477 51.3477C76.6461 51.1309 76.9859 50.8291 77.2672 50.4424ZM81.2992 50.5479C81.6098 50.9814 81.9525 51.3125 82.3275 51.541C82.7025 51.7695 83.0922 51.8838 83.4965 51.8838C83.8949 51.8838 84.2143 51.7959 84.4545 51.6201C84.6947 51.4385 84.8148 51.2012 84.8148 50.9082C84.8148 50.4922 84.3695 50.0381 83.4789 49.5459C83.4437 49.5283 83.4203 49.5166 83.4086 49.5107C82.559 49.0303 81.9994 48.6172 81.7299 48.2715C81.4662 47.9199 81.3344 47.498 81.3344 47.0059C81.3344 46.2207 81.6244 45.585 82.2045 45.0986C82.7846 44.6064 83.5404 44.3604 84.4721 44.3604C85.0404 44.3604 85.5648 44.4658 86.0453 44.6768C86.5258 44.8877 86.977 45.207 87.3988 45.6348L86.2299 46.8477C85.9604 46.5137 85.6586 46.2588 85.3246 46.083C84.9906 45.9072 84.6391 45.8193 84.2699 45.8193C83.9711 45.8193 83.7162 45.9102 83.5053 46.0918C83.2943 46.2734 83.1889 46.4873 83.1889 46.7334C83.1889 47.1377 83.5639 47.5244 84.3139 47.8936C84.5893 48.0342 84.8031 48.1455 84.9555 48.2275C85.6059 48.585 86.0541 48.9424 86.3002 49.2998C86.5463 49.6514 86.6693 50.0879 86.6693 50.6094C86.6693 51.4414 86.3793 52.1064 85.7992 52.6045C85.2191 53.0967 84.4398 53.3428 83.4613 53.3428C82.8168 53.3428 82.2162 53.2139 81.6596 52.9561C81.1088 52.6924 80.6225 52.3115 80.2006 51.8135L81.2992 50.5479ZM88.759 50.5479C89.0695 50.9814 89.4123 51.3125 89.7873 51.541C90.1623 51.7695 90.552 51.8838 90.9563 51.8838C91.3547 51.8838 91.674 51.7959 91.9143 51.6201C92.1545 51.4385 92.2746 51.2012 92.2746 50.9082C92.2746 50.4922 91.8293 50.0381 90.9387 49.5459C90.9035 49.5283 90.8801 49.5166 90.8684 49.5107C90.0188 49.0303 89.4592 48.6172 89.1897 48.2715C88.926 47.9199 88.7941 47.498 88.7941 47.0059C88.7941 46.2207 89.0842 45.585 89.6643 45.0986C90.2443 44.6064 91.0002 44.3604 91.9318 44.3604C92.5002 44.3604 93.0246 44.4658 93.5051 44.6768C93.9855 44.8877 94.4367 45.207 94.8586 45.6348L93.6897 46.8477C93.4201 46.5137 93.1184 46.2588 92.7844 46.083C92.4504 45.9072 92.0988 45.8193 91.7297 45.8193C91.4309 45.8193 91.176 45.9102 90.965 46.0918C90.7541 46.2734 90.6486 46.4873 90.6486 46.7334C90.6486 47.1377 91.0236 47.5244 91.7736 47.8936C92.049 48.0342 92.2629 48.1455 92.4152 48.2275C93.0656 48.585 93.5139 48.9424 93.76 49.2998C94.0061 49.6514 94.1291 50.0879 94.1291 50.6094C94.1291 51.4414 93.8391 52.1064 93.259 52.6045C92.6789 53.0967 91.8996 53.3428 90.9211 53.3428C90.2766 53.3428 89.676 53.2139 89.1193 52.9561C88.5686 52.6924 88.0822 52.3115 87.6604 51.8135L88.759 50.5479Z" fill="#263868"/>
</svg>
