<svg width="685" height="364" viewBox="0 0 685 364" fill="none" xmlns="http://www.w3.org/2000/svg">
<path d="M643.919 332.462C639.856 324.727 623.334 318.509 615.945 317.097C576.49 309.588 535.169 310.639 495.203 310.759C451.685 310.894 410.168 317.848 366.997 321.077C344.545 322.745 320.83 319.741 298.334 318.96C261.287 317.668 224.249 316.166 187.222 314.454C155.291 312.952 122.156 316.301 93.9262 333.874C90.7211 335.872 87.4858 338.29 86.0412 341.879C76.8923 364.408 190.909 361.555 205.761 361.945C280.698 363.883 355.681 364.949 430.618 362.861C486.295 361.36 544.409 361.45 599.679 353.61C611.898 351.867 628.525 351.251 639.089 344.072C644.987 340.077 645.83 336.112 643.919 332.462Z" fill="#E7F5FE" fill-opacity="0.5"/>
<path d="M595.402 25.2246C596.38 25.2246 597.388 25.2246 598.411 25.2246" stroke="#D2E8F9" stroke-width="1.50439" stroke-miterlimit="10"/>
<path d="M604.45 25.7062C623.876 27.6737 647.606 35.8593 644.838 52.636C640.414 79.3856 521.326 69.5178 492.856 69.8032C435.675 70.3589 377.847 70.5692 321.764 83.0503C308.131 86.0542 288.659 92.7829 290.088 110.085C290.6 116.093 294.181 121.635 298.741 125.75C315.113 140.5 337.94 141.926 359.127 144.51C391.164 148.43 543.582 143.203 593.39 159.529C603.201 162.743 615.465 166.874 615.871 180.872C616.909 216.438 528.399 214.68 501.854 215.416C430.995 217.234 360.06 216.513 289.201 215.116C231.944 213.99 174.492 212.983 117.326 209.303C96.0034 207.922 61.153 207.516 44.9015 191.551C35.8728 182.539 34.6239 166.378 48.9944 158.087C59.1215 152.245 88.8257 154.798 100.262 153.822C134.872 150.818 124.338 129.911 96.3645 127.237" stroke="#D2E8F9" stroke-width="1.50439" stroke-miterlimit="10" stroke-dasharray="6.03 6.03"/>
<path d="M93.3681 127.027C92.3903 127.027 91.3824 126.952 90.3594 126.952" stroke="#D2E8F9" stroke-width="1.50439" stroke-miterlimit="10"/>
<path d="M597.435 51.2384L588.316 3.10119C588.193 2.44441 587.899 1.83166 587.463 1.32469C587.027 0.817725 586.464 0.434481 585.833 0.213615C585.201 -0.0072512 584.522 -0.0579478 583.864 0.0666657C583.207 0.191279 582.593 0.486787 582.087 0.923379L544.874 32.8697C544.366 33.3051 543.982 33.8665 543.761 34.4974C543.539 35.1282 543.489 35.8061 543.614 36.4627C543.739 37.1193 544.036 37.7313 544.473 38.237C544.911 38.7427 545.475 39.1242 546.108 39.343L592.439 55.534C593.07 55.7539 593.748 55.8043 594.405 55.6799C595.061 55.5556 595.673 55.2609 596.18 54.8256C596.686 54.3903 597.069 53.8296 597.289 53.1999C597.509 52.5702 597.56 51.8937 597.435 51.2384Z" fill="#F0FAFF"/>
<path d="M590.41 50.5014C590.143 50.5005 589.879 50.4548 589.628 50.3662L551.527 37.0591C551.132 36.9242 550.781 36.6876 550.507 36.3732C550.234 36.0588 550.049 35.6778 549.971 35.269C549.893 34.8602 549.925 34.438 550.064 34.0455C550.202 33.6529 550.442 33.3039 550.759 33.0339L581.366 6.74989C581.682 6.48318 582.063 6.30345 582.47 6.22849C582.877 6.15352 583.296 6.18591 583.687 6.32245C584.078 6.45899 584.426 6.69496 584.697 7.007C584.968 7.31905 585.153 7.69636 585.234 8.10163L592.757 47.6928C592.832 48.1015 592.799 48.5225 592.662 48.9147C592.525 49.3069 592.288 49.657 591.975 49.9307C591.539 50.3031 590.984 50.5058 590.41 50.5014ZM553.543 34.5959L589.658 47.1671L582.555 9.75377L553.543 34.5959Z" fill="#B5DDF7"/>
<path d="M573.855 34.3413C573.52 34.2041 573.246 33.9508 573.083 33.628C572.92 33.3052 572.879 32.9345 572.968 32.584L576.745 19.3519C576.828 19.0592 576.971 18.7866 577.163 18.5507C577.356 18.3149 577.595 18.1207 577.865 17.9801C578.136 17.8396 578.432 17.7555 578.736 17.7331C579.04 17.7107 579.346 17.7505 579.634 17.85C579.927 17.9492 580.196 18.1078 580.425 18.316C580.653 18.5241 580.836 18.7773 580.962 19.0594C581.088 19.3416 581.154 19.6466 581.156 19.9555C581.158 20.2643 581.095 20.5702 580.973 20.8538L575.661 33.5002C575.515 33.8361 575.25 34.1069 574.918 34.2618C574.585 34.4167 574.207 34.445 573.855 34.3413Z" fill="#B5DDF7"/>
<path d="M574.139 38.0052C574.049 38.2929 573.874 38.5469 573.637 38.734C573.401 38.9212 573.113 39.0329 572.812 39.0546C572.511 39.0762 572.21 39.0069 571.949 38.8556C571.687 38.7042 571.478 38.4779 571.347 38.2061C571.217 37.9342 571.171 37.6294 571.216 37.3313C571.262 37.0332 571.396 36.7556 571.601 36.5347C571.807 36.3137 572.074 36.1596 572.368 36.0924C572.663 36.0251 572.97 36.0479 573.252 36.1578C573.606 36.2963 573.895 36.564 574.06 36.9069C574.225 37.2498 574.253 37.6423 574.139 38.0052Z" fill="#B5DDF7"/>
<path d="M87.4714 110.76L57.4813 95.8604C57.0728 95.6567 56.6177 95.5639 56.1618 95.5912C55.7059 95.6186 55.2653 95.7652 54.8841 96.0163C54.503 96.2674 54.1947 96.6142 53.9902 97.0218C53.7858 97.4294 53.6924 97.8835 53.7194 98.3386L55.7809 131.727C55.8108 132.181 55.9596 132.619 56.2123 132.997C56.4651 133.376 56.8131 133.682 57.2214 133.884C57.6296 134.086 58.084 134.178 58.5389 134.15C58.9938 134.122 59.4334 133.975 59.8137 133.724L87.7422 115.25C88.1231 114.999 88.4311 114.652 88.6351 114.244C88.8392 113.836 88.9322 113.382 88.9047 112.927C88.8773 112.472 88.7304 112.032 88.4788 111.652C88.2272 111.271 87.8798 110.964 87.4714 110.76Z" fill="#F0FAFF"/>
<path d="M84.1728 114.275C84.0649 114.417 83.9324 114.539 83.7816 114.635L60.8037 129.835C60.5678 129.991 60.2951 130.083 60.0127 130.101C59.7303 130.12 59.4479 130.064 59.1936 129.94C58.9392 129.812 58.7224 129.62 58.5642 129.383C58.4061 129.146 58.3119 128.872 58.2908 128.588L56.5904 101.088C56.5832 100.81 56.6478 100.534 56.7781 100.288C56.9083 100.042 57.0997 99.834 57.3339 99.6831C57.5682 99.5323 57.8374 99.4441 58.1156 99.4271C58.3939 99.4101 58.6718 99.4648 58.9228 99.586L83.601 111.857C83.8533 111.984 84.0688 112.174 84.2268 112.408C84.3849 112.642 84.4803 112.912 84.5038 113.194C84.5194 113.581 84.4027 113.962 84.1728 114.275ZM60.3072 127.717L82.0059 113.344L58.697 101.764L60.3072 127.717Z" fill="#B5DDF7"/>
<path d="M68.5395 116.589C68.3299 116.725 68.0757 116.777 67.8294 116.732C67.583 116.687 67.3632 116.55 67.2153 116.348L61.5574 108.839C61.4311 108.673 61.3407 108.483 61.2919 108.281C61.2431 108.079 61.2368 107.869 61.2736 107.664C61.3104 107.459 61.3894 107.264 61.5056 107.092C61.6218 106.919 61.7726 106.772 61.9486 106.661C62.1201 106.545 62.3138 106.465 62.5176 106.427C62.7214 106.389 62.9309 106.393 63.133 106.439C63.335 106.486 63.5253 106.574 63.6918 106.697C63.8582 106.821 63.9974 106.977 64.1004 107.157L68.8404 115.282C68.9669 115.497 69.0062 115.752 68.9502 115.995C68.8943 116.238 68.7473 116.45 68.5395 116.589Z" fill="#B5DDF7"/>
<path d="M70.6144 117.924C70.7228 118.088 70.78 118.28 70.7787 118.476C70.7775 118.673 70.7178 118.864 70.6073 119.027C70.4968 119.189 70.3404 119.315 70.158 119.389C69.9757 119.463 69.7755 119.48 69.5829 119.44C69.3904 119.4 69.2141 119.304 69.0764 119.163C68.9388 119.023 68.846 118.845 68.8099 118.652C68.7737 118.459 68.7958 118.26 68.8734 118.079C68.9509 117.899 69.0804 117.745 69.2454 117.638C69.4652 117.496 69.7324 117.446 69.9888 117.5C70.2452 117.553 70.4701 117.705 70.6144 117.924Z" fill="#B5DDF7"/>
<path d="M108.252 178.078C109.631 178.078 110.75 176.962 110.75 175.585C110.75 174.208 109.631 173.091 108.252 173.091C106.872 173.091 105.754 174.208 105.754 175.585C105.754 176.962 106.872 178.078 108.252 178.078Z" stroke="#D2E8F9" stroke-width="1.50439" stroke-miterlimit="10"/>
<path d="M479.057 131.938C480.436 131.938 481.554 130.822 481.554 129.445C481.554 128.068 480.436 126.952 479.057 126.952C477.677 126.952 476.559 128.068 476.559 129.445C476.559 130.822 477.677 131.938 479.057 131.938Z" stroke="#D2E8F9" stroke-width="1.50439" stroke-miterlimit="10"/>
<path d="M282.322 62.0674C283.702 62.0674 284.82 60.9511 284.82 59.5742C284.82 58.1972 283.702 57.0809 282.322 57.0809C280.943 57.0809 279.824 58.1972 279.824 59.5742C279.824 60.9511 280.943 62.0674 282.322 62.0674Z" stroke="#D2E8F9" stroke-width="1.50439" stroke-miterlimit="10"/>
<path d="M279.326 251.688C280.706 251.688 281.824 250.572 281.824 249.195C281.824 247.818 280.706 246.702 279.326 246.702C277.946 246.702 276.828 247.818 276.828 249.195C276.828 250.572 277.946 251.688 279.326 251.688Z" stroke="#D2E8F9" stroke-width="1.50439" stroke-miterlimit="10"/>
<path d="M337.547 102.38V108.013" stroke="#D2E8F9" stroke-width="1.50439" stroke-linecap="round" stroke-linejoin="round"/>
<path d="M340.362 105.204H334.719" stroke="#D2E8F9" stroke-width="1.50439" stroke-linecap="round" stroke-linejoin="round"/>
<path d="M438.984 30.3022V35.9496" stroke="#D2E8F9" stroke-width="1.50439" stroke-linecap="round" stroke-linejoin="round"/>
<path d="M441.799 33.1257H436.156" stroke="#D2E8F9" stroke-width="1.50439" stroke-linecap="round" stroke-linejoin="round"/>
<path d="M595.914 182.463V188.11" stroke="#D2E8F9" stroke-width="1.50439" stroke-linecap="round" stroke-linejoin="round"/>
<path d="M598.729 185.286H593.086" stroke="#D2E8F9" stroke-width="1.50439" stroke-linecap="round" stroke-linejoin="round"/>
<path d="M388.272 343.726C388.272 343.726 377.738 348.231 377.738 350.454C377.738 351.731 392.199 349.899 393.072 349.027C394.471 347.631 392.5 343.921 392.5 343.921L388.272 343.726Z" fill="#26387A"/>
<path d="M387.594 337.462L388.271 343.92C388.427 344.27 388.683 344.566 389.007 344.772C389.331 344.978 389.708 345.084 390.092 345.077C390.56 345.087 391.024 344.988 391.448 344.787C391.871 344.586 392.241 344.289 392.529 343.92L392.018 335.84" fill="#FFB288"/>
<path d="M405.97 189.418C409.807 204.798 408.378 212.623 402.78 224.233C399.379 263.284 397.002 302.139 392.442 340.198L387.597 340.468C376.627 303.416 366.53 248.024 367.809 197.394" fill="#26387A"/>
<path d="M403.592 194.704C404.888 198.358 405.441 202.234 405.217 206.104C405.036 211.947 402.659 217.219 401.109 222.761C399.062 230.15 398.897 237.51 398.34 245.08C397.467 256.915 396.574 268.755 395.661 280.6C394.187 299.915 392.682 319.23 391.147 338.545L391.012 340.273" stroke="#0061A6" stroke-width="0.752193" stroke-miterlimit="10"/>
<path d="M430.225 345.227C430.225 345.227 419.691 349.733 419.691 351.956C419.691 353.232 434.167 351.4 435.025 350.529C436.424 349.132 434.468 345.422 434.468 345.422L430.225 345.227Z" fill="#26387A"/>
<path d="M429.547 338.966L430.224 345.424C430.38 345.774 430.636 346.07 430.96 346.275C431.284 346.481 431.661 346.587 432.045 346.58C432.513 346.59 432.978 346.491 433.401 346.29C433.824 346.089 434.194 345.793 434.483 345.424L433.956 337.343" fill="#FFB288"/>
<path d="M440.953 188.11C445.799 203.204 444.896 211.104 440.065 223.06C439.268 262.231 436.574 303.128 434.528 341.398H429.562C416.155 305.156 401.784 249.194 399.723 198.593" fill="#26387A"/>
<path d="M438.561 194.359C438.561 194.359 444.159 207.471 434.679 225.9C433.595 243.263 433.023 341.429 433.023 341.429" stroke="#0061A6" stroke-width="0.752193" stroke-miterlimit="10"/>
<path d="M424.688 198.519C425.694 199.982 427.128 201.1 428.796 201.718C430.449 202.325 432.173 202.719 433.927 202.889C435.995 203.174 438.085 203.279 440.172 203.205" stroke="#0061A6" stroke-width="0.752193" stroke-miterlimit="10"/>
<path d="M425.367 200.966C427.206 202.547 429.417 203.638 431.793 204.135C434.159 204.615 436.57 204.841 438.985 204.811" stroke="#0061A6" stroke-width="0.752193" stroke-miterlimit="10"/>
<path d="M383.503 115.116C366.77 144.179 348.773 170.493 338.089 202.229L334.914 200.531C335.727 171.033 345.297 128.138 357.877 101.403" fill="#FFB288"/>
<path d="M375.362 84.776C371.364 86.0689 367.57 87.9196 364.091 90.2731C358.421 94.2286 353.928 99.6415 351.09 105.938C348.274 112.211 346.389 118.859 345.492 125.674C350.253 127.921 355.326 129.44 360.54 130.18C366.043 130.749 371.59 130.749 377.092 130.18" fill="#D9F0FF"/>
<path d="M362.888 101.958C361.113 133.379 362.467 165.701 363.265 196.28C363.265 196.28 374.249 199.194 400.884 199.194C427.518 199.194 444.868 191.098 444.868 191.098C439.722 159.693 435.614 121.138 423.019 95.2746C423.019 95.2746 408.784 79.9548 394.744 79.324C391.863 79.4133 389.042 80.1801 386.513 81.5619C384.527 82.4781 375.423 84.7009 375.423 84.7009L362.888 101.958Z" fill="#D9F0FF"/>
<path d="M362.735 104.751C362.043 110.759 362.043 129.443 362.043 129.443" stroke="#94C1F2" stroke-width="0.752193" stroke-miterlimit="10"/>
<path d="M389.266 206.224C433.837 201.298 452.466 257.666 462.668 279.549C486.654 331.246 577.166 325.478 618.397 325.478C672.418 325.478 696.118 343.637 670.913 353.174" stroke="#B4E8FD" stroke-width="7.52193" stroke-linecap="round" stroke-linejoin="round"/>
<path d="M404.569 208.717C404.569 231.592 387.219 245.409 372.382 245.409H348.125V172.025H372.442C387.279 172.025 404.569 185.827 404.569 208.717Z" fill="#FDAE2B"/>
<path d="M392.095 208.718C392.095 231.067 378.823 249.196 362.466 249.196H335.621V168.226H362.436C378.823 168.226 392.095 186.354 392.095 208.718Z" fill="#EF8417"/>
<g style="mix-blend-mode:multiply" opacity="0.5">
<path d="M398.037 186.595C392.228 194.495 386.576 202.505 381.078 210.626C381.86 210.463 382.58 210.083 383.155 209.529C383.155 210.145 382.192 211.196 383.049 211.587C383.907 211.977 384.81 210.971 385.713 211.241C386.555 211.046 387.338 209.995 387.955 209.394C387.746 209.838 387.618 210.317 387.579 210.806C393.492 208.508 398.789 202.996 403.394 198.565C402.338 194.288 400.524 190.234 398.037 186.595Z" fill="#FDAE2B"/>
</g>
<path d="M337.547 249.194C353.91 249.194 367.176 231.072 367.176 208.717C367.176 186.362 353.91 168.24 337.547 168.24C321.183 168.24 307.918 186.362 307.918 208.717C307.918 231.072 321.183 249.194 337.547 249.194Z" fill="#FFC840"/>
<path d="M340.017 223.061C340.017 226.38 337.744 229.068 334.945 229.068C332.147 229.068 329.859 226.38 329.859 223.061C329.859 219.741 332.132 217.053 334.945 217.053C337.759 217.053 340.017 219.741 340.017 223.061Z" fill="#EF8417"/>
<path d="M340.017 194.357C340.017 197.692 337.744 200.365 334.945 200.365C332.147 200.365 329.859 197.677 329.859 194.357C329.859 191.038 332.132 188.35 334.945 188.35C337.759 188.35 340.017 191.038 340.017 194.357Z" fill="#EF8417"/>
<path d="M431.142 125.119C431.142 125.119 433.023 144.239 424.461 160.145C417.132 173.737 402.581 191.34 390.829 201.043L388 200.352C392.093 184.686 405.004 156.795 405.816 146.417C406.629 136.039 406.418 123.888 406.614 118.075" fill="#FFB288"/>
<path d="M394.773 79.324C394.773 79.324 410.543 80.4054 419.692 88.1254C432.754 99.1346 434.74 120.687 434.74 125.674C430.798 129.924 422.175 130.18 415.885 130.18C412.057 130.156 408.303 129.12 405.006 127.176L403.712 103.385" fill="#D9F0FF"/>
<path d="M389.145 198.052C387.297 198.294 385.552 199.043 384.104 200.215C382.72 201.297 381.095 203.099 381.2 203.925C381.305 204.751 383.653 203.129 383.924 203.459C384.195 203.79 380.056 210.053 380.914 210.519C381.772 210.984 385.218 205.322 385.218 205.322C385.218 205.322 381.787 211.33 383.126 211.51C384.225 211.615 387.279 205.893 387.279 205.893C387.279 205.893 384.706 211.014 385.579 211.21C386.452 211.405 388.844 206.298 388.844 206.298C388.844 206.298 386.903 210.654 387.656 210.804C388.032 210.804 389.943 208.671 390.74 206.043C391.538 203.414 392.456 201.222 391.748 199.194" fill="#FFB288"/>
<path d="M405.594 105.894V127.552" stroke="#94C1F2" stroke-width="0.752193" stroke-miterlimit="10"/>
<path d="M362.088 59.3486C362.088 60.2798 361.968 61.226 361.983 62.1722C361.875 64.2274 362.4 66.2663 363.487 68.0148C364.304 69.1756 365.502 70.015 366.873 70.3878C367.821 70.6582 369.085 70.538 369.491 69.6369C369.623 69.3079 369.679 68.9539 369.657 68.6005C369.636 65.1011 368.957 61.6368 367.656 58.3873" fill="#26387A"/>
<path d="M385.895 61.3159C384.541 56.0441 380.282 48.6845 373.36 50.1564C371.196 50.5441 369.17 51.4875 367.481 52.8937C365.792 54.3 364.5 56.1207 363.73 58.1768C362.225 63.1182 364.678 68.8706 367.642 72.9109C368.696 74.4666 370.097 75.7571 371.735 76.6807C375.738 78.7534 381.14 77.0562 383.864 73.6768C385.128 71.9094 385.969 69.8756 386.321 67.7324C386.673 65.5892 386.528 63.3939 385.895 61.3159Z" fill="#FFB288"/>
<path d="M376.176 75.0739L378.448 83.3196L375.363 84.8215C376.219 85.7979 377.313 86.5366 378.539 86.9656C379.765 87.3947 381.082 87.4994 382.36 87.2697C391.81 85.9179 394.775 79.3694 394.775 79.3694L389.448 78.8137L383.504 68.7357" fill="#FFB288"/>
<path d="M390.499 55.5639C390.083 53.7754 389.3 52.0926 388.199 50.6216C387.098 49.1506 385.704 47.9235 384.104 47.0178C378.506 43.6234 370.561 43.3531 365.58 48.0241C362.736 50.6825 357.635 60.1148 363.744 61.9772C365.64 62.5629 367.597 61.4064 369.252 60.31L374.308 56.9306C374.879 56.4721 375.567 56.1809 376.294 56.0895C376.886 56.1421 377.449 56.3684 377.913 56.7399C378.376 57.1115 378.718 57.6116 378.897 58.1772C379.212 59.3231 379.459 60.4866 379.635 61.6617C379.77 62.5029 380.222 63.2607 380.899 63.7795C381.068 63.9028 381.262 63.9893 381.467 64.0336C381.672 64.0778 381.884 64.0787 382.09 64.0363C382.295 63.9938 382.489 63.909 382.66 63.7872C382.831 63.6654 382.974 63.5093 383.081 63.3289C383.217 62.7612 383.217 62.1694 383.081 61.6017C383.081 61.0159 383.412 60.31 383.984 60.325C384.196 60.3493 384.396 60.4385 384.555 60.5803C386.06 61.7218 385.548 64.0048 386.06 65.8071C386.06 66.0474 385.639 69.6821 385.804 69.8624C390.529 68.7359 391.026 58.1622 390.499 55.5639Z" fill="#26387A"/>
<path d="M383.501 60.7466C383.488 60.4098 383.606 60.0811 383.831 59.8292C384.055 59.5774 384.368 59.4217 384.705 59.3948C385.042 59.3841 385.379 59.441 385.694 59.5622C386.01 59.6835 386.297 59.8666 386.541 60.1008C386.994 60.4631 387.363 60.9193 387.623 61.4379C387.883 61.9565 388.027 62.5251 388.045 63.1046C388.03 64.0096 387.741 64.8889 387.218 65.6279C386.918 66.1684 386.439 66.588 385.863 66.8144C385.482 66.904 385.083 66.8884 384.709 66.7694C384.335 66.6503 384.001 66.4323 383.742 66.1385" fill="#FFB288"/>
<path d="M215.993 343.501C215.993 343.501 226.135 345.184 226.406 347.421C226.571 348.683 212.186 350.215 211.208 349.464C209.703 348.262 211.569 343.757 211.569 343.757L215.993 343.501Z" fill="#26387A"/>
<path d="M215.179 337.282L216.007 343.695C215.896 344.061 215.68 344.387 215.386 344.632C215.092 344.878 214.732 345.032 214.352 345.077C213.887 345.147 213.412 345.108 212.965 344.962C212.518 344.816 212.112 344.567 211.779 344.236L210.59 336.246" fill="#FFB288"/>
<path d="M177.245 191.384C175.439 207.139 175.334 214.709 182.391 225.508C185.731 240.753 190.863 256.343 194.745 271.948C193.075 290.587 204.767 320.265 211.072 341.458L215.586 340.692C221.71 302.527 223.968 244.027 218.475 192.811" fill="#26387A"/>
<path d="M180.207 212.728C180.207 212.728 197.662 268.059 197.662 271.063C197.662 274.067 198.144 284.386 198.911 291.084C200.326 303.355 211.461 339.507 211.461 339.507" stroke="#0061A6" stroke-width="0.752193" stroke-miterlimit="10"/>
<path d="M210.922 342.314L210.215 339.55L216.083 339.34L216.174 341.878L210.922 342.314Z" fill="#0061A6"/>
<path d="M137.068 343.816C137.068 343.816 145.013 349.538 144.306 351.551C143.9 352.707 130.989 347.931 130.477 346.88C129.649 345.197 133.186 342.164 133.186 342.164L137.068 343.816Z" fill="#26387A"/>
<path d="M139.006 338.183L137.005 343.981C136.756 344.249 136.434 344.439 136.079 344.527C135.723 344.615 135.349 344.597 135.004 344.477C134.583 344.33 134.2 344.093 133.883 343.781C133.566 343.47 133.321 343.091 133.168 342.674L135.546 335.345" fill="#FFB288"/>
<path d="M143.145 188.11C138.299 203.204 139.202 211.104 144.017 223.06C144.318 237.358 144.469 251.837 144.619 266.316C134.417 291.849 132.792 314.723 134.086 339.025L139.006 340.842C139.006 340.842 168.334 289.776 173.737 269.665C179.839 246.427 183.406 222.597 184.375 198.593" fill="#26387A"/>
<path d="M144.351 191.384C144.351 191.384 139.009 206.974 146.006 221.993C146.006 226.184 148.414 261.044 147.511 266.421C147.06 269.004 142.259 281.335 139.054 293.321C135.518 306.598 134.766 337.883 134.766 337.883" stroke="#0061A6" stroke-width="0.752193" stroke-miterlimit="10"/>
<path d="M133.168 339.026L133.95 335.737L140.255 338.665L139.022 341.474L133.168 339.026Z" fill="#0061A6"/>
<path d="M225.156 71.469L221.213 68.0445V61.1356C221.213 60.0542 219.708 53.6259 218.414 53.6259C217.12 53.6259 216.789 52.0038 216.127 52.6646C215.465 53.3255 216.669 60.655 216.127 61.1957C215.585 61.7364 214.878 57.7112 214.382 58.1918C213.885 58.6724 213.84 61.6463 213.84 63.1632C214.063 65.193 214.903 67.1061 216.247 68.6453C217.451 69.8468 222.748 75.5692 222.748 75.5692L225.156 71.469Z" fill="#EF9467"/>
<path d="M223.184 69.2466L219.874 72.9864C219.874 72.9864 232.92 90.2287 237.058 95.9962C232.735 94.2048 228.61 91.9699 224.749 89.3275C218.61 85.3173 212.455 83.1846 208.197 83.1846C199.168 83.1846 203.878 112.923 214.366 117.264C234.244 120.268 256.5 118.36 259.946 111.391C265.032 101.088 235.885 76.6962 223.184 69.2466Z" fill="#D9F0FF"/>
<path d="M237.059 95.9961C237.059 95.9961 239.541 102.935 243.965 105.203" stroke="#94C1F2" stroke-width="0.752193" stroke-miterlimit="10"/>
<path d="M162.542 91.0541C138.842 117.623 139.203 163.312 139.203 194.373C139.203 194.373 156.599 206.223 183.173 206.223C209.747 206.223 220.792 199.689 220.792 199.689C221.59 168.224 215.962 154.631 221.168 102.619C221.168 102.619 212.681 83.1839 208.167 83.1839C203.653 83.1839 185.957 81.4417 185.957 81.4417L162.542 91.0541Z" fill="#D9F0FF"/>
<path d="M219.906 117.969C219.906 117.969 220.433 108.882 222.644 106.674" stroke="#94C1F2" stroke-width="0.752193" stroke-miterlimit="10"/>
<path d="M193.902 61.5253C194.79 56.1634 198.612 48.5035 205.639 49.3746C210.048 49.9153 213.479 52.9492 215.947 56.5088C218.069 59.5127 217.256 62.5166 214.247 70.2216C213.039 72.2949 211.469 74.1362 209.612 75.6586C205.79 78.0617 200.252 76.8451 197.243 73.661C195.807 72.0195 194.761 70.0757 194.182 67.9744C193.604 65.8731 193.508 63.6687 193.902 61.5253Z" fill="#FFB288"/>
<path d="M194.774 60.8647C195.782 60.7146 194.774 60.0687 195.225 60.9849C195.511 61.5707 195.586 61.7359 196.173 61.9311C196.76 62.1264 196.745 62.637 197.211 62.9825C197.934 63.5232 198.566 62.7872 198.867 62.1564C199.36 60.9486 199.506 59.6275 199.288 58.3415C199.183 57.3502 198.852 55.7882 199.83 55.0973C200.808 54.4064 202.373 55.3526 203.185 55.5929C204.449 55.9534 205.698 56.3589 206.947 56.7344C209.95 57.8453 213.159 58.2911 216.352 58.0411C217.785 57.917 219.168 57.4529 220.385 56.6875C221.602 55.922 222.618 54.8773 223.349 53.6404C224.944 50.6365 221.754 46.5212 218.504 46.5212C217.656 46.6087 216.82 46.7798 216.006 47.0319C215.7 47.1141 215.378 47.1141 215.073 47.0319C214.366 46.8216 214.05 46.0256 213.643 45.4098C213.057 44.5596 212.236 43.8981 211.279 43.506C210.322 43.114 209.272 43.0083 208.256 43.2019C205.946 43.693 203.681 44.3762 201.485 45.2446C200.331 45.3946 199.163 45.3946 198.009 45.2446C197.36 45.2823 196.732 45.4894 196.188 45.8452C195.644 46.201 195.203 46.6931 194.909 47.2722C193.931 46.2358 191.734 48.7741 191.192 49.42C188.785 52.3337 188.017 56.5392 187.957 60.2339C187.957 63.4631 188.439 68.1491 191.975 69.4408C193.48 69.9965 194.428 70.2969 194.488 68.9152C193.936 67.1568 193.618 65.334 193.54 63.4931C193.424 62.9173 193.489 62.3198 193.726 61.7822C193.963 61.2446 194.36 60.7931 194.864 60.4893" fill="#26387A"/>
<path d="M206.301 74.3385L205.534 82.434L208.212 83.1849C207.661 84.3522 206.817 85.358 205.763 86.1051C204.708 86.8523 203.479 87.3156 202.193 87.4505C192.728 88.6971 186.047 81.4427 186.047 81.4427L189.192 80.8419L193.977 65.8225" fill="#FFB288"/>
<path d="M196.354 60.8065C196.334 60.4705 196.186 60.155 195.939 59.9255C195.692 59.6961 195.367 59.5705 195.029 59.5749C194.693 59.5902 194.363 59.674 194.06 59.8212C193.758 59.9684 193.488 60.176 193.269 60.431C190.62 63.0594 193.946 69.4427 196.549 66.1535" fill="#FFB288"/>
<path d="M214.188 70.0885C213.767 71.0798 212.081 71.4853 211.178 71.5904C206.664 72.0861 203.038 69.2174 198.779 68.6917C198.389 68.5179 197.958 68.4581 197.536 68.519C197.114 68.5799 196.717 68.7591 196.393 69.0359C196.068 69.3126 195.829 69.6755 195.703 70.0825C195.576 70.4894 195.568 70.9238 195.679 71.3351C195.618 72.3355 195.618 73.3386 195.679 74.339C195.717 75.2023 195.954 76.0452 196.372 76.8022C198.298 80.0013 204.708 80.542 207.973 80.3468C209.289 80.3406 210.574 79.9545 211.675 79.2353C213.18 78.1239 213.466 76.2314 214.007 74.5042C214.421 73.068 214.483 71.5536 214.188 70.0885Z" fill="#26387A"/>
<path d="M211.026 73.588C210.894 73.4786 210.73 73.4153 210.559 73.4077C208.929 73.2903 207.306 73.0847 205.699 72.7919C205.425 72.7396 205.144 72.7396 204.871 72.7919C204.598 72.9093 204.36 73.0956 204.18 73.3326C204.001 73.5696 203.886 73.8491 203.848 74.1437C203.793 74.4097 203.834 74.6864 203.963 74.9253C204.093 75.1642 204.302 75.3501 204.555 75.4504C205.534 75.892 206.595 76.1224 207.67 76.1262C208.674 76.2842 209.703 76.099 210.589 75.6006C211.026 75.2701 211.673 74.0536 211.026 73.588Z" fill="#FFB288"/>
<path d="M191.449 190.859C139.67 188.155 109.529 214.89 88.1165 263.418C60.3235 326.499 21.4854 331.516 4 331.155" stroke="#B4E8FD" stroke-width="7.52193" stroke-linecap="round" stroke-linejoin="round"/>
<path d="M171.584 195.063C173.495 217.878 191.929 230.194 206.706 228.962L230.948 226.949L224.838 153.82L200.596 155.832C185.819 157.064 169.673 172.264 171.584 195.063Z" fill="#FDAE2B"/>
<path d="M184.075 194.028C185.94 216.317 200.627 233.274 216.969 231.922L243.724 229.684L236.982 149L210.227 151.223C193.901 152.589 182.209 171.754 184.075 194.028Z" fill="#EF8417"/>
<path d="M241.826 229.835C258.132 228.477 269.842 209.317 267.98 187.039C266.117 164.762 251.388 147.803 235.081 149.161C218.774 150.519 207.065 169.68 208.927 191.957C210.789 214.235 225.519 231.194 241.826 229.835Z" fill="#FFC840"/>
<path d="M237.165 204C237.451 207.32 239.934 209.813 242.733 209.588C245.532 209.362 247.563 206.479 247.247 203.159C246.931 199.84 244.478 197.362 241.68 197.587C238.881 197.812 236.894 200.696 237.165 204Z" fill="#FDAE2B"/>
<path d="M234.77 175.419C235.056 178.723 237.539 181.217 240.338 180.991C243.137 180.766 245.168 177.882 244.852 174.578C244.536 171.274 242.083 168.766 239.284 168.991C236.485 169.216 234.529 172.1 234.77 175.419Z" fill="#FDAE2B"/>
<path d="M240.687 179.189L278.486 176.05C279.589 175.95 280.608 175.422 281.323 174.579C282.038 173.736 282.392 172.646 282.308 171.544C282.22 170.436 281.695 169.407 280.849 168.684C280.004 167.961 278.905 167.601 277.794 167.684L239.994 170.838C237.09 170.988 237.632 179.414 240.687 179.189Z" fill="#E2E8ED"/>
<path d="M243.062 207.726L280.877 204.572C281.98 204.476 283.002 203.949 283.718 203.105C284.434 202.261 284.786 201.168 284.699 200.066C284.61 198.958 284.086 197.929 283.24 197.206C282.394 196.483 281.295 196.123 280.184 196.206L242.385 199.345C239.465 199.57 240.022 208.011 243.062 207.726Z" fill="#E2E8ED"/>
<path d="M149.917 125.119C149.917 125.119 148.036 144.239 156.599 160.145C163.927 173.737 178.478 191.34 190.245 201.043L193.074 200.352C188.981 184.686 176.055 156.795 175.258 146.417C174.46 136.039 174.641 123.888 174.445 118.075" fill="#FFB288"/>
<path d="M186.002 81.4417C186.002 81.4417 169.374 82.4029 159.819 89.6122C143.267 102.063 146.547 135.512 151.347 151.868C156.147 168.224 179.306 192.705 186.769 198.052C188.003 198.052 191.6 197.752 191.464 194.943C187.326 182.177 175.559 148.639 175.559 148.639L177.35 103.385" fill="#D9F0FF"/>
<path d="M191.915 198.052C193.748 198.299 195.478 199.048 196.911 200.215C198.295 201.297 199.996 203.099 199.815 203.925C199.635 204.751 197.362 203.129 197.091 203.459C196.821 203.79 200.974 210.053 200.191 210.519C199.409 210.984 195.873 205.322 195.873 205.322C195.873 205.322 199.303 211.33 197.979 211.51C196.655 211.69 193.826 205.893 193.826 205.893C193.826 205.893 196.399 211.014 195.511 211.21C194.624 211.405 192.246 206.298 192.246 206.298C192.246 206.298 194.187 210.654 193.45 210.804C193.074 210.804 191.148 208.671 190.35 206.043C189.553 203.414 188.65 201.222 189.357 199.194" fill="#FFB288"/>
<path d="M180.208 161.976C177.56 154.361 175.559 148.639 175.559 148.639L179.035 110.669" stroke="#94C1F2" stroke-width="0.752193" stroke-miterlimit="10"/>
<path d="M147.555 119.893C147.465 130.196 148.714 142.872 151.347 151.869C153.665 159.739 160.225 169.517 167.253 178.123" stroke="#94C1F2" stroke-width="0.752193" stroke-miterlimit="10"/>
<path d="M502.922 63.9451L505.585 62.1277C506.047 59.798 506.691 57.508 507.511 55.2789C508.458 53.5973 509.696 52.097 511.168 50.8482C511.815 50.4126 514.795 48.7304 515.547 49.4814C515.908 49.8569 514.659 53.2062 514.042 53.792C513.425 54.3777 511.77 56.931 512.026 57.7421C512.282 58.5531 513.696 56.7808 514.042 56.4504C514.388 56.12 514.825 55.6994 514.975 56.135C514.734 58.3212 513.896 60.3992 512.552 62.1428C511.384 63.38 509.83 64.1848 508.143 64.4257L504.05 68.0454" fill="#FFB288"/>
<path d="M535.094 44.8549C537.235 46.2542 539.069 48.0748 540.481 50.2053C541.894 52.3358 542.856 54.7315 543.31 57.2459C543.407 58.1422 543.739 58.997 544.273 59.7241C544.797 60.2151 545.417 60.5933 546.094 60.8355C547.913 61.7078 549.538 62.9365 550.872 64.4486C552.206 65.9606 553.222 67.7251 553.858 69.6369C554.4 71.244 553.979 73.542 554.611 74.9237C555.393 76.6209 558.282 76.9964 559.832 77.5221C562.174 78.2924 564.216 79.7749 565.671 81.7617C567.126 83.7484 567.922 86.1399 567.947 88.6009C567.972 91.0619 567.224 93.4689 565.81 95.4846C564.395 97.5003 562.384 99.0236 560.058 99.8409C560.641 100.738 561.019 101.752 561.165 102.811C561.311 103.87 561.22 104.948 560.901 105.969C560.251 108.008 559.144 109.872 557.665 111.421C554.675 114.679 551.003 117.241 546.91 118.926C542.817 120.61 538.403 121.376 533.98 121.169C531.434 121.101 528.919 120.592 526.547 119.667C523.915 118.488 521.471 116.929 519.294 115.041C516.434 113.045 514.08 110.412 512.417 107.351C510.912 104.212 511.048 100.096 513.516 97.6631C512.066 97.8911 510.582 97.6912 509.245 97.0881C507.909 96.485 506.778 95.505 505.992 94.2687C505.233 93.0204 504.732 91.6334 504.517 90.1891C504.303 88.7447 504.379 87.2722 504.743 85.8579C505.483 83.0258 506.811 80.3804 508.64 78.0928C510.046 76.5905 511.046 74.7555 511.544 72.7609C511.981 69.3666 510.04 66.3326 509.588 62.9683C508.821 57.7265 509.061 53.2207 513.561 50.4271C515.065 46.6872 516.751 43.8035 520.889 42.7071C523.279 42.0821 525.771 41.9502 528.213 42.3195C530.656 42.6888 532.997 43.5515 535.094 44.8549Z" fill="#26387A"/>
<path d="M524.275 84.716C509.227 80.796 492.088 86.984 488.251 86.9689C493.503 81.7272 503.118 70.0871 506.444 66.0469C506.527 65.3596 506.413 64.6628 506.114 64.0378C505.816 63.4129 505.346 62.8855 504.758 62.5173C504.758 62.5173 463.588 83.7698 467.771 97.6477C472.09 112.126 512.433 105.022 515.653 109.183" fill="#B6E9FE"/>
<path d="M527.209 219.575C527.209 220.807 521.792 247.181 521.401 250.02C520.242 258.265 524.606 266.541 524.184 279.307C523.673 294.853 517.052 336.621 516.209 338.469C515.366 340.316 511.334 338.619 511.334 338.619C511.334 338.619 499.687 282.597 499.04 259.677C498.498 240.783 501.237 199.915 501.237 199.915" fill="#FFB288"/>
<path d="M516.613 339.19C516.939 339.837 517.157 340.531 517.261 341.248C517.17 342.99 517.125 344.251 517.125 344.251H516.358L516.102 342.84C514.653 343.146 513.275 343.722 512.039 344.537C511.046 345.183 506.02 345.123 505.283 344.717C505.136 344.651 505.008 344.551 504.909 344.425C504.809 344.299 504.741 344.152 504.71 343.995C504.679 343.838 504.687 343.675 504.731 343.521C504.776 343.367 504.856 343.226 504.967 343.11C505.252 342.78 510.64 340.422 510.64 340.422" fill="#26387A"/>
<path d="M511.406 338.62C510.97 339.671 506.697 341.999 507.088 342.314C508.983 342.651 510.935 342.443 512.716 341.714C515.229 340.888 516.643 339.956 516.718 339.296L516.237 337.538" fill="#FFB288"/>
<path d="M564.572 220.672C564.572 221.904 560.057 248.428 559.681 251.282C558.778 259.558 563.398 267.683 563.368 280.48C563.368 296.025 557.981 337.974 557.198 339.852C556.416 341.729 552.323 340.152 552.323 340.152C552.323 340.152 538.976 284.505 537.621 261.6C536.508 242.751 538.013 201.808 538.013 201.808" fill="#FFB288"/>
<path d="M557.636 340.557C557.979 341.19 558.218 341.875 558.343 342.585C558.343 344.327 558.343 345.513 558.343 345.513L557.591 345.588L557.29 344.177C555.852 344.536 554.491 345.152 553.272 345.994C552.309 346.685 547.253 346.775 546.53 346.399C546.382 346.337 546.251 346.24 546.147 346.117C546.043 345.994 545.97 345.848 545.933 345.691C545.896 345.535 545.897 345.372 545.936 345.215C545.974 345.059 546.049 344.914 546.154 344.792C546.44 344.462 551.767 341.939 551.767 341.939" fill="#26387A"/>
<path d="M552.324 340.153C551.918 341.219 547.735 343.667 548.141 343.967C550.042 344.26 551.987 343.994 553.739 343.201C556.207 342.3 557.606 341.324 557.666 340.663L557.124 338.921" fill="#FFB288"/>
<path d="M550.998 152.815C550.998 152.815 562.916 160.625 567.475 179.324C573.6 204.557 564.571 253.956 564.571 253.956C551.853 257.388 538.742 259.16 525.567 259.228C505.238 259.062 493.2 252.199 493.17 250.982C493.14 249.765 490.16 212.352 494.268 186.984C498.903 158.447 510.7 150.833 510.7 150.833" fill="#2858AD"/>
<path d="M534.822 84.2357C536.673 83.5448 541.473 85.227 550.457 88.6664C554.399 92.9169 556.13 102.259 556.972 110.52C554.64 130.646 552.052 141.625 553.301 148.414C553.602 150.021 555.076 151.237 554.805 153.49C554.324 158.116 546.71 158.822 532.234 160.459C517.758 162.096 504.772 155.548 505.554 153.505C506.337 151.463 508.805 149.66 509.196 148.309C509.587 146.957 510.701 129.714 509.196 127.672C507.691 125.629 503.613 119.742 503.613 114.019C503.613 105.939 508.128 102.319 510.972 97.8883C515.832 90.4988 519.519 85.8728 524.214 84.7163C531.798 82.8539 534.822 84.2357 534.822 84.2357Z" fill="#B6E9FE"/>
<path d="M510.505 94.4341C510.769 96.6302 510.332 98.8534 509.256 100.787C508.715 101.673 505.434 105.008 504.742 107.125" stroke="#6CB1EF" stroke-width="0.752193" stroke-miterlimit="10"/>
<path d="M531.362 74.4137C535.304 70.5087 535.876 63.0891 534.146 58.0726C532.129 52.4253 524.064 48.2049 518.511 51.7344C507.632 58.6734 518.677 87 531.362 74.4137Z" fill="#FFB288"/>
<path d="M523.852 73.7212L524.062 85.7367C524.062 85.7367 523.611 88.4252 528.336 88.5904C534.821 88.8157 534.821 84.1747 534.821 84.1747L531.074 71.7386" fill="#FFB288"/>
<path d="M528.756 46.4019C528.155 45.9733 527.439 45.7355 526.701 45.7194C525.963 45.7033 525.237 45.9098 524.618 46.3118C523.879 46.9268 523.105 47.4985 522.3 48.024C521.622 48.247 520.928 48.4177 520.224 48.5347C518.609 48.9876 517.109 49.7792 515.824 50.8566C514.54 51.934 513.5 53.2725 512.775 54.7828C511.451 57.7866 511.872 62.668 514.37 64.8157C514.294 62.155 514.928 59.5219 516.206 57.1859C516.465 56.6319 516.871 56.1595 517.381 55.8205C517.89 55.4814 518.483 55.2887 519.095 55.2634C520.465 55.4286 521.202 56.8855 522.195 57.8317C523.799 59.0835 525.758 59.7983 527.793 59.8743C530.02 60.2048 531.735 60.5953 532.834 62.7731C533.275 63.7348 533.608 64.7422 533.827 65.777C534.17 66.99 534.402 68.2317 534.519 69.4868C534.5 70.2698 534.581 71.0521 534.76 71.8148C535.08 72.5329 535.561 73.1679 536.167 73.6706C536.772 74.1733 537.485 74.5301 538.251 74.7135C539.395 75.089 541.261 75.4495 542.043 74.1578C542.677 72.9613 543.124 71.6746 543.367 70.3429C543.892 66.2233 542.897 62.0541 540.568 58.6127C538.161 54.7828 534.745 52.2295 531.645 49.0453C530.779 48.064 529.811 47.1778 528.756 46.4019Z" fill="#26387A"/>
<path d="M531.797 65.0414C531.89 64.5677 532.114 64.1294 532.444 63.7764C532.774 63.4233 533.196 63.1695 533.663 63.0438C536.672 62.5782 536.281 67.1591 535.092 68.7812C534.4 69.7124 532.609 70.944 531.797 68.3456" fill="#FFB288"/>
<path d="M564.467 158.987L562.963 162.081C562.963 162.081 557.5 163.373 556.944 164.334C556.026 165.836 554.656 167.954 554.656 169.14C554.656 170.327 554.777 175.584 556.266 175.584C557.214 175.584 559.411 171.303 559.863 170.702C560.931 169.306 565.265 168.269 565.265 164.56L567.913 158.987" fill="#FFB288"/>
<path d="M534.82 84.0697C534.82 84.0697 547.581 80.8255 557.542 87.0736C565.292 91.9399 585.23 116.226 585.23 130.134C585.23 139.506 566.586 162.726 566.586 162.726L563.486 160.519C563.486 160.519 565.292 142.27 570.724 132.207C566.721 128.227 551.162 115.836 547.22 111.916" fill="#B6E9FE"/>
<path d="M545.191 110.685C547.975 113.163 555.318 119.051 555.318 119.051" stroke="#6CB1EF" stroke-width="0.752193" stroke-miterlimit="10"/>
<path d="M169.014 62.5774L153.606 50.1714C153.606 50.1714 160.528 24.6384 151.364 15.7018C146.324 11.0785 140.389 7.53603 133.923 5.29337C119.748 -0.0835776 102.805 -1.30015 90.1646 7.08069C80.835 13.2537 75.1169 23.8423 72.634 34.7164C70.3919 44.2988 70.5725 55.1879 76.5765 62.9829C79.3802 66.4221 82.8967 69.2146 86.8842 71.1685C99.0879 77.5518 131.335 79.9549 145.344 70.5978C149.212 67.9994 148.881 64.4999 150.506 59.0178L169.014 62.5774Z" fill="#E7F5FE"/>
<path d="M95.5611 38.4133C95.5611 40.1749 95.2648 41.7143 94.6721 43.0314C94.0794 44.3403 93.2397 45.3405 92.1531 46.032C91.0664 46.7235 89.7987 47.0692 88.3499 47.0692C86.934 47.0692 85.6786 46.7235 84.5837 46.032C83.4889 45.3323 82.6369 44.3403 82.0277 43.0561C81.4268 41.7637 81.1181 40.2696 81.1016 38.5738V37.2772C81.1016 35.5485 81.4021 34.0215 82.003 32.6961C82.6039 31.3708 83.4518 30.3582 84.5467 29.6585C85.6498 28.9506 86.9093 28.5966 88.3252 28.5966C89.7658 28.5966 91.0335 28.9465 92.1284 29.6462C93.2315 30.3377 94.0794 31.3461 94.6721 32.6714C95.2648 33.9886 95.5611 35.5238 95.5611 37.2772V38.4133ZM93.2027 37.2526C93.2027 35.1205 92.7746 33.4864 91.9185 32.3504C91.0623 31.2061 89.8646 30.634 88.3252 30.634C86.827 30.634 85.6457 31.2061 84.7813 32.3504C83.9252 33.4864 83.4848 35.067 83.4601 37.092V38.4133C83.4601 40.4795 83.8922 42.1053 84.7566 43.2907C85.6292 44.4679 86.827 45.0565 88.3499 45.0565C89.881 45.0565 91.0664 44.5008 91.9061 43.3895C92.7458 42.27 93.178 40.6688 93.2027 38.5861V37.2526ZM98.1542 40.0185C98.1542 38.7096 98.4094 37.5324 98.9198 36.487C99.4384 35.4415 100.155 34.6348 101.068 34.0668C101.99 33.4988 103.04 33.2148 104.217 33.2148C106.036 33.2148 107.506 33.8445 108.625 35.104C109.753 36.3635 110.317 38.0387 110.317 40.1296V40.2902C110.317 41.5908 110.066 42.7598 109.564 43.797C109.07 44.826 108.358 45.6286 107.428 46.2049C106.506 46.7811 105.444 47.0692 104.242 47.0692C102.431 47.0692 100.961 46.4395 99.8335 45.18C98.714 43.9205 98.1542 42.2535 98.1542 40.179V40.0185ZM100.451 40.2902C100.451 41.7719 100.793 42.9615 101.476 43.8587C102.167 44.756 103.089 45.2047 104.242 45.2047C105.402 45.2047 106.324 44.7519 107.008 43.8464C107.691 42.9326 108.033 41.6567 108.033 40.0185C108.033 38.5532 107.683 37.3678 106.983 36.4623C106.292 35.5485 105.37 35.0916 104.217 35.0916C103.089 35.0916 102.18 35.5403 101.488 36.4376C100.797 37.3349 100.451 38.6191 100.451 40.2902ZM124.468 40.2902C124.468 42.3235 124.003 43.9616 123.073 45.2047C122.142 46.4477 120.883 47.0692 119.294 47.0692C117.672 47.0692 116.396 46.5547 115.466 45.5257V51.959H113.182V33.4617H115.269L115.38 34.9435C116.31 33.791 117.602 33.2148 119.257 33.2148C120.862 33.2148 122.13 33.8198 123.06 35.0299C123.999 36.24 124.468 37.9235 124.468 40.0802V40.2902ZM122.183 40.0309C122.183 38.5244 121.862 37.3349 121.22 36.4623C120.578 35.5897 119.697 35.1534 118.578 35.1534C117.195 35.1534 116.158 35.7667 115.466 36.9932V43.3772C116.149 44.5955 117.195 45.2047 118.603 45.2047C119.697 45.2047 120.566 44.7725 121.208 43.9081C121.858 43.0355 122.183 41.7431 122.183 40.0309ZM135.161 43.2784C135.161 42.661 134.927 42.1835 134.457 41.846C133.996 41.5003 133.186 41.2039 132.025 40.957C130.872 40.71 129.954 40.4136 129.271 40.0679C128.596 39.7222 128.094 39.3106 127.765 38.8331C127.444 38.3556 127.283 37.7876 127.283 37.1291C127.283 36.0342 127.744 35.1081 128.666 34.3508C129.596 33.5934 130.782 33.2148 132.222 33.2148C133.737 33.2148 134.964 33.6058 135.902 34.3878C136.849 35.1699 137.322 36.17 137.322 37.3884H135.025C135.025 36.7627 134.758 36.2236 134.223 35.7708C133.696 35.318 133.029 35.0916 132.222 35.0916C131.391 35.0916 130.741 35.2728 130.271 35.635C129.802 35.9972 129.568 36.4705 129.568 37.055C129.568 37.6065 129.786 38.0222 130.222 38.3021C130.658 38.582 131.444 38.8496 132.58 39.1048C133.725 39.3599 134.651 39.6645 135.359 40.0185C136.067 40.3725 136.589 40.8005 136.927 41.3027C137.273 41.7966 137.446 42.4017 137.446 43.1179C137.446 44.3115 136.968 45.2705 136.013 45.9949C135.058 46.7111 133.819 47.0692 132.296 47.0692C131.226 47.0692 130.28 46.8799 129.456 46.5012C128.633 46.1225 127.987 45.5957 127.518 44.9207C127.057 44.2374 126.826 43.5006 126.826 42.7104H129.111C129.152 43.476 129.456 44.0851 130.024 44.5379C130.601 44.9824 131.358 45.2047 132.296 45.2047C133.161 45.2047 133.852 45.0318 134.371 44.6861C134.898 44.3321 135.161 43.8629 135.161 43.2784ZM142.978 41.7472H140.915L140.755 28.8436H143.15L142.978 41.7472ZM140.668 45.6739C140.668 45.3035 140.78 44.9948 141.002 44.7478C141.232 44.4926 141.57 44.365 142.014 44.365C142.459 44.365 142.796 44.4926 143.027 44.7478C143.257 44.9948 143.373 45.3035 143.373 45.6739C143.373 46.0443 143.257 46.353 143.027 46.6C142.796 46.8387 142.459 46.9581 142.014 46.9581C141.57 46.9581 141.232 46.8387 141.002 46.6C140.78 46.353 140.668 46.0443 140.668 45.6739Z" fill="#94C1F2"/>
</svg>
