<svg width="604" height="386" viewBox="0 0 604 386" fill="none" xmlns="http://www.w3.org/2000/svg">
<path style="mix-blend-mode:multiply" opacity="0.5" d="M549.415 338.322L548.661 337.928H55.3584C38.4063 327.506 25.4316 311.623 18.5306 292.844C14.7525 282.462 12.9451 271.053 15.37 260.259C22.3723 229.104 60.5534 213.947 70.2803 183.525C76.1746 165.098 70.2803 145.158 70.6073 125.796C70.9524 104.72 79.5804 83.1406 96.4276 70.706C129.368 46.3864 177.131 64.6123 215.548 50.6932C240.978 41.4749 260.332 18.7498 286.388 11.6573C308.422 5.67367 333.425 12.5737 349.373 29.0677C369.299 49.6211 375.711 83.1315 400.732 96.8765C426.389 110.942 464.306 99.4606 482.607 122.387C501.824 146.423 480.79 186.98 499.717 211.272C505.884 219.198 515.257 223.725 523.413 229.543C556.426 252.974 568.051 302.236 549.415 338.322Z" fill="url(#paint0_linear_1_749)"/>
<path style="mix-blend-mode:multiply" opacity="0.5" d="M575.891 337.928H82.6065C65.6544 327.507 52.6797 311.624 45.7786 292.845C42.0005 282.462 40.1932 271.054 42.6181 260.26C49.6204 229.104 87.8014 213.948 97.5283 183.526C103.423 165.098 97.5283 145.159 97.8553 125.797C98.2004 104.721 106.828 83.1412 123.676 70.7066C156.616 46.387 204.379 64.6129 242.796 50.6938C268.226 41.4755 287.58 18.7504 313.636 11.6579C335.67 5.67428 360.673 12.5743 376.621 29.0683C396.547 49.6217 402.959 83.1321 427.98 96.8771C453.637 110.943 491.554 99.4612 509.855 122.388C529.072 146.423 508.038 186.98 526.965 211.272C533.132 219.199 542.505 223.725 550.661 229.544C583.674 252.975 594.545 301.843 575.891 337.928Z" fill="url(#paint1_linear_1_749)"/>
<path style="mix-blend-mode:multiply" opacity="0.5" d="M55.1982 337.929H575.384C575.384 337.929 527.367 381.235 310.341 381.235C93.3157 381.235 55.1982 337.929 55.1982 337.929Z" fill="url(#paint2_linear_1_749)"/>
<path d="M39.054 299.076C39.1721 313.243 46.4741 325.796 53.0313 337.91H105.58C108.859 329.902 116.479 324.165 124.417 324.165C129.094 324.165 134.407 325.714 137.967 322.333C141.863 318.576 140.692 311.557 142.708 306.26C145.541 298.728 153.924 296.29 161.217 295.484C168.51 294.678 176.657 294.11 181.543 287.998C186.184 282.161 185.984 273.492 186.992 265.758C187.9 259.124 189.962 252.462 194.094 247.578C198.227 242.694 204.657 239.899 210.442 241.759C221.132 245.186 223.675 260.416 229.996 270.624C234.791 278.376 242.611 283.718 250.975 284.955C257.251 285.872 263.954 284.662 269.693 287.659C279.611 292.836 281.8 307.552 289.429 316.321C296.903 324.908 309.991 326.474 318.927 319.84C322.306 317.339 325.185 313.792 329.063 312.436C338.363 309.211 346.419 319.648 355.029 324.761C359.16 327.179 363.868 328.414 368.644 328.331C373.419 328.249 378.082 326.853 382.13 324.294C392.601 317.632 399.05 303.639 410.693 300.139C420.402 297.234 432.226 302.228 439.973 295.072C442.698 292.588 444.333 288.978 445.423 285.267C449.364 271.568 445.84 256.256 449.791 242.566C454.16 227.464 468.546 217.577 482.487 217.825C481.111 216.139 479.591 214.579 477.946 213.16C467.792 204.391 452.38 202.641 442.153 211.328C430.755 221.004 426.605 241.484 412.573 244.637C399.159 247.661 386.089 231.808 373.048 236.325C362.422 239.991 358.97 254.561 357.063 266.794C355.156 279.027 351.296 293.578 340.525 296.721C332.006 299.204 323.496 292.946 317.029 286.266C310.563 279.586 304.096 271.751 295.414 270.092C288.875 268.846 281.854 271.339 275.66 268.672C267.768 265.282 264.362 254.927 263.018 245.617C261.674 236.307 261.202 226.163 256.007 218.732C247.915 207.213 232.003 207.47 219.678 212.437C216.327 213.784 212.867 215.424 209.325 214.947C206.074 214.517 203.204 212.336 200.76 209.889C190.316 199.452 182.96 182.161 168.973 180.997C154.987 179.833 144.933 196.795 143.171 212.345C141.609 226.2 142.263 243.739 131.083 249.915C119.503 256.329 102.928 244.664 93.7191 254.817C89.5322 259.399 88.7148 267.252 83.8105 270.89C77.2987 275.746 68.7524 270.056 60.9146 269.882C48.2178 269.616 38.9269 284.919 39.054 299.076Z" fill="url(#paint3_linear_1_749)"/>
<path d="M105.575 337.911H542.187C548.881 330.388 550.833 318.238 547.4 308.305C545.684 303.355 542.736 298.934 538.84 295.463C534.944 291.993 530.23 289.59 525.149 288.484C517.929 287.046 509.873 288.246 503.806 283.619C494.96 276.884 495.632 262.543 494.615 250.631C493.598 238.718 489.729 226.595 482.5 217.844C468.513 217.578 454.127 227.466 449.804 242.585C445.854 256.275 449.377 271.587 445.436 285.286C444.373 288.998 442.711 292.617 439.987 295.091C432.24 302.248 420.415 297.254 410.706 300.158C399.063 303.659 392.614 317.651 382.143 324.313C378.095 326.872 373.433 328.269 368.657 328.351C363.881 328.433 359.173 327.199 355.042 324.78C346.432 319.667 338.376 309.203 329.076 312.456C325.198 313.812 322.319 317.358 318.941 319.86C310.004 326.494 296.916 324.927 289.442 316.341C281.813 307.572 279.624 292.855 269.707 287.678C263.967 284.682 257.264 285.9 250.988 284.975C242.624 283.738 234.804 278.396 230.009 270.643C223.651 260.435 221.145 245.206 210.455 241.779C204.688 239.946 198.249 242.695 194.107 247.597C189.966 252.5 187.895 259.143 187.005 265.778C185.979 273.511 186.179 282.18 181.556 288.017C176.697 294.129 168.505 294.697 161.23 295.503C153.955 296.31 145.536 298.702 142.666 306.197C140.668 311.494 141.822 318.513 137.926 322.27C134.393 325.669 129.052 324.102 124.375 324.102C116.474 324.166 108.854 329.903 105.575 337.911Z" fill="url(#paint4_linear_1_749)"/>
<path d="M57.0471 306.893C59.0906 301.294 64.0131 297.317 69.3987 296.813C76.1558 296.19 84.9745 300.478 89.2976 292.305C92.1221 286.962 91.7498 280.273 94.2019 274.729C100.123 261.332 116.171 265.813 126.689 265.493C134.554 265.245 140.929 261.516 145.116 254.011C148.84 247.34 150.275 239.624 151.746 232.019C153.317 223.909 155.079 215.442 159.965 208.936C164.188 203.301 170.392 199.425 177.094 200.689C177.666 200.79 177.43 201.761 176.858 201.661C169.792 200.332 163.38 205.198 159.402 211.383C155.333 217.706 153.898 225.678 152.454 233.146C150.166 244.957 146.923 259.491 135.78 264.585C124.118 269.909 109.814 261.232 99.0063 269.891C94.0112 273.886 93.4572 280.676 92.0767 286.816C90.9596 291.782 88.8707 296.538 84.0935 297.995C80.7604 299.003 77.2184 298.233 73.8399 297.903C69.9618 297.528 66.2473 297.903 62.9414 300.368C55.9663 305.619 55.0672 316.56 60.6799 323.423C61.0705 323.9 60.4347 324.624 60.0442 324.138C58.1255 321.762 56.8426 318.928 56.3179 315.909C55.7932 312.89 56.0442 309.786 57.0471 306.893Z" fill="#51ADC6"/>
<path d="M79.2813 312.91C86.7831 309.721 96.3919 311.554 101.396 303.087C105.029 296.893 105.937 289.25 111.732 284.76C114.116 282.912 116.96 281.763 119.95 281.439C122.94 281.116 125.96 281.631 128.679 282.928C129.215 283.184 128.76 284.055 128.234 283.798C125.265 282.421 121.944 282.018 118.736 282.644C115.529 283.27 112.596 284.895 110.351 287.289C105.874 291.981 105.174 299.202 101.578 304.526C97.8269 310.115 91.6693 311.023 85.9112 312.113C82.6235 312.736 79.1996 313.506 76.4023 315.659C73.2417 318.106 71.1256 322.788 72.7694 326.948C73.0056 327.535 72.2245 328.048 71.9884 327.452C69.4545 321.093 74.1499 315.1 79.2813 312.91Z" fill="#51ADC6"/>
<path d="M143.162 291.88C150.428 288.214 159.119 288.278 165.431 282.423C177.747 270.978 174.586 249.966 184.395 236.744C188.872 230.705 196.292 226.664 203.249 229.413C203.794 229.633 203.567 230.604 203.013 230.384C196.147 227.635 188.899 231.878 184.667 237.962C180.026 244.624 178.482 253.256 176.493 261.21C174.877 267.789 172.86 274.515 168.91 279.866C164.559 285.768 158.411 287.903 152.008 289.726C144.388 291.889 132.554 296.617 134.834 308.053C134.961 308.685 134.089 308.969 133.926 308.309C132.518 300.905 137.495 294.757 143.162 291.88Z" fill="#51ADC6"/>
<path d="M222.49 224.39C229.174 220.367 237.203 224.179 241.79 230.254C247.684 238.07 248.619 248.819 251.298 258.211C252.697 263.114 254.613 268.016 257.719 271.874C260.998 275.943 265.267 277.894 270.008 278.847C277.791 280.405 286.274 280.213 291.641 287.782C294.602 291.969 296.109 297.101 298.407 301.719C301.132 307.171 306.154 312.953 312.248 311.331C312.811 311.185 313.038 312.156 312.475 312.312C304.211 314.502 298.852 305.247 295.801 298.145C293.921 293.719 292.086 288.982 288.644 285.729C284.92 282.238 279.961 281.395 275.302 280.698C271.452 280.13 267.519 279.681 263.904 278.004C260.371 276.283 257.409 273.565 255.376 270.179C250.218 262.078 249.21 251.999 246.521 242.771C244.814 236.888 242.289 231.097 237.703 227.377C233.425 223.913 227.794 222.346 222.944 225.26C222.436 225.562 221.981 224.701 222.49 224.39Z" fill="#51ADC6"/>
<path d="M355.727 307.94C358.906 311.706 363.819 311.953 367.97 310.212C372.674 308.242 375.962 303.569 378.677 299.079C383.218 291.629 387.623 282.237 396.251 280.248C405.07 278.214 414.842 284.72 423.034 278.874C431.535 272.798 432.234 260.171 433.815 250.192C435.35 240.543 439.264 228.979 449.063 227.037C449.636 226.927 449.863 227.898 449.291 228.017C438.256 230.198 435.549 244.163 434.087 254.536C432.797 263.699 430.99 274.695 423.189 279.937C414.833 285.572 405.306 279.185 396.451 281.22C386.334 283.547 382.437 295.954 376.561 303.935C373.691 307.848 370.068 311.092 365.508 311.999C363.632 312.461 361.665 312.394 359.824 311.806C357.982 311.218 356.336 310.131 355.064 308.664C354.692 308.187 355.327 307.473 355.727 307.94Z" fill="#51ADC6"/>
<path d="M479.18 232.466C472.171 236.759 466.624 243.104 463.277 250.655C459.472 258.985 458.555 267.873 459.644 277.073C460.825 286.823 463.277 299.982 454.767 306.753C446.821 313.039 436.303 309.438 427.358 310.419C419.892 311.262 410.928 317.081 412.354 326.83C412.445 327.426 413.262 327.179 413.171 326.583C412.418 321.442 415.315 316.879 419.084 314.24C423.153 311.39 428.12 311.069 432.798 311.17C440.418 311.335 449.146 312.691 455.685 307.129C461.842 301.869 462.287 292.468 461.443 284.596C460.88 279.419 459.89 274.288 459.944 269.019C460.009 264.523 460.757 260.064 462.16 255.796C465.293 246.202 471.515 238.056 479.598 233.254C480.079 232.998 479.625 232.182 479.18 232.466Z" fill="#51ADC6"/>
<path d="M488.403 279.496C476.906 284.032 483.753 301.369 480.847 310.743C478.395 318.661 471.474 318.157 465.335 319.394C461.021 320.31 456.162 323.361 456.698 329.015C456.752 329.611 457.606 329.611 457.533 329.015C456.752 320.768 466.152 320.319 471.157 319.54C475.461 318.862 479.285 317.002 481.147 312.365C483.145 307.454 482.5 302.038 482.228 296.788C481.919 290.721 482.573 282.74 488.585 280.367C489.13 280.202 488.912 279.295 488.403 279.496Z" fill="#51ADC6"/>
<path d="M254.087 301.906C248.756 300.028 243.189 301.173 237.74 300.926C234.561 300.779 231.382 300.01 228.83 297.838C226.918 296.031 225.273 293.957 223.944 291.68C221.728 288.253 219.457 284.294 215.77 282.764C211.229 280.931 206.842 283.635 203.872 287.392C200.24 291.973 198.805 297.81 196.144 302.969C194.855 305.791 192.846 308.217 190.322 309.998C187.37 311.876 183.892 312.197 180.55 311.986C173.838 311.555 166.609 308.495 160.024 311.345C155.483 313.324 151.678 318.602 152.995 324.247C153.01 324.3 153.036 324.35 153.071 324.394C153.105 324.437 153.148 324.473 153.196 324.5C153.245 324.527 153.298 324.544 153.353 324.55C153.408 324.556 153.464 324.551 153.517 324.535C153.57 324.52 153.619 324.494 153.662 324.459C153.706 324.424 153.741 324.38 153.768 324.332C153.795 324.283 153.811 324.229 153.817 324.173C153.823 324.118 153.818 324.062 153.803 324.008C151.986 316.201 159.57 311.418 165.437 311.18C171.122 310.923 176.635 313.012 182.302 313.012C186.907 313.012 191.266 311.455 194.354 307.514C197.442 303.574 198.895 298.553 200.993 293.953C203.382 288.629 208.05 281.994 214.126 283.25C218.458 284.166 221.01 288.748 223.399 292.413C225.606 295.822 228.004 299.121 231.636 300.66C236.277 302.63 241.409 301.751 246.24 301.732C249.153 301.642 252.054 302.155 254.764 303.237C257.473 304.32 259.935 305.95 261.998 308.027C266.46 312.531 269.137 318.523 269.527 324.879C269.518 324.94 269.522 325.002 269.539 325.062C269.556 325.121 269.586 325.176 269.626 325.223C269.666 325.27 269.716 325.307 269.771 325.333C269.827 325.359 269.888 325.372 269.949 325.372C270.01 325.372 270.071 325.359 270.127 325.333C270.182 325.307 270.232 325.27 270.272 325.223C270.312 325.176 270.342 325.121 270.359 325.062C270.376 325.002 270.38 324.94 270.371 324.879C269.727 314.442 263.042 305.059 254.087 301.906Z" fill="#51ADC6"/>
<path d="M507.775 118.858V337.908H233.969V118.904L507.775 118.858ZM493.371 259.103V246.98C493.359 243.724 492.069 240.606 489.783 238.308C487.496 236.01 484.401 234.72 481.174 234.72H464.826C461.593 234.722 458.493 236.02 456.207 238.327C453.922 240.635 452.638 243.764 452.638 247.026V259.149C452.657 262.399 453.951 265.51 456.237 267.801C458.522 270.091 461.614 271.376 464.835 271.373H481.183C484.41 271.371 487.505 270.078 489.789 267.778C492.073 265.479 493.361 262.359 493.371 259.103ZM492.39 156.327V144.195C492.388 140.933 491.102 137.805 488.815 135.499C486.527 133.193 483.426 131.898 480.193 131.898H463.845C460.613 131.898 457.513 133.193 455.227 135.5C452.941 137.806 451.657 140.934 451.657 144.195V156.327C451.657 159.589 452.941 162.716 455.227 165.023C457.513 167.329 460.613 168.624 463.845 168.624H480.193C481.794 168.626 483.38 168.308 484.86 167.691C486.34 167.074 487.684 166.168 488.817 165.026C489.95 163.884 490.849 162.528 491.462 161.035C492.075 159.543 492.39 157.943 492.39 156.327ZM491.845 207.715V195.583C491.845 193.965 491.529 192.363 490.914 190.869C490.299 189.374 489.398 188.017 488.263 186.875C487.127 185.732 485.779 184.827 484.296 184.211C482.813 183.596 481.224 183.281 479.621 183.286H463.273C460.041 183.288 456.943 184.585 454.657 186.89C452.372 189.196 451.087 192.322 451.085 195.583V207.715C451.079 209.338 451.391 210.946 452.004 212.446C452.617 213.946 453.517 215.309 454.655 216.457C455.792 217.604 457.143 218.513 458.63 219.131C460.117 219.749 461.71 220.064 463.318 220.058H479.666C481.27 220.057 482.857 219.737 484.338 219.115C485.819 218.494 487.163 217.584 488.295 216.437C489.426 215.29 490.322 213.93 490.931 212.433C491.541 210.937 491.851 209.333 491.845 207.715ZM443.774 259.103V246.98C443.759 243.725 442.468 240.608 440.183 238.311C437.897 236.013 434.803 234.722 431.577 234.72H415.229C411.996 234.722 408.895 236.02 406.61 238.327C404.325 240.635 403.041 243.764 403.041 247.026V259.149C403.06 262.399 404.354 265.51 406.639 267.801C408.925 270.091 412.016 271.376 415.238 271.373H431.586C434.813 271.371 437.907 270.078 440.192 267.778C442.476 265.479 443.764 262.359 443.774 259.103ZM442.784 156.327V144.195C442.784 142.579 442.468 140.978 441.854 139.485C441.241 137.992 440.341 136.635 439.208 135.493C438.074 134.351 436.728 133.445 435.247 132.829C433.767 132.212 432.18 131.895 430.578 131.898H414.23C412.629 131.897 411.043 132.214 409.563 132.831C408.083 133.449 406.738 134.354 405.606 135.496C404.473 136.638 403.574 137.994 402.961 139.487C402.348 140.979 402.033 142.579 402.033 144.195V156.327C402.033 157.943 402.348 159.543 402.961 161.035C403.574 162.528 404.473 163.884 405.606 165.026C406.738 166.168 408.083 167.074 409.563 167.691C411.043 168.308 412.629 168.626 414.23 168.624H430.578C432.18 168.627 433.767 168.311 435.247 167.694C436.728 167.077 438.074 166.171 439.208 165.029C440.341 163.887 441.241 162.531 441.854 161.037C442.468 159.544 442.784 157.944 442.784 156.327ZM442.248 207.715V195.583C442.246 192.322 440.961 189.196 438.676 186.89C436.39 184.585 433.292 183.288 430.06 183.286H413.712C410.479 183.286 407.378 184.581 405.091 186.887C402.803 189.193 401.517 192.321 401.515 195.583V207.715C401.51 209.334 401.822 210.939 402.433 212.436C403.044 213.933 403.941 215.294 405.075 216.441C406.208 217.588 407.554 218.497 409.036 219.118C410.518 219.739 412.107 220.058 413.712 220.058H430.06C431.664 220.058 433.253 219.739 434.735 219.118C436.216 218.497 437.562 217.587 438.694 216.44C439.827 215.294 440.724 213.933 441.333 212.435C441.943 210.938 442.254 209.334 442.248 207.715ZM393.069 259.103V246.98C393.057 243.724 391.766 240.606 389.48 238.308C387.194 236.01 384.098 234.72 380.871 234.72H364.524C362.923 234.721 361.338 235.04 359.86 235.659C358.382 236.278 357.039 237.185 355.908 238.328C354.777 239.471 353.88 240.827 353.269 242.319C352.657 243.812 352.343 245.411 352.345 247.026V259.149C352.364 262.398 353.656 265.507 355.94 267.797C358.224 270.088 361.313 271.373 364.533 271.373H380.88C384.107 271.371 387.202 270.078 389.486 267.778C391.771 265.479 393.059 262.359 393.069 259.103ZM392.542 310.491V298.368C392.544 296.75 392.231 295.148 391.619 293.652C391.007 292.156 390.109 290.797 388.976 289.651C387.844 288.506 386.498 287.597 385.017 286.976C383.536 286.356 381.948 286.036 380.345 286.034H363.997C360.762 286.034 357.66 287.331 355.372 289.639C353.085 291.947 351.8 295.077 351.8 298.341V310.464C351.8 313.728 353.085 316.858 355.372 319.166C357.66 321.474 360.762 322.77 363.997 322.77H380.345C383.575 322.77 386.673 321.478 388.96 319.176C391.246 316.874 392.535 313.751 392.542 310.491ZM392.088 156.327V144.195C392.088 142.579 391.772 140.979 391.159 139.487C390.546 137.994 389.647 136.638 388.515 135.496C387.382 134.354 386.037 133.449 384.557 132.831C383.078 132.214 381.492 131.897 379.891 131.898H363.543C360.31 131.898 357.21 133.193 354.924 135.5C352.639 137.806 351.355 140.934 351.355 144.195V156.327C351.355 159.589 352.639 162.716 354.924 165.023C357.21 167.329 360.31 168.624 363.543 168.624H379.891C381.492 168.626 383.078 168.308 384.557 167.691C386.037 167.074 387.382 166.168 388.515 165.026C389.647 163.884 390.546 162.528 391.159 161.035C391.772 159.543 392.088 157.943 392.088 156.327ZM391.543 207.715V195.583C391.543 192.322 390.259 189.194 387.973 186.888C385.687 184.581 382.587 183.286 379.355 183.286H363.007C359.775 183.288 356.676 184.585 354.391 186.89C352.106 189.196 350.821 192.322 350.819 195.583V207.715C350.813 209.335 351.124 210.94 351.734 212.437C352.345 213.935 353.242 215.297 354.376 216.444C355.509 217.59 356.856 218.5 358.339 219.121C359.821 219.741 361.411 220.06 363.016 220.058H379.364C380.966 220.055 382.552 219.732 384.03 219.11C385.509 218.488 386.851 217.577 387.981 216.431C389.11 215.284 390.004 213.924 390.613 212.429C391.221 210.934 391.531 209.332 391.525 207.715H391.543ZM340.293 259.103V246.98C340.283 243.725 338.995 240.607 336.71 238.309C334.425 236.01 331.331 234.72 328.104 234.72H311.757C308.523 234.722 305.423 236.02 303.138 238.327C300.852 240.635 299.569 243.764 299.569 247.026V259.149C299.588 262.399 300.882 265.51 303.167 267.801C305.453 270.091 308.544 271.376 311.766 271.373H328.114C331.34 271.371 334.433 270.078 336.716 267.778C338.999 265.478 340.285 262.358 340.293 259.103ZM339.757 310.491V298.368C339.759 296.751 339.446 295.149 338.835 293.654C338.223 292.159 337.326 290.8 336.195 289.655C335.063 288.509 333.718 287.6 332.238 286.979C330.758 286.358 329.172 286.037 327.569 286.034H311.221C309.62 286.034 308.034 286.353 306.555 286.971C305.075 287.59 303.731 288.497 302.599 289.639C301.467 290.782 300.57 292.139 299.958 293.632C299.346 295.125 299.032 296.725 299.033 298.341V310.464C299.032 312.08 299.346 313.68 299.958 315.173C300.57 316.666 301.467 318.022 302.599 319.165C303.731 320.308 305.075 321.215 306.555 321.833C308.034 322.452 309.62 322.77 311.221 322.77H327.569C330.797 322.768 333.893 321.474 336.178 319.172C338.463 316.871 339.75 313.749 339.757 310.491ZM339.303 156.327V144.195C339.303 140.934 338.019 137.806 335.733 135.5C333.447 133.193 330.347 131.898 327.115 131.898H310.767C307.534 131.898 304.434 133.193 302.148 135.5C299.863 137.806 298.579 140.934 298.579 144.195V156.327C298.579 159.589 299.863 162.716 302.148 165.023C304.434 167.329 307.534 168.624 310.767 168.624H327.115C328.716 168.626 330.302 168.308 331.782 167.691C333.261 167.074 334.606 166.168 335.739 165.026C336.871 163.884 337.77 162.528 338.383 161.035C338.996 159.543 339.312 157.943 339.312 156.327H339.303ZM338.767 207.715V195.583C338.764 192.322 337.48 189.196 335.194 186.89C332.909 184.585 329.81 183.288 326.579 183.286H310.231C306.998 183.286 303.898 184.581 301.613 186.888C299.327 189.194 298.043 192.322 298.043 195.583V207.715C298.037 209.336 298.348 210.941 298.959 212.44C299.57 213.938 300.469 215.3 301.603 216.447C302.737 217.594 304.085 218.503 305.569 219.123C307.053 219.743 308.643 220.061 310.249 220.058H326.597C328.201 220.057 329.788 219.737 331.269 219.115C332.749 218.494 334.094 217.584 335.225 216.437C336.357 215.29 337.253 213.93 337.862 212.433C338.471 210.937 338.782 209.333 338.776 207.715H338.767ZM289.587 259.103V246.98C289.575 243.728 288.288 240.612 286.005 238.314C283.723 236.017 280.632 234.725 277.408 234.72H261.061C257.826 234.72 254.723 236.016 252.436 238.324C250.148 240.632 248.863 243.762 248.863 247.026V259.149C248.885 262.4 250.181 265.511 252.468 267.801C254.755 270.091 257.847 271.376 261.07 271.373H277.417C280.644 271.371 283.737 270.078 286.02 267.778C288.303 265.478 289.589 262.358 289.596 259.103H289.587ZM289.052 310.491V298.368C289.056 296.751 288.745 295.149 288.135 293.653C287.525 292.158 286.629 290.798 285.498 289.652C284.367 288.507 283.022 287.597 281.542 286.977C280.062 286.356 278.475 286.036 276.872 286.034H260.525C257.291 286.037 254.19 287.334 251.903 289.642C249.616 291.949 248.33 295.078 248.327 298.341V310.464C248.327 313.728 249.613 316.858 251.9 319.166C254.187 321.474 257.29 322.77 260.525 322.77H276.872C280.102 322.77 283.199 321.477 285.484 319.175C287.77 316.873 289.056 313.75 289.061 310.491H289.052ZM288.597 156.327V144.195C288.599 142.58 288.285 140.982 287.673 139.49C287.061 137.998 286.165 136.642 285.034 135.5C283.902 134.358 282.559 133.452 281.081 132.834C279.603 132.216 278.019 131.898 276.418 131.898H260.071C258.469 131.897 256.883 132.214 255.404 132.831C253.924 133.449 252.579 134.354 251.446 135.496C250.314 136.638 249.415 137.994 248.802 139.487C248.189 140.979 247.873 142.579 247.873 144.195V156.327C247.873 157.943 248.189 159.543 248.802 161.035C249.415 162.528 250.314 163.884 251.446 165.026C252.579 166.168 253.924 167.074 255.404 167.691C256.883 168.308 258.469 168.626 260.071 168.624H276.418C278.019 168.626 279.605 168.308 281.084 167.691C282.563 167.073 283.907 166.167 285.039 165.025C286.171 163.883 287.069 162.527 287.681 161.035C288.293 159.542 288.608 157.942 288.607 156.327H288.597ZM288.071 207.715V195.583C288.066 192.321 286.779 189.195 284.492 186.89C282.206 184.584 279.106 183.288 275.873 183.286H259.526C256.293 183.286 253.193 184.581 250.907 186.888C248.622 189.194 247.338 192.322 247.338 195.583V207.715C247.332 209.336 247.643 210.941 248.254 212.44C248.865 213.938 249.763 215.3 250.898 216.447C252.032 217.594 253.38 218.503 254.864 219.123C256.347 219.743 257.938 220.061 259.544 220.058H275.892C277.496 220.057 279.084 219.737 280.565 219.115C282.046 218.494 283.391 217.584 284.523 216.438C285.655 215.291 286.552 213.931 287.163 212.434C287.773 210.937 288.085 209.334 288.08 207.715H288.071Z" fill="url(#paint5_linear_1_749)"/>
<path d="M507.775 83.57V118.858H233.969V83.57H247.592C248.309 90.2867 252.732 95.3083 258.263 95.3083C258.512 95.3447 258.766 95.3267 259.007 95.2554C259.249 95.1842 259.472 95.0614 259.662 94.8954C259.852 94.7293 260.005 94.524 260.109 94.2932C260.214 94.0625 260.268 93.8118 260.268 93.5581C260.268 93.3043 260.214 93.0536 260.109 92.8229C260.005 92.5921 259.852 92.3868 259.662 92.2207C259.472 92.0547 259.249 91.9319 259.007 91.8607C258.766 91.7894 258.512 91.7714 258.263 91.8079C255.057 91.8079 252.287 88.1425 251.67 83.5608H282.058C282.776 90.2776 287.199 95.2991 292.73 95.2991C292.979 95.3355 293.232 95.3175 293.474 95.2463C293.715 95.175 293.938 95.0522 294.128 94.8862C294.319 94.7202 294.471 94.5148 294.576 94.2841C294.68 94.0533 294.734 93.8026 294.734 93.5489C294.734 93.2952 294.68 93.0444 294.576 92.8137C294.471 92.583 294.319 92.3776 294.128 92.2116C293.938 92.0456 293.715 91.9228 293.474 91.8515C293.232 91.7803 292.979 91.7623 292.73 91.7987C289.524 91.7987 286.754 88.1333 286.136 83.5517H317.587C318.305 90.2684 322.737 95.2899 328.268 95.2899C328.517 95.3264 328.771 95.3083 329.012 95.2371C329.253 95.1659 329.477 95.0431 329.667 94.877C329.857 94.711 330.009 94.5057 330.114 94.2749C330.218 94.0442 330.272 93.7934 330.272 93.5397C330.272 93.286 330.218 93.0353 330.114 92.8045C330.009 92.5738 329.857 92.3684 329.667 92.2024C329.477 92.0364 329.253 91.9136 329.012 91.8424C328.771 91.7711 328.517 91.7531 328.268 91.7895C325.062 91.7895 322.292 88.1242 321.674 83.5425H352.054C352.771 90.2592 357.203 95.2808 362.734 95.2808C362.983 95.3172 363.237 95.2992 363.478 95.2279C363.72 95.1567 363.943 95.0339 364.133 94.8679C364.323 94.7019 364.476 94.4965 364.58 94.2658C364.685 94.035 364.739 93.7843 364.739 93.5306C364.739 93.2769 364.685 93.0261 364.58 92.7954C364.476 92.5646 364.323 92.3593 364.133 92.1933C363.943 92.0272 363.72 91.9044 363.478 91.8332C363.237 91.762 362.983 91.7439 362.734 91.7804C359.528 91.7804 356.758 88.115 356.141 83.5333H391.107C391.824 90.2501 396.247 95.2716 401.769 95.2716C402.023 95.3171 402.283 95.306 402.532 95.2391C402.781 95.1721 403.012 95.0509 403.209 94.8841C403.407 94.7172 403.566 94.5087 403.674 94.2733C403.783 94.0379 403.84 93.7812 403.84 93.5214C403.84 93.2616 403.783 93.0049 403.674 92.7695C403.566 92.5341 403.407 92.3256 403.209 92.1587C403.012 91.9919 402.781 91.8707 402.532 91.8037C402.283 91.7368 402.023 91.7257 401.769 91.7712C398.572 91.7712 395.802 88.1059 395.194 83.5242H425.564C426.291 90.2409 430.714 95.2624 436.236 95.2624C436.485 95.2989 436.738 95.2808 436.98 95.2096C437.221 95.1384 437.444 95.0156 437.634 94.8495C437.825 94.6835 437.977 94.4782 438.082 94.2474C438.186 94.0167 438.24 93.7659 438.24 93.5122C438.24 93.2585 438.186 93.0078 438.082 92.7771C437.977 92.5463 437.825 92.3409 437.634 92.1749C437.444 92.0089 437.221 91.8861 436.98 91.8149C436.738 91.7436 436.485 91.7256 436.236 91.762C433.03 91.762 430.26 88.0967 429.651 83.515H461.102C461.82 90.2318 466.243 95.2533 471.774 95.2533C472.023 95.2897 472.276 95.2717 472.518 95.2004C472.759 95.1292 472.982 95.0064 473.173 94.8404C473.363 94.6744 473.515 94.469 473.62 94.2383C473.724 94.0075 473.778 93.7568 473.778 93.5031C473.778 93.2494 473.724 92.9986 473.62 92.7679C473.515 92.5371 473.363 92.3318 473.173 92.1658C472.982 91.9997 472.759 91.8769 472.518 91.8057C472.276 91.7345 472.023 91.7164 471.774 91.7529C468.568 91.7529 465.798 88.0875 465.18 83.5059L507.775 83.57Z" fill="url(#paint6_linear_1_749)"/>
<path d="M481.182 234.68H464.835C458.103 234.68 452.646 240.186 452.646 246.977V259.119C452.646 265.91 458.103 271.416 464.835 271.416H481.182C487.914 271.416 493.371 265.91 493.371 259.119V246.977C493.371 240.186 487.914 234.68 481.182 234.68Z" fill="url(#paint7_linear_1_749)"/>
<path d="M480.199 131.898H463.851C457.12 131.898 451.663 137.404 451.663 144.195V156.337C451.663 163.128 457.12 168.634 463.851 168.634H480.199C486.93 168.634 492.387 163.128 492.387 156.337V144.195C492.387 137.404 486.93 131.898 480.199 131.898Z" fill="url(#paint8_linear_1_749)"/>
<path d="M491.851 195.587V207.72C491.857 209.342 491.545 210.949 490.933 212.448C490.321 213.948 489.421 215.311 488.285 216.458C487.148 217.605 485.799 218.514 484.313 219.133C482.827 219.752 481.234 220.068 479.627 220.063H463.279C461.678 220.063 460.092 219.744 458.613 219.126C457.133 218.507 455.789 217.601 454.657 216.458C453.526 215.315 452.628 213.958 452.016 212.465C451.404 210.972 451.09 209.372 451.091 207.756V195.587C451.093 192.327 452.378 189.2 454.663 186.895C456.949 184.589 460.047 183.293 463.279 183.29H479.627C481.23 183.285 482.819 183.6 484.302 184.216C485.785 184.832 487.133 185.737 488.269 186.879C489.404 188.021 490.305 189.379 490.92 190.873C491.535 192.367 491.851 193.969 491.851 195.587Z" fill="url(#paint9_linear_1_749)"/>
<path d="M431.577 234.68H415.229C408.498 234.68 403.041 240.186 403.041 246.977V259.119C403.041 265.91 408.498 271.416 415.229 271.416H431.577C438.308 271.416 443.765 265.91 443.765 259.119V246.977C443.765 240.186 438.308 234.68 431.577 234.68Z" fill="url(#paint10_linear_1_749)"/>
<path d="M430.598 131.898H414.251C407.519 131.898 402.062 137.404 402.062 144.195V156.337C402.062 163.128 407.519 168.634 414.251 168.634H430.598C437.33 168.634 442.786 163.128 442.786 156.337V144.195C442.786 137.404 437.33 131.898 430.598 131.898Z" fill="url(#paint11_linear_1_749)"/>
<path d="M430.056 183.29H413.709C406.977 183.29 401.521 188.796 401.521 195.587V207.729C401.521 214.52 406.977 220.026 413.709 220.026H430.056C436.788 220.026 442.245 214.52 442.245 207.729V195.587C442.245 188.796 436.788 183.29 430.056 183.29Z" fill="url(#paint12_linear_1_749)"/>
<path d="M393.073 246.988V259.111C393.063 262.368 391.774 265.489 389.487 267.789C387.201 270.089 384.104 271.381 380.875 271.381H364.528C362.927 271.379 361.343 271.06 359.864 270.441C358.386 269.822 357.043 268.915 355.912 267.772C354.781 266.63 353.884 265.273 353.273 263.781C352.662 262.289 352.347 260.689 352.349 259.074V246.988C352.358 243.733 353.647 240.614 355.931 238.316C358.216 236.018 361.311 234.727 364.537 234.727H380.885C384.11 234.73 387.203 236.021 389.487 238.319C391.772 240.617 393.061 243.734 393.073 246.988Z" fill="url(#paint13_linear_1_749)"/>
<path d="M380.347 286.065H364C357.268 286.065 351.812 291.571 351.812 298.362V310.504C351.812 317.295 357.268 322.801 364 322.801H380.347C387.079 322.801 392.536 317.295 392.536 310.504V298.362C392.536 291.571 387.079 286.065 380.347 286.065Z" fill="url(#paint14_linear_1_749)"/>
<path d="M379.901 131.898H363.553C356.822 131.898 351.365 137.404 351.365 144.195V156.337C351.365 163.128 356.822 168.634 363.553 168.634H379.901C386.632 168.634 392.089 163.128 392.089 156.337V144.195C392.089 137.404 386.632 131.898 379.901 131.898Z" fill="url(#paint15_linear_1_749)"/>
<path d="M391.525 195.587V207.72C391.531 209.337 391.221 210.939 390.612 212.435C390.004 213.931 389.108 215.292 387.978 216.438C386.847 217.585 385.504 218.495 384.024 219.117C382.545 219.739 380.958 220.06 379.355 220.063H363.007C361.406 220.063 359.821 219.744 358.341 219.126C356.862 218.507 355.518 217.601 354.386 216.458C353.254 215.315 352.356 213.958 351.745 212.465C351.133 210.972 350.818 209.372 350.819 207.756V195.587C350.822 192.327 352.107 189.2 354.392 186.895C356.677 184.589 359.776 183.293 363.007 183.29H379.355C382.585 183.295 385.68 184.593 387.962 186.898C390.244 189.204 391.525 192.329 391.525 195.587Z" fill="url(#paint16_linear_1_749)"/>
<path d="M340.291 246.988V259.111C340.284 262.368 338.997 265.488 336.712 267.789C334.427 270.089 331.331 271.381 328.103 271.381H311.756C310.154 271.381 308.569 271.062 307.089 270.444C305.61 269.825 304.266 268.919 303.134 267.776C302.002 266.633 301.105 265.276 300.493 263.783C299.881 262.29 299.566 260.69 299.567 259.074V246.988C299.579 243.732 300.87 240.614 303.156 238.316C305.442 236.018 308.538 234.727 311.765 234.727H328.112C331.337 234.73 334.429 236.021 336.712 238.319C338.995 240.617 340.282 243.734 340.291 246.988Z" fill="url(#paint17_linear_1_749)"/>
<path d="M327.58 286.065H311.232C304.501 286.065 299.044 291.571 299.044 298.362V310.504C299.044 317.295 304.501 322.801 311.232 322.801H327.58C334.311 322.801 339.768 317.295 339.768 310.504V298.362C339.768 291.571 334.311 286.065 327.58 286.065Z" fill="url(#paint18_linear_1_749)"/>
<path d="M327.12 131.898H310.772C304.041 131.898 298.584 137.404 298.584 144.195V156.337C298.584 163.128 304.041 168.634 310.772 168.634H327.12C333.851 168.634 339.308 163.128 339.308 156.337V144.195C339.308 137.404 333.851 131.898 327.12 131.898Z" fill="url(#paint19_linear_1_749)"/>
<path d="M338.766 195.587V207.72C338.772 209.338 338.461 210.942 337.851 212.44C337.241 213.937 336.345 215.298 335.212 216.445C334.08 217.591 332.734 218.501 331.253 219.122C329.771 219.743 328.182 220.063 326.578 220.063H310.23C308.629 220.063 307.043 219.744 305.564 219.126C304.085 218.507 302.74 217.601 301.609 216.458C300.477 215.315 299.579 213.958 298.967 212.465C298.355 210.972 298.041 209.372 298.042 207.756V195.587C298.042 193.972 298.357 192.373 298.97 190.881C299.582 189.389 300.48 188.034 301.612 186.892C302.744 185.75 304.087 184.844 305.566 184.226C307.045 183.608 308.63 183.29 310.23 183.29H326.578C329.81 183.293 332.908 184.589 335.194 186.895C337.479 189.2 338.764 192.327 338.766 195.587Z" fill="url(#paint20_linear_1_749)"/>
<path d="M277.406 234.68H261.058C254.327 234.68 248.87 240.186 248.87 246.977V259.119C248.87 265.91 254.327 271.416 261.058 271.416H277.406C284.137 271.416 289.594 265.91 289.594 259.119V246.977C289.594 240.186 284.137 234.68 277.406 234.68Z" fill="url(#paint21_linear_1_749)"/>
<path d="M276.864 286.065H260.516C253.785 286.065 248.328 291.571 248.328 298.362V310.504C248.328 317.295 253.785 322.801 260.516 322.801H276.864C283.595 322.801 289.052 317.295 289.052 310.504V298.362C289.052 291.571 283.595 286.065 276.864 286.065Z" fill="url(#paint22_linear_1_749)"/>
<path d="M288.606 144.195V156.328C288.607 157.942 288.293 159.541 287.681 161.033C287.07 162.525 286.173 163.88 285.042 165.022C283.911 166.164 282.568 167.07 281.09 167.689C279.611 168.307 278.027 168.625 276.427 168.625H260.079C258.478 168.626 256.892 168.309 255.412 167.691C253.932 167.074 252.588 166.168 251.455 165.026C250.322 163.884 249.424 162.528 248.81 161.036C248.197 159.543 247.882 157.943 247.882 156.328V144.195C247.882 142.58 248.197 140.98 248.81 139.487C249.424 137.995 250.322 136.639 251.455 135.497C252.588 134.355 253.932 133.449 255.412 132.832C256.892 132.214 258.478 131.897 260.079 131.898H276.427C278.027 131.898 279.611 132.216 281.09 132.834C282.568 133.452 283.911 134.358 285.042 135.5C286.173 136.642 287.07 137.998 287.681 139.49C288.293 140.982 288.607 142.581 288.606 144.195Z" fill="url(#paint23_linear_1_749)"/>
<path d="M275.899 183.29H259.551C252.82 183.29 247.363 188.796 247.363 195.587V207.729C247.363 214.52 252.82 220.026 259.551 220.026H275.899C282.63 220.026 288.087 214.52 288.087 207.729V195.587C288.087 188.796 282.63 183.29 275.899 183.29Z" fill="url(#paint24_linear_1_749)"/>
<path d="M268.369 76.9704C268.422 77.2086 268.424 77.4554 268.376 77.6946C268.328 77.9338 268.23 78.1601 268.09 78.3588C267.949 78.5576 267.769 78.7243 267.56 78.8482C267.352 78.9721 267.12 79.0503 266.88 79.0779C266.386 79.2103 265.861 79.1522 265.408 78.9149C264.954 78.6777 264.605 78.2784 264.428 77.7951C263.365 74.0198 260.867 71.4723 258.224 71.4723C254.592 71.4723 251.504 76.1273 251.504 81.6437C251.505 82.2872 251.547 82.93 251.631 83.568C252.248 88.1496 255.018 91.815 258.224 91.815C258.473 91.7786 258.727 91.7966 258.968 91.8678C259.21 91.9391 259.433 92.0619 259.623 92.2279C259.813 92.3939 259.966 92.5992 260.07 92.83C260.175 93.0607 260.229 93.3115 260.229 93.5652C260.229 93.8189 260.175 94.0696 260.07 94.3004C259.966 94.5311 259.813 94.7365 259.623 94.9025C259.433 95.0685 259.21 95.1913 258.968 95.2626C258.727 95.3338 258.473 95.3518 258.224 95.3154C252.693 95.3154 248.234 90.2939 247.553 83.5771C247.487 82.9378 247.454 82.2956 247.453 81.6528C247.453 73.9831 252.185 67.9811 258.224 67.9811C262.856 67.9445 266.825 71.4998 268.369 76.9704Z" fill="white"/>
<path d="M338.37 76.9704C338.423 77.2086 338.425 77.4554 338.377 77.6946C338.329 77.9338 338.231 78.1601 338.091 78.3588C337.95 78.5576 337.77 78.7243 337.562 78.8482C337.353 78.9721 337.121 79.0503 336.881 79.0779C336.387 79.206 335.864 79.146 335.412 78.9093C334.959 78.6726 334.609 78.2759 334.429 77.7951C333.366 74.0198 330.878 71.4723 328.235 71.4723C324.602 71.4723 321.514 76.1273 321.514 81.6437C321.515 82.2872 321.558 82.93 321.641 83.568C322.259 88.1496 325.029 91.815 328.235 91.815C328.484 91.7786 328.737 91.7966 328.979 91.8678C329.22 91.9391 329.443 92.0619 329.634 92.2279C329.824 92.3939 329.976 92.5992 330.081 92.83C330.185 93.0607 330.239 93.3115 330.239 93.5652C330.239 93.8189 330.185 94.0696 330.081 94.3004C329.976 94.5311 329.824 94.7365 329.634 94.9025C329.443 95.0685 329.22 95.1913 328.979 95.2626C328.737 95.3338 328.484 95.3518 328.235 95.3154C322.704 95.3154 318.245 90.2939 317.554 83.5771C317.484 82.9382 317.451 82.2957 317.454 81.6528C317.454 73.9831 322.186 67.9811 328.235 67.9811C332.858 67.9445 336.836 71.4998 338.37 76.9704Z" fill="white"/>
<path d="M372.836 76.9704C372.889 77.2086 372.891 77.4554 372.843 77.6946C372.795 77.9338 372.697 78.1601 372.557 78.3588C372.416 78.5576 372.236 78.7243 372.028 78.8482C371.819 78.9721 371.587 79.0503 371.347 79.0779C370.853 79.206 370.33 79.146 369.878 78.9093C369.425 78.6726 369.075 78.2759 368.895 77.7951C367.832 74.0198 365.344 71.4723 362.701 71.4723C359.068 71.4723 355.98 76.1273 355.98 81.6437C355.981 82.2872 356.023 82.93 356.107 83.568C356.725 88.1496 359.495 91.815 362.701 91.815C362.949 91.7786 363.203 91.7966 363.445 91.8678C363.686 91.9391 363.909 92.0619 364.099 92.2279C364.289 92.3939 364.442 92.5992 364.547 92.83C364.651 93.0607 364.705 93.3115 364.705 93.5652C364.705 93.8189 364.651 94.0696 364.547 94.3004C364.442 94.5311 364.289 94.7365 364.099 94.9025C363.909 95.0685 363.686 95.1913 363.445 95.2626C363.203 95.3338 362.949 95.3518 362.701 95.3154C357.17 95.3154 352.71 90.2939 352.02 83.5771C351.95 82.9382 351.917 82.2957 351.92 81.6528C351.92 73.9831 356.652 67.9811 362.701 67.9811C367.314 67.9445 371.301 71.4998 372.836 76.9704Z" fill="white"/>
<path d="M411.899 76.9704C411.95 77.2092 411.951 77.4562 411.901 77.6954C411.852 77.9346 411.754 78.1608 411.612 78.3593C411.471 78.5578 411.291 78.7243 411.082 78.8481C410.873 78.9719 410.641 79.0502 410.4 79.0779C409.907 79.206 409.384 79.146 408.931 78.9093C408.479 78.6726 408.129 78.2759 407.948 77.7951C406.885 74.0198 404.397 71.4723 401.745 71.4723C398.112 71.4723 395.033 76.1273 395.033 81.6437C395.033 82.2876 395.078 82.9307 395.17 83.568C395.778 88.1497 398.548 91.815 401.745 91.815C401.999 91.7695 402.259 91.7806 402.508 91.8475C402.756 91.9145 402.988 92.0357 403.185 92.2025C403.383 92.3694 403.541 92.5778 403.65 92.8133C403.759 93.0487 403.816 93.3054 403.816 93.5652C403.816 93.825 403.759 94.0817 403.65 94.3171C403.541 94.5525 403.383 94.761 403.185 94.9279C402.988 95.0947 402.756 95.2159 402.508 95.2828C402.259 95.3498 401.999 95.3609 401.745 95.3154C396.223 95.3154 391.8 90.2939 391.083 83.5771C391.009 82.9384 390.973 82.2959 390.974 81.6528C390.974 73.9831 395.714 67.9811 401.745 67.9811C406.377 67.9445 410.355 71.4998 411.899 76.9704Z" fill="white"/>
<path d="M446.347 76.9704C446.399 77.2086 446.401 77.4554 446.353 77.6946C446.305 77.9338 446.208 78.1601 446.067 78.3588C445.927 78.5576 445.746 78.7243 445.538 78.8482C445.33 78.9721 445.098 79.0503 444.857 79.0779C444.364 79.2081 443.84 79.1491 443.387 78.9121C442.934 78.6751 442.584 78.2771 442.405 77.7951C441.342 74.0198 438.854 71.4723 436.202 71.4723C432.569 71.4723 429.49 76.1273 429.49 81.6437C429.491 82.2872 429.534 82.93 429.618 83.568C430.226 88.1496 432.996 91.815 436.202 91.815C436.451 91.7786 436.705 91.7966 436.946 91.8678C437.187 91.9391 437.411 92.0619 437.601 92.2279C437.791 92.3939 437.943 92.5992 438.048 92.83C438.152 93.0607 438.207 93.3115 438.207 93.5652C438.207 93.8189 438.152 94.0696 438.048 94.3004C437.943 94.5311 437.791 94.7365 437.601 94.9025C437.411 95.0685 437.187 95.1913 436.946 95.2626C436.705 95.3338 436.451 95.3518 436.202 95.3154C430.68 95.3154 426.257 90.2939 425.531 83.5771C425.465 82.9378 425.432 82.2956 425.431 81.6528C425.431 73.9831 430.172 67.9811 436.202 67.9811C440.834 67.9445 444.812 71.4998 446.347 76.9704Z" fill="white"/>
<path d="M302.849 76.9704C302.9 77.2092 302.9 77.4562 302.851 77.6954C302.802 77.9346 302.703 78.1608 302.562 78.3593C302.421 78.5578 302.24 78.7243 302.032 78.8481C301.823 78.9719 301.591 79.0502 301.35 79.0779C300.858 79.2077 300.335 79.1483 299.884 78.9113C299.432 78.6742 299.084 78.2764 298.907 77.7951C297.844 74.0198 295.347 71.4723 292.704 71.4723C289.071 71.4723 285.983 76.1273 285.983 81.6437C285.984 82.2872 286.027 82.93 286.11 83.568C286.728 88.1496 289.498 91.815 292.704 91.815C292.953 91.7786 293.207 91.7966 293.448 91.8678C293.689 91.9391 293.912 92.0619 294.103 92.2279C294.293 92.3939 294.445 92.5992 294.55 92.83C294.654 93.0607 294.708 93.3115 294.708 93.5652C294.708 93.8189 294.654 94.0696 294.55 94.3004C294.445 94.5311 294.293 94.7365 294.103 94.9025C293.912 95.0685 293.689 95.1913 293.448 95.2626C293.207 95.3338 292.953 95.3518 292.704 95.3154C287.173 95.3154 282.714 90.2939 282.033 83.5771C281.967 82.9378 281.933 82.2956 281.933 81.6528C281.933 73.9831 286.664 67.9811 292.704 67.9811C297.336 67.9445 301.305 71.4998 302.849 76.9704Z" fill="white"/>
<path d="M480.396 79.0777C479.903 79.21 479.378 79.1519 478.924 78.9147C478.471 78.6774 478.121 78.2781 477.944 77.7948C476.882 74.0195 474.393 71.4721 471.741 71.4721C468.108 71.4721 465.02 76.127 465.02 81.6434C465.021 82.2869 465.064 82.9297 465.147 83.5677C465.765 88.1494 468.535 91.8147 471.741 91.8147C471.99 91.7783 472.244 91.7963 472.485 91.8675C472.726 91.9388 472.95 92.0616 473.14 92.2276C473.33 92.3936 473.482 92.599 473.587 92.8297C473.692 93.0605 473.746 93.3112 473.746 93.5649C473.746 93.8186 473.692 94.0693 473.587 94.3001C473.482 94.5308 473.33 94.7362 473.14 94.9022C472.95 95.0682 472.726 95.191 472.485 95.2623C472.244 95.3335 471.99 95.3515 471.741 95.3151C466.21 95.3151 461.751 90.2936 461.07 83.5769C461.004 82.9375 460.971 82.2953 460.97 81.6526C460.97 73.9828 465.692 67.9808 471.741 67.9808C476.364 67.9808 480.351 71.5087 481.886 76.9792C481.935 77.2168 481.935 77.4621 481.886 77.6996C481.837 77.9372 481.739 78.1618 481.599 78.3591C481.459 78.5565 481.279 78.7222 481.072 78.8459C480.865 78.9696 480.635 79.0486 480.396 79.0777Z" fill="white"/>
<path d="M424.34 322.793C435.466 322.793 444.484 313.694 444.484 302.469C444.484 291.244 435.466 282.144 424.34 282.144C413.215 282.144 404.196 291.244 404.196 302.469C404.196 313.694 413.215 322.793 424.34 322.793Z" stroke="#C356D6" stroke-width="4.58258" stroke-miterlimit="10"/>
<g style="mix-blend-mode:soft-light">
<path d="M159.322 244.508C159.333 262.98 164.772 281.035 174.952 296.389C185.131 311.743 199.595 323.707 216.513 330.769C233.431 337.831 252.045 339.673 270 336.062C287.956 332.452 304.448 323.551 317.39 310.485C330.333 297.419 339.145 280.775 342.713 262.656C346.281 244.538 344.444 225.759 337.435 208.693C330.426 191.628 318.56 177.042 303.336 166.78C288.112 156.519 270.214 151.042 251.905 151.042C239.742 151.042 227.699 153.459 216.463 158.157C205.226 162.855 195.018 169.741 186.42 178.42C177.822 187.1 171.004 197.404 166.354 208.744C161.705 220.083 159.315 232.236 159.322 244.508Z" fill="black"/>
</g>
<path d="M142.229 244.508C142.239 262.981 147.679 281.036 157.859 296.39C168.039 311.744 182.502 323.709 199.421 330.77C216.34 337.831 234.954 339.673 252.91 336.062C270.866 332.45 287.357 323.549 300.3 310.482C313.242 297.415 322.053 280.77 325.62 262.65C329.187 244.531 327.349 225.752 320.339 208.687C313.328 191.621 301.46 177.036 286.235 166.776C271.01 156.515 253.111 151.04 234.802 151.042C222.64 151.043 210.598 153.462 199.363 158.16C188.127 162.858 177.92 169.744 169.323 178.424C160.726 187.103 153.908 197.407 149.259 208.746C144.611 220.085 142.221 232.237 142.229 244.508Z" fill="url(#paint25_linear_1_749)"/>
<path d="M152.947 244.513C152.947 260.847 157.748 276.815 166.743 290.397C175.737 303.979 188.521 314.564 203.479 320.815C218.436 327.066 234.895 328.702 250.774 325.515C266.652 322.328 281.238 314.463 292.686 302.912C304.133 291.362 311.93 276.646 315.088 260.625C318.247 244.604 316.625 227.998 310.43 212.907C304.234 197.816 293.743 184.917 280.281 175.842C266.82 166.767 250.994 161.923 234.804 161.923C213.094 161.923 192.274 170.625 176.923 186.113C161.571 201.602 152.947 222.609 152.947 244.513Z" fill="url(#paint26_linear_1_749)"/>
<path d="M236.348 170.429H231.943V188.731H236.348V170.429Z" fill="#1F1C38"/>
<path d="M236.348 303.134H231.943V321.437H236.348V303.134Z" fill="#1F1C38"/>
<path d="M178.109 242.488H159.972V246.511H178.109V242.488Z" fill="#1F1C38"/>
<path d="M309.643 242.488H291.506V246.511H309.643V242.488Z" fill="#1F1C38"/>
<path d="M233.882 137.853L245.743 172.857H222.538L233.882 137.853Z" fill="#1F1C38"/>
<path d="M230.022 247.214H238.277V165.505H230.022V247.214Z" fill="#1F1C38"/>
<path d="M153.061 244.767L187.754 232.797V256.214L153.061 244.767Z" fill="#1F1C38"/>
<path d="M238.277 248.672V240.341H180.452V248.672H238.277Z" fill="#1F1C38"/>
<path d="M235.439 243.859L234.132 245.235L275.069 284.816L276.376 283.439L235.439 243.859Z" fill="#1F1C38"/>
<path d="M223.12 246.417C223.12 248.211 223.647 249.966 224.635 251.458C225.623 252.95 227.028 254.113 228.671 254.8C230.314 255.486 232.121 255.666 233.865 255.316C235.61 254.966 237.212 254.102 238.469 252.833C239.727 251.564 240.583 249.947 240.93 248.187C241.277 246.427 241.099 244.603 240.418 242.945C239.738 241.287 238.585 239.87 237.107 238.873C235.628 237.876 233.89 237.343 232.111 237.343C229.727 237.343 227.44 238.299 225.754 240.001C224.067 241.703 223.12 244.01 223.12 246.417Z" fill="#1F1C38"/>
<path d="M555.122 331.002C555.122 331.002 561.698 342.376 559.173 345.803C556.648 349.231 544.078 348.681 542.825 345.803C541.572 342.925 544.642 331.002 544.642 331.002H555.122Z" fill="#705DA0"/>
<path d="M542.785 205.955L557.534 330.998H542.785L518.999 221.89L496.248 217.308L501.933 208.319C522.468 216.218 542.785 205.955 542.785 205.955Z" fill="#1F1C38"/>
<path d="M519.005 221.892V333.208H500.614C499.706 323.33 494.629 221.113 494.574 220.004L496.254 217.356L519.005 221.892Z" fill="#121226"/>
<path d="M516.145 333.207L517.68 347.569H484.158C487.119 340.392 500.588 333.207 500.588 333.207H516.145Z" fill="#705DA0"/>
<path d="M543.817 160.892L526.252 169.965L539.094 149.683L543.817 160.892Z" fill="url(#paint27_linear_1_749)"/>
<path d="M542.787 205.963C542.787 205.963 522.471 216.226 501.918 208.364L517.557 183.678L518.983 183.357V187.252C518.983 187.252 531.208 184.045 542.17 180.929L542.787 205.963Z" fill="url(#paint28_linear_1_749)"/>
<path d="M531.384 118.343L528.659 122.531L525.825 126.938L496.036 173.323L488.198 185.547L487.681 185.208C487.681 185.208 492.385 135.497 492.721 133.518C493.057 131.538 507.943 124.272 507.943 124.272L512.23 132.134L523.519 115.906L531.384 118.343Z" fill="url(#paint29_linear_1_749)"/>
<path d="M559.15 175.318C558.777 175.95 550.976 178.433 542.193 180.917C531.231 184.032 519.007 187.239 519.007 187.239V173.705L526.273 169.957L543.837 160.876L539.115 149.679L545.853 139.031L548.651 134.605L551.503 130.106C551.503 130.106 561.366 171.488 559.15 175.318Z" fill="url(#paint30_linear_1_749)"/>
<path d="M487.082 187.243C489.67 191.762 489.661 196.995 488.326 200.148L487.091 202.073C484.92 204.263 479.971 205.51 476.983 202.989C476.64 202.726 476.335 202.418 476.074 202.073C473.277 198.407 480.289 189.37 482.205 187.711C484.121 186.052 487.082 187.243 487.082 187.243Z" fill="url(#paint31_linear_1_749)"/>
<path d="M518.994 175.477V183.359L517.568 183.68C515.379 184.156 511.056 185.073 507.251 185.687C505.378 186.024 503.484 186.232 501.584 186.31C500.939 186.308 500.308 186.128 499.758 185.791C499.207 185.453 498.758 184.97 498.459 184.395C496.934 181.847 496.979 177.392 497.805 174.927C497.849 174.806 497.904 174.689 497.969 174.579C498.877 173.03 502.147 173.488 504.971 174.267C506.569 174.724 508.139 175.272 509.676 175.908C509.44 175.724 506.724 173.543 506.225 172.324L506.742 171.508C508.086 171.389 511.883 172.691 514.916 173.836C517.168 174.707 518.994 175.477 518.994 175.477Z" fill="url(#paint32_linear_1_749)"/>
<path d="M561.356 114.499L552.81 127.996L552.274 127.639C548.391 127.219 544.644 125.95 541.296 123.921C537.947 121.893 535.077 119.153 532.884 115.892L541.376 102.715C541.376 102.715 540.404 119.749 561.356 114.499Z" fill="url(#paint33_linear_1_749)"/>
<path d="M541.385 102.715L561.366 114.501C540.413 119.753 541.385 102.715 541.385 102.715Z" fill="#615AA3"/>
<path d="M531.385 118.343L532.929 115.933C535.122 119.18 537.987 121.909 541.327 123.93C544.667 125.95 548.402 127.215 552.274 127.637L552.81 127.994L551.466 130.111L548.641 134.611L548.314 134.401C544.432 133.979 540.688 132.709 537.341 130.68C533.994 128.651 531.125 125.911 528.933 122.651L528.679 122.486L531.385 118.343Z" fill="#C6C6C6"/>
<path d="M531.514 133.009C529.413 131.369 527.601 129.383 526.155 127.134L525.828 126.923L528.662 122.515L528.916 122.68C531.108 125.94 533.977 128.68 537.324 130.709C540.671 132.738 544.415 134.008 548.297 134.43L548.624 134.64L545.827 139.067L545.536 138.875C543.159 138.596 540.827 138.011 538.598 137.133C536.046 136.123 533.658 134.732 531.514 133.009Z" fill="#828282"/>
<path d="M545.835 139.043L539.097 149.691L526.255 169.97L518.989 173.718V175.477C518.989 175.477 517.172 174.707 514.884 173.837L538.588 137.11C540.818 137.987 543.15 138.572 545.527 138.851L545.835 139.043Z" fill="url(#paint34_linear_1_749)"/>
<path d="M538.606 137.1L514.901 173.827C511.904 172.681 508.108 171.38 506.728 171.499L531.485 133.013C533.643 134.726 536.043 136.104 538.606 137.1Z" fill="url(#paint35_linear_1_749)"/>
<path d="M531.519 133.01L506.762 171.496C506.162 171.551 506.062 171.863 506.244 172.312L504.982 174.245C502.157 173.466 498.924 173.008 497.979 174.557C497.914 174.667 497.859 174.784 497.816 174.905C496.989 177.37 496.908 181.823 498.47 184.371L488.334 200.132C489.669 196.979 489.678 191.747 487.09 187.23L488.207 185.516L496.045 173.329L525.834 126.916L526.161 127.127C527.606 129.378 529.418 131.367 531.519 133.01Z" fill="url(#paint36_linear_1_749)"/>
<path d="M517.575 183.672L501.936 208.358L496.25 217.31L494.57 219.959L461.63 272.016C461.63 272.016 462.837 265.821 460.976 265.216C459.114 264.612 453.892 268.396 453.892 268.396L507.258 185.678C511.063 185.064 515.386 184.148 517.575 183.672Z" fill="url(#paint37_linear_1_749)"/>
<path d="M453.896 268.401C453.896 268.401 455.858 261.391 454.168 260.887C452.479 260.383 447.075 264.342 447.075 264.342L487.082 202.095C487.611 201.538 488.03 200.885 488.317 200.171L498.453 184.41C498.751 184.985 499.2 185.468 499.751 185.805C500.301 186.143 500.933 186.322 501.577 186.325C503.478 186.247 505.371 186.038 507.244 185.702L453.896 268.401Z" fill="url(#paint38_linear_1_749)"/>
<path d="M509.677 175.904C508.141 175.268 506.57 174.72 504.973 174.263L506.226 172.32C506.726 173.539 509.441 175.72 509.677 175.904Z" fill="url(#paint39_linear_1_749)"/>
<path d="M487.081 202.093L447.074 264.339C447.074 264.339 448.718 257.302 447.683 256.193C446.647 255.084 441.053 258.988 441.053 258.988L476.972 203.027C479.96 205.529 484.91 204.283 487.081 202.093Z" fill="url(#paint40_linear_1_749)"/>
<path d="M460.97 265.219C462.786 265.823 461.624 272.018 461.624 272.018L443.886 283.289C443.886 283.289 447.973 277.708 439.027 274.923L441.044 258.997C441.044 258.997 446.629 255.093 447.673 256.202C448.718 257.311 447.065 264.348 447.065 264.348C447.065 264.348 452.46 260.399 454.158 260.894C455.856 261.388 453.886 268.408 453.886 268.408C453.886 268.408 459.108 264.614 460.97 265.219Z" fill="url(#paint41_linear_1_749)"/>
<path d="M439.02 274.917C447.966 277.666 443.879 283.285 443.879 283.285C438.085 284.943 437.967 283.285 437.967 283.285L439.02 274.917Z" fill="#1F1C38"/>
<path d="M527.013 87.7393C528.176 91.1389 529.384 98.1489 522.699 110.648L522.136 107.111C522.136 107.111 525.134 104.243 524.325 100.357C523.517 96.472 519.339 102.373 519.339 102.373C519.339 102.373 520.638 92.8525 516.941 91.4963C513.636 90.2776 503.636 96.2979 497.424 95.3724C496.708 95.2769 496.013 95.0568 495.372 94.7218C489.586 91.5971 488.333 88.3075 494.282 88.4724C500.23 88.6373 510.757 80.2254 513.944 81.829C517.132 83.4326 517.241 85.6501 517.241 85.6501C517.241 85.6501 525.815 84.2114 527.013 87.7393Z" fill="#1F1C38"/>
<path d="M522.683 110.663L523.518 115.886L512.229 132.087L517.152 117.16L511.512 117.362H511.457L508.442 117.463H507.307C505.049 117.426 502.829 116.875 500.813 115.85C499.432 115.043 498.588 112.349 498.088 109.161L497.38 96.0386C497.38 95.5988 497.38 95.3513 497.38 95.3513C503.601 96.2677 513.601 90.2565 516.897 91.4661C520.603 92.8406 519.295 102.352 519.295 102.352C519.295 102.352 523.5 96.4693 524.29 100.336C525.08 104.203 522.101 107.09 522.101 107.09L522.683 110.663Z" fill="url(#paint42_linear_1_749)"/>
<path d="M511.455 117.434C510.076 117.569 508.689 117.602 507.305 117.535H508.44L511.455 117.434Z" fill="url(#paint43_linear_1_749)"/>
<path d="M517.159 117.19L512.237 132.12L507.95 124.257L508.45 117.502L517.159 117.19Z" fill="#F79244"/>
<path d="M507.989 109.453L504.856 109.599L503.947 99.9758C503.947 99.4534 503.085 99.4534 503.139 99.9758C503.448 103.33 503.751 106.691 504.047 110.057C504.053 110.115 504.07 110.171 504.097 110.222C504.125 110.272 504.162 110.317 504.207 110.353C504.252 110.389 504.304 110.415 504.359 110.431C504.414 110.446 504.472 110.45 504.529 110.442H504.62L507.962 110.287C508.516 110.25 508.516 109.434 507.989 109.453Z" fill="#F79244"/>
<path d="M510.013 112.217C508.001 113.228 505.694 113.469 503.52 112.895C503.422 112.884 503.324 112.908 503.243 112.964C503.162 113.02 503.104 113.103 503.078 113.198C503.053 113.294 503.063 113.396 503.105 113.485C503.148 113.574 503.221 113.644 503.311 113.683C505.693 114.307 508.219 114.04 510.422 112.932C510.894 112.703 510.504 111.988 510.013 112.217Z" fill="#1F1C38"/>
<path d="M513.814 97.612C513.114 97.0851 512.286 96.7605 511.417 96.6733C510.548 96.5861 509.672 96.7396 508.883 97.1171C507.92 97.5479 508.737 98.9501 509.682 98.5377C510.228 98.3069 510.826 98.231 511.412 98.3183C511.998 98.4055 512.549 98.6525 513.006 99.0326C513.832 99.665 514.641 98.2444 513.814 97.612Z" fill="#1F1C38"/>
<path d="M501.593 98.046C500.895 97.8375 500.155 97.8123 499.445 97.9727C498.734 98.133 498.076 98.4737 497.533 98.9625C496.752 99.6682 497.896 100.796 498.677 100.136C499.012 99.8328 499.42 99.6236 499.859 99.5288C500.299 99.4339 500.756 99.4567 501.184 99.5949C501.372 99.6087 501.558 99.556 501.712 99.4458C501.865 99.3356 501.975 99.1748 502.024 98.9912C502.072 98.8076 502.056 98.6127 501.977 98.4402C501.898 98.2676 501.762 98.1282 501.593 98.046Z" fill="#1F1C38"/>
<path d="M510.761 102.718C511.449 102.718 512.007 102.017 512.007 101.151C512.007 100.286 511.449 99.584 510.761 99.584C510.073 99.584 509.516 100.286 509.516 101.151C509.516 102.017 510.073 102.718 510.761 102.718Z" fill="#1F1C38"/>
<path d="M500.096 103.518C500.784 103.518 501.342 102.816 501.342 101.95C501.342 101.085 500.784 100.383 500.096 100.383C499.408 100.383 498.851 101.085 498.851 101.95C498.851 102.816 499.408 103.518 500.096 103.518Z" fill="#1F1C38"/>
<defs>
<linearGradient id="paint0_linear_1_749" x1="14.262" y1="173.922" x2="558.297" y2="173.922" gradientUnits="userSpaceOnUse">
<stop stop-color="#8AEBD6"/>
<stop offset="0.46" stop-color="#89E9D7"/>
<stop offset="0.63" stop-color="#84E2DA"/>
<stop offset="0.75" stop-color="#7DD7DE"/>
<stop offset="0.84" stop-color="#72C6E5"/>
<stop offset="0.92" stop-color="#64B0EE"/>
<stop offset="0.99" stop-color="#5395F9"/>
<stop offset="1" stop-color="#5193FA"/>
</linearGradient>
<linearGradient id="paint1_linear_1_749" x1="184715" y1="120738" x2="184715" y2="3043.93" gradientUnits="userSpaceOnUse">
<stop stop-color="#8AEBD6"/>
<stop offset="0.46" stop-color="#89E9D7"/>
<stop offset="0.63" stop-color="#84E2DA"/>
<stop offset="0.75" stop-color="#7DD7DE"/>
<stop offset="0.84" stop-color="#72C6E5"/>
<stop offset="0.92" stop-color="#64B0EE"/>
<stop offset="0.99" stop-color="#5395F9"/>
<stop offset="1" stop-color="#5193FA"/>
</linearGradient>
<linearGradient id="paint2_linear_1_749" x1="177985" y1="18305.2" x2="177985" y2="16258.5" gradientUnits="userSpaceOnUse">
<stop stop-color="#8AEBD6"/>
<stop offset="0.46" stop-color="#89E9D7"/>
<stop offset="0.63" stop-color="#84E2DA"/>
<stop offset="0.75" stop-color="#7DD7DE"/>
<stop offset="0.84" stop-color="#72C6E5"/>
<stop offset="0.92" stop-color="#64B0EE"/>
<stop offset="0.99" stop-color="#5395F9"/>
<stop offset="1" stop-color="#5193FA"/>
</linearGradient>
<linearGradient id="paint3_linear_1_749" x1="260.775" y1="337.91" x2="260.775" y2="180.924" gradientUnits="userSpaceOnUse">
<stop stop-color="#51ADC6"/>
<stop offset="0.01" stop-color="#55AFC4"/>
<stop offset="0.07" stop-color="#74BFB5"/>
<stop offset="0.13" stop-color="#8FCDA7"/>
<stop offset="0.21" stop-color="#A5D89D"/>
<stop offset="0.3" stop-color="#B6E194"/>
<stop offset="0.41" stop-color="#C1E78E"/>
<stop offset="0.57" stop-color="#C8EA8B"/>
<stop offset="1" stop-color="#CAEB8A"/>
</linearGradient>
<linearGradient id="paint4_linear_1_749" x1="105.575" y1="277.864" x2="549.062" y2="277.864" gradientUnits="userSpaceOnUse">
<stop stop-color="#CAEB8A"/>
<stop offset="0.43" stop-color="#C8EA8B"/>
<stop offset="0.59" stop-color="#C1E78E"/>
<stop offset="0.7" stop-color="#B6E194"/>
<stop offset="0.79" stop-color="#A5D89D"/>
<stop offset="0.87" stop-color="#8FCDA7"/>
<stop offset="0.93" stop-color="#74BFB5"/>
<stop offset="0.99" stop-color="#55AFC4"/>
<stop offset="1" stop-color="#51ADC6"/>
</linearGradient>
<linearGradient id="paint5_linear_1_749" x1="233.969" y1="228.388" x2="507.739" y2="228.388" gradientUnits="userSpaceOnUse">
<stop stop-color="#F9E6D9"/>
<stop offset="0.12" stop-color="#FCF1EA"/>
<stop offset="0.27" stop-color="#FEF9F6"/>
<stop offset="0.48" stop-color="#FFFEFD"/>
<stop offset="1" stop-color="white"/>
</linearGradient>
<linearGradient id="paint6_linear_1_749" x1="514.641" y1="101.209" x2="226.131" y2="101.209" gradientUnits="userSpaceOnUse">
<stop stop-color="#7B6ED6"/>
<stop offset="0.48" stop-color="#7A70D7"/>
<stop offset="0.65" stop-color="#7677DA"/>
<stop offset="0.77" stop-color="#7082E0"/>
<stop offset="0.87" stop-color="#6693E8"/>
<stop offset="0.95" stop-color="#5AA9F2"/>
<stop offset="1" stop-color="#51B9FA"/>
</linearGradient>
<linearGradient id="paint7_linear_1_749" x1="474.289" y1="211.561" x2="471.941" y2="286.461" gradientUnits="userSpaceOnUse">
<stop stop-color="#C356D6"/>
<stop offset="0.44" stop-color="#C158D7"/>
<stop offset="0.6" stop-color="#BA5ED9"/>
<stop offset="0.71" stop-color="#AF68DC"/>
<stop offset="0.8" stop-color="#9E76E2"/>
<stop offset="0.88" stop-color="#888AE9"/>
<stop offset="0.94" stop-color="#6DA1F1"/>
<stop offset="1" stop-color="#51B9FA"/>
</linearGradient>
<linearGradient id="paint8_linear_1_749" x1="22255.7" y1="6113.6" x2="11565.3" y2="6113.6" gradientUnits="userSpaceOnUse">
<stop stop-color="#7B6ED6"/>
<stop offset="0.48" stop-color="#7A70D7"/>
<stop offset="0.65" stop-color="#7677DA"/>
<stop offset="0.77" stop-color="#7082E0"/>
<stop offset="0.87" stop-color="#6693E8"/>
<stop offset="0.95" stop-color="#5AA9F2"/>
<stop offset="1" stop-color="#51B9FA"/>
</linearGradient>
<linearGradient id="paint9_linear_1_749" x1="22274.7" y1="8233.19" x2="11574.6" y2="8233.19" gradientUnits="userSpaceOnUse">
<stop stop-color="#7B6ED6"/>
<stop offset="0.48" stop-color="#7A70D7"/>
<stop offset="0.65" stop-color="#7677DA"/>
<stop offset="0.77" stop-color="#7082E0"/>
<stop offset="0.87" stop-color="#6693E8"/>
<stop offset="0.95" stop-color="#5AA9F2"/>
<stop offset="1" stop-color="#51B9FA"/>
</linearGradient>
<linearGradient id="paint10_linear_1_749" x1="22207.1" y1="10336.7" x2="11516.6" y2="10336.7" gradientUnits="userSpaceOnUse">
<stop stop-color="#7B6ED6"/>
<stop offset="0.48" stop-color="#7A70D7"/>
<stop offset="0.65" stop-color="#7677DA"/>
<stop offset="0.77" stop-color="#7082E0"/>
<stop offset="0.87" stop-color="#6693E8"/>
<stop offset="0.95" stop-color="#5AA9F2"/>
<stop offset="1" stop-color="#51B9FA"/>
</linearGradient>
<linearGradient id="paint11_linear_1_749" x1="22206.1" y1="6113.6" x2="11515.6" y2="6113.6" gradientUnits="userSpaceOnUse">
<stop stop-color="#7B6ED6"/>
<stop offset="0.48" stop-color="#7A70D7"/>
<stop offset="0.65" stop-color="#7677DA"/>
<stop offset="0.77" stop-color="#7082E0"/>
<stop offset="0.87" stop-color="#6693E8"/>
<stop offset="0.95" stop-color="#5AA9F2"/>
<stop offset="1" stop-color="#51B9FA"/>
</linearGradient>
<linearGradient id="paint12_linear_1_749" x1="22205.6" y1="8225.14" x2="11515.1" y2="8225.14" gradientUnits="userSpaceOnUse">
<stop stop-color="#7B6ED6"/>
<stop offset="0.48" stop-color="#7A70D7"/>
<stop offset="0.65" stop-color="#7677DA"/>
<stop offset="0.77" stop-color="#7082E0"/>
<stop offset="0.87" stop-color="#6693E8"/>
<stop offset="0.95" stop-color="#5AA9F2"/>
<stop offset="1" stop-color="#51B9FA"/>
</linearGradient>
<linearGradient id="paint13_linear_1_749" x1="22156.4" y1="10314" x2="11466" y2="10314" gradientUnits="userSpaceOnUse">
<stop stop-color="#7B6ED6"/>
<stop offset="0.48" stop-color="#7A70D7"/>
<stop offset="0.65" stop-color="#7677DA"/>
<stop offset="0.77" stop-color="#7082E0"/>
<stop offset="0.87" stop-color="#6693E8"/>
<stop offset="0.95" stop-color="#5AA9F2"/>
<stop offset="1" stop-color="#51B9FA"/>
</linearGradient>
<linearGradient id="paint14_linear_1_749" x1="22155.9" y1="12448.6" x2="11465.4" y2="12448.6" gradientUnits="userSpaceOnUse">
<stop stop-color="#7B6ED6"/>
<stop offset="0.48" stop-color="#7A70D7"/>
<stop offset="0.65" stop-color="#7677DA"/>
<stop offset="0.77" stop-color="#7082E0"/>
<stop offset="0.87" stop-color="#6693E8"/>
<stop offset="0.95" stop-color="#5AA9F2"/>
<stop offset="1" stop-color="#51B9FA"/>
</linearGradient>
<linearGradient id="paint15_linear_1_749" x1="22155.4" y1="6113.6" x2="11465" y2="6113.6" gradientUnits="userSpaceOnUse">
<stop stop-color="#7B6ED6"/>
<stop offset="0.48" stop-color="#7A70D7"/>
<stop offset="0.65" stop-color="#7677DA"/>
<stop offset="0.77" stop-color="#7082E0"/>
<stop offset="0.87" stop-color="#6693E8"/>
<stop offset="0.95" stop-color="#5AA9F2"/>
<stop offset="1" stop-color="#51B9FA"/>
</linearGradient>
<linearGradient id="paint16_linear_1_749" x1="22145.2" y1="8233.16" x2="11459.5" y2="8233.16" gradientUnits="userSpaceOnUse">
<stop stop-color="#7B6ED6"/>
<stop offset="0.48" stop-color="#7A70D7"/>
<stop offset="0.65" stop-color="#7677DA"/>
<stop offset="0.77" stop-color="#7082E0"/>
<stop offset="0.87" stop-color="#6693E8"/>
<stop offset="0.95" stop-color="#5AA9F2"/>
<stop offset="1" stop-color="#51B9FA"/>
</linearGradient>
<linearGradient id="paint17_linear_1_749" x1="22103.6" y1="10314" x2="11413.2" y2="10314" gradientUnits="userSpaceOnUse">
<stop stop-color="#7B6ED6"/>
<stop offset="0.48" stop-color="#7A70D7"/>
<stop offset="0.65" stop-color="#7677DA"/>
<stop offset="0.77" stop-color="#7082E0"/>
<stop offset="0.87" stop-color="#6693E8"/>
<stop offset="0.95" stop-color="#5AA9F2"/>
<stop offset="1" stop-color="#51B9FA"/>
</linearGradient>
<linearGradient id="paint18_linear_1_749" x1="22103.1" y1="12448.6" x2="11412.6" y2="12448.6" gradientUnits="userSpaceOnUse">
<stop stop-color="#7B6ED6"/>
<stop offset="0.48" stop-color="#7A70D7"/>
<stop offset="0.65" stop-color="#7677DA"/>
<stop offset="0.77" stop-color="#7082E0"/>
<stop offset="0.87" stop-color="#6693E8"/>
<stop offset="0.95" stop-color="#5AA9F2"/>
<stop offset="1" stop-color="#51B9FA"/>
</linearGradient>
<linearGradient id="paint19_linear_1_749" x1="22102.7" y1="6113.6" x2="11412.2" y2="6113.6" gradientUnits="userSpaceOnUse">
<stop stop-color="#7B6ED6"/>
<stop offset="0.48" stop-color="#7A70D7"/>
<stop offset="0.65" stop-color="#7677DA"/>
<stop offset="0.77" stop-color="#7082E0"/>
<stop offset="0.87" stop-color="#6693E8"/>
<stop offset="0.95" stop-color="#5AA9F2"/>
<stop offset="1" stop-color="#51B9FA"/>
</linearGradient>
<linearGradient id="paint20_linear_1_749" x1="22102.1" y1="8233.16" x2="11411.6" y2="8233.16" gradientUnits="userSpaceOnUse">
<stop stop-color="#7B6ED6"/>
<stop offset="0.48" stop-color="#7A70D7"/>
<stop offset="0.65" stop-color="#7677DA"/>
<stop offset="0.77" stop-color="#7082E0"/>
<stop offset="0.87" stop-color="#6693E8"/>
<stop offset="0.95" stop-color="#5AA9F2"/>
<stop offset="1" stop-color="#51B9FA"/>
</linearGradient>
<linearGradient id="paint21_linear_1_749" x1="22052.9" y1="10336.7" x2="11362.5" y2="10336.7" gradientUnits="userSpaceOnUse">
<stop stop-color="#7B6ED6"/>
<stop offset="0.48" stop-color="#7A70D7"/>
<stop offset="0.65" stop-color="#7677DA"/>
<stop offset="0.77" stop-color="#7082E0"/>
<stop offset="0.87" stop-color="#6693E8"/>
<stop offset="0.95" stop-color="#5AA9F2"/>
<stop offset="1" stop-color="#51B9FA"/>
</linearGradient>
<linearGradient id="paint22_linear_1_749" x1="22052.4" y1="12448.6" x2="11361.9" y2="12448.6" gradientUnits="userSpaceOnUse">
<stop stop-color="#7B6ED6"/>
<stop offset="0.48" stop-color="#7A70D7"/>
<stop offset="0.65" stop-color="#7677DA"/>
<stop offset="0.77" stop-color="#7082E0"/>
<stop offset="0.87" stop-color="#6693E8"/>
<stop offset="0.95" stop-color="#5AA9F2"/>
<stop offset="1" stop-color="#51B9FA"/>
</linearGradient>
<linearGradient id="paint23_linear_1_749" x1="22051.9" y1="6112.11" x2="11361.5" y2="6112.11" gradientUnits="userSpaceOnUse">
<stop stop-color="#7B6ED6"/>
<stop offset="0.48" stop-color="#7A70D7"/>
<stop offset="0.65" stop-color="#7677DA"/>
<stop offset="0.77" stop-color="#7082E0"/>
<stop offset="0.87" stop-color="#6693E8"/>
<stop offset="0.95" stop-color="#5AA9F2"/>
<stop offset="1" stop-color="#51B9FA"/>
</linearGradient>
<linearGradient id="paint24_linear_1_749" x1="22051.4" y1="8225.14" x2="11361" y2="8225.14" gradientUnits="userSpaceOnUse">
<stop stop-color="#7B6ED6"/>
<stop offset="0.48" stop-color="#7A70D7"/>
<stop offset="0.65" stop-color="#7677DA"/>
<stop offset="0.77" stop-color="#7082E0"/>
<stop offset="0.87" stop-color="#6693E8"/>
<stop offset="0.95" stop-color="#5AA9F2"/>
<stop offset="1" stop-color="#51B9FA"/>
</linearGradient>
<linearGradient id="paint25_linear_1_749" x1="41317.5" y1="30487.3" x2="51925.2" y2="65438.2" gradientUnits="userSpaceOnUse">
<stop stop-color="#7B6ED6"/>
<stop offset="0.48" stop-color="#7A70D7"/>
<stop offset="0.65" stop-color="#7677DA"/>
<stop offset="0.77" stop-color="#7082E0"/>
<stop offset="0.87" stop-color="#6693E8"/>
<stop offset="0.95" stop-color="#5AA9F2"/>
<stop offset="1" stop-color="#51B9FA"/>
</linearGradient>
<linearGradient id="paint26_linear_1_749" x1="26890.7" y1="44044.9" x2="56400.1" y2="44044.9" gradientUnits="userSpaceOnUse">
<stop stop-color="#F9E6D9"/>
<stop offset="0.12" stop-color="#FCF1EA"/>
<stop offset="0.27" stop-color="#FEF9F6"/>
<stop offset="0.48" stop-color="#FFFEFD"/>
<stop offset="1" stop-color="white"/>
</linearGradient>
<linearGradient id="paint27_linear_1_749" x1="11016.2" y1="3679.85" x2="9678.05" y2="3622.62" gradientUnits="userSpaceOnUse">
<stop stop-color="#51ADC6"/>
<stop offset="0.01" stop-color="#55AFC4"/>
<stop offset="0.07" stop-color="#74BFB5"/>
<stop offset="0.13" stop-color="#8FCDA7"/>
<stop offset="0.21" stop-color="#A5D89D"/>
<stop offset="0.3" stop-color="#B6E194"/>
<stop offset="0.41" stop-color="#C1E78E"/>
<stop offset="0.57" stop-color="#C8EA8B"/>
<stop offset="1" stop-color="#CAEB8A"/>
</linearGradient>
<linearGradient id="paint28_linear_1_749" x1="24829.8" y1="6677.96" x2="21724.1" y2="6472.32" gradientUnits="userSpaceOnUse">
<stop stop-color="#51ADC6"/>
<stop offset="0.01" stop-color="#55AFC4"/>
<stop offset="0.07" stop-color="#74BFB5"/>
<stop offset="0.13" stop-color="#8FCDA7"/>
<stop offset="0.21" stop-color="#A5D89D"/>
<stop offset="0.3" stop-color="#B6E194"/>
<stop offset="0.41" stop-color="#C1E78E"/>
<stop offset="0.57" stop-color="#C8EA8B"/>
<stop offset="1" stop-color="#CAEB8A"/>
</linearGradient>
<linearGradient id="paint29_linear_1_749" x1="25575.4" y1="11484.2" x2="22464.1" y2="11491.3" gradientUnits="userSpaceOnUse">
<stop stop-color="#51ADC6"/>
<stop offset="0.01" stop-color="#55AFC4"/>
<stop offset="0.07" stop-color="#74BFB5"/>
<stop offset="0.13" stop-color="#8FCDA7"/>
<stop offset="0.21" stop-color="#A5D89D"/>
<stop offset="0.3" stop-color="#B6E194"/>
<stop offset="0.41" stop-color="#C1E78E"/>
<stop offset="0.57" stop-color="#C8EA8B"/>
<stop offset="1" stop-color="#CAEB8A"/>
</linearGradient>
<linearGradient id="paint30_linear_1_749" x1="25614.8" y1="9461.72" x2="21922.8" y2="10094.2" gradientUnits="userSpaceOnUse">
<stop stop-color="#51ADC6"/>
<stop offset="0.01" stop-color="#55AFC4"/>
<stop offset="0.07" stop-color="#74BFB5"/>
<stop offset="0.13" stop-color="#8FCDA7"/>
<stop offset="0.21" stop-color="#A5D89D"/>
<stop offset="0.3" stop-color="#B6E194"/>
<stop offset="0.41" stop-color="#C1E78E"/>
<stop offset="0.57" stop-color="#C8EA8B"/>
<stop offset="1" stop-color="#CAEB8A"/>
</linearGradient>
<linearGradient id="paint31_linear_1_749" x1="475.43" y1="195.63" x2="489.207" y2="195.63" gradientUnits="userSpaceOnUse">
<stop stop-color="#F7BE86"/>
<stop offset="0.33" stop-color="#F7BC83"/>
<stop offset="0.54" stop-color="#F7B67B"/>
<stop offset="0.73" stop-color="#F7AC6C"/>
<stop offset="0.89" stop-color="#F79E57"/>
<stop offset="1" stop-color="#F79244"/>
</linearGradient>
<linearGradient id="paint32_linear_1_749" x1="12299.1" y1="3045.7" x2="12820.4" y2="3045.7" gradientUnits="userSpaceOnUse">
<stop stop-color="#F7BE86"/>
<stop offset="0.33" stop-color="#F7BC83"/>
<stop offset="0.54" stop-color="#F7B67B"/>
<stop offset="0.73" stop-color="#F7AC6C"/>
<stop offset="0.89" stop-color="#F79E57"/>
<stop offset="1" stop-color="#F79244"/>
</linearGradient>
<linearGradient id="paint33_linear_1_749" x1="17094.1" y1="3256.1" x2="17986.7" y2="3256.1" gradientUnits="userSpaceOnUse">
<stop stop-color="#7B6ED6"/>
<stop offset="0.48" stop-color="#7A70D7"/>
<stop offset="0.65" stop-color="#7677DA"/>
<stop offset="0.77" stop-color="#7082E0"/>
<stop offset="0.87" stop-color="#6693E8"/>
<stop offset="0.95" stop-color="#5AA9F2"/>
<stop offset="1" stop-color="#51B9FA"/>
</linearGradient>
<linearGradient id="paint34_linear_1_749" x1="539.151" y1="162.346" x2="529.243" y2="155.802" gradientUnits="userSpaceOnUse">
<stop stop-color="#3C0887"/>
<stop offset="0.32" stop-color="#3F0987"/>
<stop offset="0.53" stop-color="#470E87"/>
<stop offset="0.71" stop-color="#561588"/>
<stop offset="0.87" stop-color="#6B1F89"/>
<stop offset="1" stop-color="#822A8A"/>
</linearGradient>
<linearGradient id="paint35_linear_1_749" x1="19267.9" y1="7573.33" x2="18212.2" y2="6887.98" gradientUnits="userSpaceOnUse">
<stop stop-color="#3C0887"/>
<stop offset="0.32" stop-color="#3F0987"/>
<stop offset="0.53" stop-color="#470E87"/>
<stop offset="0.71" stop-color="#561588"/>
<stop offset="0.87" stop-color="#6B1F89"/>
<stop offset="1" stop-color="#822A8A"/>
</linearGradient>
<linearGradient id="paint36_linear_1_749" x1="23702.9" y1="11558.7" x2="25518" y2="12317.4" gradientUnits="userSpaceOnUse">
<stop stop-color="#3C0887"/>
<stop offset="0.32" stop-color="#3F0987"/>
<stop offset="0.53" stop-color="#470E87"/>
<stop offset="0.71" stop-color="#561588"/>
<stop offset="0.87" stop-color="#6B1F89"/>
<stop offset="1" stop-color="#822A8A"/>
</linearGradient>
<linearGradient id="paint37_linear_1_749" x1="34738.6" y1="22382.7" x2="33927.6" y2="21992.6" gradientUnits="userSpaceOnUse">
<stop stop-color="#3C0887"/>
<stop offset="0.32" stop-color="#3F0987"/>
<stop offset="0.53" stop-color="#470E87"/>
<stop offset="0.71" stop-color="#561588"/>
<stop offset="0.87" stop-color="#6B1F89"/>
<stop offset="1" stop-color="#822A8A"/>
</linearGradient>
<linearGradient id="paint38_linear_1_749" x1="32344.4" y1="21398.1" x2="30252.8" y2="20153.2" gradientUnits="userSpaceOnUse">
<stop stop-color="#3C0887"/>
<stop offset="0.32" stop-color="#3F0987"/>
<stop offset="0.53" stop-color="#470E87"/>
<stop offset="0.71" stop-color="#561588"/>
<stop offset="0.87" stop-color="#6B1F89"/>
<stop offset="1" stop-color="#822A8A"/>
</linearGradient>
<linearGradient id="paint39_linear_1_749" x1="3096.81" y1="849.078" x2="3121.18" y2="849.078" gradientUnits="userSpaceOnUse">
<stop stop-color="#3C0887"/>
<stop offset="0.32" stop-color="#3F0987"/>
<stop offset="0.53" stop-color="#470E87"/>
<stop offset="0.71" stop-color="#561588"/>
<stop offset="0.87" stop-color="#6B1F89"/>
<stop offset="1" stop-color="#822A8A"/>
</linearGradient>
<linearGradient id="paint40_linear_1_749" x1="22204" y1="14413" x2="23957.6" y2="15306.4" gradientUnits="userSpaceOnUse">
<stop stop-color="#3C0887"/>
<stop offset="0.32" stop-color="#3F0987"/>
<stop offset="0.53" stop-color="#470E87"/>
<stop offset="0.71" stop-color="#561588"/>
<stop offset="0.87" stop-color="#6B1F89"/>
<stop offset="1" stop-color="#822A8A"/>
</linearGradient>
<linearGradient id="paint41_linear_1_749" x1="11536.4" y1="7964.05" x2="11955.9" y2="8519.79" gradientUnits="userSpaceOnUse">
<stop stop-color="#F7BE86"/>
<stop offset="0.33" stop-color="#F7BC83"/>
<stop offset="0.54" stop-color="#F7B67B"/>
<stop offset="0.73" stop-color="#F7AC6C"/>
<stop offset="0.89" stop-color="#F79E57"/>
<stop offset="1" stop-color="#F79244"/>
</linearGradient>
<linearGradient id="paint42_linear_1_749" x1="15170.2" y1="5017.03" x2="15976.1" y2="5017.03" gradientUnits="userSpaceOnUse">
<stop stop-color="#F7BE86"/>
<stop offset="0.33" stop-color="#F7BC83"/>
<stop offset="0.54" stop-color="#F7B67B"/>
<stop offset="0.73" stop-color="#F7AC6C"/>
<stop offset="0.89" stop-color="#F79E57"/>
<stop offset="1" stop-color="#F79244"/>
</linearGradient>
<linearGradient id="paint43_linear_1_749" x1="2804.59" y1="134.542" x2="2823.56" y2="134.542" gradientUnits="userSpaceOnUse">
<stop stop-color="#F7BE86"/>
<stop offset="0.33" stop-color="#F7BC83"/>
<stop offset="0.54" stop-color="#F7B67B"/>
<stop offset="0.73" stop-color="#F7AC6C"/>
<stop offset="0.89" stop-color="#F79E57"/>
<stop offset="1" stop-color="#F79244"/>
</linearGradient>
</defs>
</svg>
