<svg width="485" height="364" viewBox="0 0 485 364" fill="none" xmlns="http://www.w3.org/2000/svg">
<g clip-path="url(#clip0_1_994)">
<path d="M485 0H0V364H485V0Z" fill="white"/>
<path d="M69.8048 327.774C61.9773 320.874 48.7974 307.357 40.5316 286.348C39.1996 282.964 24.1629 242.924 42.9566 201.588C63.6748 156.017 110.612 141.635 129.91 135.721C193.669 116.185 249.255 141.665 265.017 149.588C277.957 144.333 290.467 138.074 302.432 130.868C333.392 112.219 336.466 101.77 353.703 97.4143C380.501 90.6439 416.072 105.041 421.949 125.148C427.161 142.982 411.903 175.175 409.824 179.574C408.282 182.702 407.174 186.026 406.533 189.454C406.277 190.841 403.876 204.942 411.383 216.321C416.188 223.601 422.343 225.667 428.532 229.321C444.968 239.028 460.109 259.042 461.789 278.201C464.162 305.241 439.304 325.828 435.807 328.641L69.8048 327.774Z" fill="#EAF0FF"/>
<path d="M248.217 344.413C367.413 344.413 464.042 337.041 464.042 327.947C464.042 318.852 367.413 311.48 248.217 311.48C129.02 311.48 32.3916 318.852 32.3916 327.947C32.3916 337.041 129.02 344.413 248.217 344.413Z" fill="#BFD1FF"/>
<path d="M105.527 146.416C103.128 152.544 108.621 182.123 112.502 194.91C123.242 230.296 148.602 261.409 150.838 262.635C163.41 269.528 175.661 271.211 184.106 271.444C186.66 265.623 191.013 253.478 188.994 238.385C186.035 216.277 171.445 203.089 165.712 197.909C147.232 181.206 113.318 147.023 105.527 146.416Z" fill="#95B3FF"/>
<path d="M68.0181 215.557C76.8208 212.173 92.3547 207.573 111.412 209.457C161.893 214.446 187.432 260.015 189.168 263.236C198.927 281.339 201.22 298.942 201.475 311.055C193.11 314.665 175.666 320.796 154.057 317.754C122.406 313.299 103.652 292.238 96.278 283.965C72.5199 257.288 68.8149 226.742 68.0181 215.557Z" fill="#95B3FF"/>
<path d="M198.799 312.106C198.664 312.064 198.539 311.994 198.434 311.9L138.242 257.879C131.468 251.801 123.891 246.684 115.724 242.672L92.9291 231.47C92.6965 231.355 92.5189 231.152 92.4356 230.906C92.3523 230.66 92.37 230.391 92.4848 230.158C92.5997 229.925 92.8023 229.748 93.048 229.664C93.2937 229.581 93.5625 229.599 93.7952 229.714L116.59 240.916C124.916 245.008 132.641 250.226 139.546 256.424L199.738 310.44C199.904 310.589 200.014 310.79 200.05 311.01C200.086 311.229 200.046 311.455 199.936 311.649C199.827 311.843 199.654 311.993 199.448 312.076C199.241 312.158 199.012 312.168 198.799 312.102V312.106Z" fill="white"/>
<path d="M101.159 255.147C100.942 255.078 100.757 254.936 100.634 254.746C100.51 254.555 100.457 254.327 100.484 254.102C100.51 253.876 100.614 253.667 100.777 253.51C100.941 253.353 101.154 253.257 101.38 253.24L131.244 251.217L117.467 224.059C117.407 223.945 117.37 223.819 117.359 223.69C117.347 223.561 117.362 223.431 117.401 223.308C117.441 223.184 117.504 223.07 117.588 222.971C117.672 222.873 117.775 222.792 117.89 222.733C118.006 222.675 118.131 222.64 118.261 222.63C118.39 222.621 118.519 222.637 118.642 222.678C118.765 222.719 118.878 222.785 118.976 222.87C119.073 222.955 119.152 223.059 119.209 223.175L133.655 251.651C133.729 251.795 133.765 251.955 133.762 252.116C133.758 252.278 133.715 252.436 133.635 252.577C133.555 252.718 133.441 252.836 133.304 252.922C133.167 253.008 133.011 253.058 132.85 253.069L101.505 255.187C101.388 255.194 101.271 255.18 101.159 255.147Z" fill="white"/>
<path d="M108.369 281.567C108.15 281.496 107.964 281.349 107.842 281.153C107.721 280.957 107.672 280.725 107.705 280.497C107.739 280.269 107.851 280.06 108.023 279.907C108.196 279.754 108.416 279.667 108.646 279.66L163.193 279.094L152.48 231.56C152.448 231.434 152.442 231.302 152.461 231.173C152.481 231.044 152.526 230.92 152.594 230.809C152.663 230.698 152.753 230.601 152.859 230.525C152.965 230.449 153.085 230.395 153.212 230.367C153.339 230.338 153.471 230.335 153.6 230.358C153.728 230.381 153.85 230.43 153.96 230.501C154.069 230.572 154.163 230.665 154.236 230.773C154.309 230.881 154.36 231.002 154.385 231.131L165.365 279.837C165.397 279.979 165.397 280.127 165.364 280.269C165.332 280.41 165.268 280.543 165.178 280.657C165.088 280.771 164.973 280.864 164.842 280.928C164.712 280.992 164.569 281.026 164.423 281.028L108.667 281.609C108.566 281.611 108.466 281.597 108.369 281.567Z" fill="white"/>
<path d="M112.734 211.271C117.463 209.711 125.772 207.668 135.771 209.136C162.273 213.027 174.62 237.705 175.455 239.447C180.152 249.24 180.925 258.581 180.757 264.981C176.253 266.677 166.9 269.477 155.575 267.334C138.986 264.195 129.615 252.615 125.933 248.067C114.071 233.401 112.876 217.187 112.734 211.271Z" fill="#FFE588"/>
<path d="M179.328 265.468C179.258 265.442 179.194 265.402 179.141 265.35L148.73 235.349C145.309 231.974 141.44 229.085 137.232 226.764L125.485 220.287C125.417 220.259 125.356 220.217 125.306 220.164C125.255 220.111 125.217 220.047 125.192 219.978C125.168 219.909 125.159 219.836 125.165 219.763C125.171 219.69 125.192 219.619 125.228 219.555C125.263 219.491 125.312 219.435 125.37 219.391C125.428 219.347 125.496 219.315 125.567 219.299C125.638 219.283 125.712 219.282 125.784 219.296C125.856 219.31 125.924 219.34 125.983 219.382L137.731 225.861C142.021 228.227 145.967 231.173 149.456 234.614L179.865 264.615C179.945 264.699 179.994 264.807 180.006 264.922C180.017 265.037 179.99 265.153 179.928 265.25C179.867 265.348 179.774 265.423 179.665 265.462C179.557 265.501 179.438 265.503 179.328 265.468Z" fill="white"/>
<path d="M129.232 232.983C129.122 232.939 129.031 232.859 128.973 232.756C128.914 232.653 128.893 232.533 128.912 232.417C128.931 232.3 128.989 232.193 129.077 232.114C129.165 232.035 129.277 231.988 129.395 231.981L145.202 231.659L138.608 216.988C138.571 216.925 138.547 216.855 138.539 216.782C138.531 216.709 138.538 216.635 138.56 216.566C138.582 216.496 138.619 216.431 138.667 216.377C138.716 216.322 138.776 216.278 138.843 216.249C138.909 216.219 138.982 216.203 139.055 216.203C139.128 216.203 139.2 216.218 139.267 216.248C139.334 216.278 139.394 216.322 139.442 216.376C139.491 216.431 139.528 216.495 139.55 216.565L146.463 231.948C146.497 232.026 146.512 232.111 146.505 232.196C146.499 232.281 146.472 232.363 146.426 232.435C146.381 232.506 146.318 232.566 146.244 232.608C146.17 232.65 146.087 232.674 146.002 232.676L129.415 233.023C129.352 233.02 129.29 233.007 129.232 232.983Z" fill="white"/>
<path d="M132.38 247.102C132.269 247.057 132.176 246.974 132.119 246.868C132.062 246.762 132.043 246.64 132.066 246.521C132.089 246.403 132.152 246.296 132.245 246.22C132.337 246.143 132.454 246.101 132.574 246.1L161.366 247.161L156.897 221.816C156.876 221.746 156.87 221.672 156.88 221.598C156.889 221.525 156.914 221.455 156.953 221.393C156.992 221.33 157.044 221.276 157.105 221.235C157.166 221.194 157.235 221.166 157.308 221.154C157.38 221.142 157.455 221.145 157.526 221.164C157.597 221.182 157.664 221.216 157.721 221.262C157.778 221.308 157.825 221.366 157.858 221.432C157.892 221.497 157.911 221.569 157.914 221.643L162.494 247.615C162.507 247.691 162.502 247.769 162.482 247.843C162.461 247.917 162.424 247.986 162.373 248.044C162.323 248.102 162.26 248.148 162.189 248.179C162.119 248.21 162.042 248.224 161.965 248.222L132.536 247.137C132.483 247.134 132.43 247.122 132.38 247.102Z" fill="white"/>
<path d="M387.637 189.661C388.638 196.385 389.443 208.034 385.141 221.151C373.747 255.895 337.732 266.748 335.198 267.465C320.951 271.504 308.227 270.369 299.67 268.653C298.44 262.203 296.857 248.969 302.372 234.239C310.447 212.661 328.181 202.751 335.148 198.858C357.607 186.309 379.652 188.474 387.637 189.661Z" fill="#95B3FF"/>
<path d="M432.184 229.917C424.655 225.618 411.175 219.274 393.592 218.335C347.017 215.842 315.916 264.644 313.889 267.329C302.504 282.425 297.974 298.099 296.059 309.078C303.16 313.524 318.162 321.523 338.224 321.768C367.612 322.123 396.005 294.508 403.853 288.011C429.155 267.072 429.905 239.972 432.184 229.917Z" fill="#95B3FF"/>
<path d="M298.342 310.405C298.47 310.386 298.593 310.34 298.702 310.268L360.919 269.547C367.92 264.966 375.516 261.37 383.496 258.859L405.771 251.85C405.884 251.814 405.988 251.757 406.078 251.681C406.169 251.606 406.243 251.513 406.298 251.408C406.352 251.304 406.386 251.189 406.396 251.072C406.407 250.954 406.394 250.836 406.358 250.723C406.323 250.611 406.266 250.506 406.19 250.416C406.114 250.325 406.022 250.251 405.917 250.196C405.812 250.141 405.698 250.108 405.581 250.098C405.463 250.087 405.345 250.1 405.232 250.135L382.957 257.143C374.822 259.704 367.076 263.372 359.939 268.043L297.722 308.764C297.551 308.876 297.424 309.044 297.361 309.238C297.298 309.433 297.303 309.643 297.376 309.835C297.449 310.026 297.584 310.187 297.76 310.29C297.937 310.394 298.143 310.435 298.345 310.405H298.342Z" fill="white"/>
<path d="M395.008 272.225C395.216 272.194 395.406 272.091 395.546 271.935C395.686 271.778 395.767 271.577 395.775 271.367C395.782 271.157 395.716 270.951 395.588 270.785C395.459 270.619 395.277 270.502 395.072 270.457L368.21 264.463L384.508 241.697C384.587 241.602 384.647 241.492 384.681 241.372C384.716 241.253 384.726 241.128 384.711 241.005C384.695 240.882 384.654 240.763 384.59 240.657C384.526 240.55 384.441 240.458 384.34 240.386C384.239 240.314 384.124 240.264 384.003 240.239C383.881 240.213 383.756 240.213 383.634 240.239C383.513 240.264 383.398 240.314 383.297 240.386C383.196 240.459 383.111 240.551 383.047 240.657L365.958 264.527C365.871 264.648 365.816 264.788 365.797 264.935C365.778 265.083 365.796 265.233 365.849 265.372C365.902 265.51 365.988 265.634 366.101 265.731C366.213 265.828 366.348 265.895 366.493 265.928L394.682 272.22C394.789 272.241 394.9 272.243 395.008 272.225Z" fill="white"/>
<path d="M384.781 295.236C384.992 295.203 385.185 295.097 385.325 294.935C385.465 294.774 385.543 294.567 385.545 294.353C385.547 294.139 385.472 293.931 385.334 293.768C385.197 293.604 385.006 293.494 384.795 293.459L335.295 285.35L351.64 243.639C351.683 243.53 351.704 243.412 351.701 243.294C351.699 243.176 351.674 243.06 351.626 242.952C351.579 242.844 351.511 242.746 351.426 242.664C351.341 242.583 351.241 242.518 351.131 242.475C351.021 242.432 350.904 242.411 350.786 242.414C350.669 242.416 350.552 242.442 350.444 242.489C350.336 242.536 350.239 242.604 350.157 242.689C350.075 242.774 350.011 242.874 349.968 242.984L333.217 285.73C333.168 285.855 333.149 285.989 333.159 286.122C333.169 286.256 333.209 286.385 333.275 286.501C333.341 286.617 333.433 286.717 333.542 286.794C333.652 286.87 333.777 286.921 333.909 286.943L384.505 295.23C384.596 295.247 384.689 295.248 384.781 295.236Z" fill="white"/>
<path d="M374.895 217.774C370.838 216.13 363.664 213.862 354.802 214.576C331.321 216.468 319.037 243.003 318.202 244.475C313.525 252.795 312.312 260.952 312.085 266.576C315.938 268.324 323.987 271.317 334.046 270.088C348.779 268.286 362.12 256.048 365.612 252.259C376.864 240.067 374.432 222.962 374.895 217.774Z" fill="#BFD1FF"/>
<path d="M313.316 267.088C313.38 267.07 313.439 267.038 313.489 266.994L341.896 242.417C345.092 239.651 348.652 237.338 352.478 235.545L363.155 230.535C363.264 230.484 363.349 230.392 363.39 230.279C363.431 230.165 363.425 230.04 363.374 229.931C363.323 229.822 363.231 229.738 363.118 229.696C363.005 229.655 362.88 229.661 362.771 229.712L352.092 234.721C348.191 236.552 344.561 238.91 341.302 241.729L312.895 266.308C312.817 266.375 312.764 266.468 312.745 266.57C312.727 266.672 312.743 266.777 312.793 266.868C312.842 266.959 312.921 267.03 313.016 267.07C313.112 267.11 313.218 267.117 313.318 267.088H313.316Z" fill="white"/>
<path d="M359.134 241.453C359.235 241.423 359.322 241.359 359.381 241.271C359.44 241.184 359.466 241.079 359.456 240.974C359.446 240.869 359.399 240.771 359.325 240.696C359.25 240.622 359.152 240.576 359.047 240.566L345.19 239.375L351.817 226.879C351.873 226.773 351.885 226.648 351.85 226.533C351.815 226.418 351.735 226.321 351.629 226.265C351.523 226.208 351.398 226.196 351.283 226.232C351.168 226.267 351.071 226.346 351.015 226.453L344.067 239.555C344.032 239.621 344.014 239.695 344.014 239.771C344.015 239.846 344.034 239.919 344.069 239.985C344.105 240.051 344.157 240.107 344.22 240.148C344.282 240.19 344.354 240.214 344.429 240.221L358.962 241.471C359.02 241.475 359.078 241.469 359.134 241.453Z" fill="white"/>
<path d="M355.561 253.669C355.665 253.639 355.756 253.573 355.816 253.482C355.876 253.392 355.901 253.282 355.887 253.175C355.874 253.067 355.822 252.967 355.741 252.895C355.661 252.822 355.557 252.78 355.448 252.778L330.126 252.055L335.496 230.073C335.524 229.956 335.505 229.832 335.443 229.729C335.381 229.626 335.28 229.552 335.163 229.523C335.046 229.495 334.923 229.513 334.82 229.576C334.717 229.638 334.643 229.739 334.614 229.856L329.104 252.389C329.089 252.455 329.088 252.524 329.102 252.59C329.115 252.656 329.143 252.718 329.184 252.772C329.225 252.825 329.277 252.868 329.337 252.898C329.397 252.928 329.463 252.944 329.53 252.946L355.414 253.686C355.463 253.688 355.513 253.682 355.561 253.669Z" fill="white"/>
<path d="M66.4794 56.6888L63.9505 61.0221C63.8167 61.2516 63.7407 61.5102 63.7289 61.7756C63.7172 62.041 63.77 62.3053 63.883 62.5457L66.0187 67.0888C66.1486 67.3655 66.1987 67.673 66.1632 67.9767C66.1277 68.2803 66.0081 68.568 65.8178 68.8072C65.6276 69.0465 65.3743 69.2277 65.0866 69.3305C64.7989 69.4333 64.4882 69.4535 64.1895 69.3889L59.2859 68.3212C59.0264 68.2649 58.7571 68.2726 58.5012 68.3436C58.2453 68.4145 58.0105 68.5466 57.817 68.7285L54.1587 72.1658C53.936 72.3754 53.6591 72.5185 53.3594 72.5788C53.0596 72.639 52.749 72.6141 52.4626 72.5067C52.1763 72.3994 51.9258 72.2139 51.7394 71.9714C51.553 71.7288 51.4382 71.4389 51.4081 71.1344L50.9075 66.1389C50.8806 65.8745 50.7899 65.6206 50.6433 65.399C50.4966 65.1774 50.2984 64.9947 50.0657 64.8667L45.6695 62.44C45.4015 62.2929 45.18 62.0736 45.0301 61.807C44.8802 61.5403 44.8079 61.237 44.8214 60.9314C44.8349 60.6258 44.9337 60.3301 45.1066 60.0778C45.2794 59.8254 45.5194 59.6266 45.7994 59.5037L50.3913 57.4827C50.6346 57.3755 50.8482 57.2108 51.0138 57.0028C51.1795 56.7948 51.2922 56.5496 51.3422 56.2884L52.2828 51.3571C52.3396 51.0565 52.4795 50.7779 52.6864 50.5527C52.8934 50.3276 53.1592 50.1649 53.4538 50.0832C53.7484 50.0015 54.06 50.0039 54.3532 50.0903C54.6465 50.1767 54.9097 50.3435 55.1131 50.5719L58.4544 54.3193C58.6309 54.518 58.8531 54.6706 59.1018 54.764C59.3505 54.8573 59.6182 54.8885 59.8817 54.8549L64.8599 54.2257C65.1646 54.1862 65.4742 54.2333 65.7534 54.3614C66.0327 54.4896 66.2703 54.6937 66.4392 54.9506C66.6081 55.2074 66.7014 55.5066 66.7085 55.8139C66.7156 56.1213 66.6362 56.4244 66.4794 56.6888Z" fill="#FFE588"/>
<path d="M454.353 92.2313L450.171 91.3109C449.95 91.2628 449.72 91.2692 449.502 91.3296C449.283 91.39 449.083 91.5025 448.917 91.6576L445.791 94.5817C445.6 94.7598 445.364 94.881 445.108 94.9317C444.852 94.9824 444.588 94.9606 444.344 94.8686C444.1 94.7767 443.886 94.6183 443.728 94.4114C443.569 94.2045 443.471 93.9573 443.445 93.6977L443.028 89.4337C443.006 89.2083 442.929 88.9917 442.805 88.8024C442.681 88.6131 442.512 88.4568 442.314 88.3469L438.568 86.2756C438.34 86.149 438.152 85.9612 438.025 85.7334C437.898 85.5056 437.837 85.2469 437.849 84.9864C437.861 84.7259 437.946 84.4739 438.093 84.2588C438.241 84.0438 438.445 83.8742 438.684 83.7692L442.607 82.0549C442.815 81.9641 442.997 81.8243 443.138 81.6473C443.28 81.4704 443.376 81.2617 443.419 81.0392L444.232 76.8341C444.28 76.5759 444.399 76.3363 444.577 76.1429C444.754 75.9496 444.983 75.8102 445.236 75.7409C445.489 75.6716 445.757 75.6751 446.008 75.7511C446.259 75.827 446.484 75.9723 446.657 76.1703L449.498 79.3735C449.647 79.5424 449.836 79.6725 450.047 79.7525C450.258 79.8325 450.486 79.8601 450.71 79.8328L454.957 79.3128C455.216 79.2809 455.478 79.322 455.715 79.4315C455.952 79.541 456.153 79.7146 456.296 79.9325C456.44 80.1505 456.519 80.4042 456.526 80.665C456.532 80.9258 456.466 81.1833 456.334 81.4084L454.167 85.0935C454.052 85.2886 453.986 85.5092 453.975 85.7359C453.965 85.9626 454.01 86.1883 454.107 86.3935L455.919 90.2744C456.029 90.5107 456.072 90.7732 456.041 91.0324C456.01 91.2915 455.907 91.5368 455.744 91.7405C455.581 91.9442 455.365 92.0981 455.119 92.1849C454.873 92.2716 454.607 92.2877 454.353 92.2313Z" fill="#FFE588"/>
<path d="M42.0048 155.688L36.2904 154.408C35.9878 154.341 35.6737 154.35 35.3752 154.434C35.0766 154.518 34.8026 154.675 34.5766 154.89L30.3038 158.955C30.0435 159.203 29.7204 159.371 29.371 159.442C29.0216 159.512 28.6597 159.482 28.3264 159.354C27.993 159.226 27.7013 159.006 27.4844 158.718C27.2674 158.431 27.1339 158.087 27.0987 157.726L26.5282 151.799C26.4978 151.486 26.3932 151.184 26.2233 150.921C26.0534 150.658 25.8234 150.441 25.553 150.288L20.4327 147.409C20.1213 147.233 19.8645 146.972 19.691 146.655C19.5175 146.339 19.4343 145.979 19.4508 145.617C19.4673 145.255 19.5827 144.904 19.7842 144.605C19.9858 144.306 20.2653 144.071 20.5914 143.925L25.953 141.542C26.2366 141.416 26.4858 141.221 26.6792 140.975C26.8725 140.729 27.0043 140.439 27.0632 140.13L28.1734 134.285C28.2387 133.925 28.4021 133.592 28.6449 133.324C28.8877 133.055 29.2 132.861 29.546 132.765C29.892 132.669 30.2577 132.673 30.6011 132.779C30.9445 132.885 31.2517 133.087 31.4874 133.362L35.3696 137.814C35.5745 138.049 35.8323 138.23 36.1209 138.341C36.4095 138.452 36.7203 138.491 37.0266 138.453L42.8309 137.73C43.1846 137.686 43.5433 137.743 43.8666 137.895C44.19 138.047 44.4651 138.289 44.6609 138.592C44.8566 138.895 44.9652 139.247 44.9744 139.61C44.9836 139.972 44.893 140.33 44.7128 140.643L41.7515 145.766C41.5935 146.037 41.5033 146.344 41.4888 146.659C41.4744 146.974 41.5361 147.288 41.6686 147.573L44.1447 152.967C44.296 153.296 44.3538 153.661 44.3116 154.021C44.2695 154.381 44.1292 154.722 43.9065 155.005C43.6837 155.289 43.3875 155.503 43.0514 155.623C42.7153 155.744 42.3528 155.766 42.0048 155.688Z" fill="#FFE588"/>
<path d="M196.76 36.4634L193.592 35.77C193.425 35.7328 193.25 35.737 193.085 35.7823C192.919 35.8276 192.767 35.9126 192.641 36.03L190.27 38.247C190.126 38.3816 189.946 38.4732 189.753 38.5114C189.559 38.5496 189.358 38.5329 189.174 38.4631C188.989 38.3934 188.827 38.2734 188.707 38.1167C188.587 37.96 188.513 37.7728 188.493 37.5762L188.178 34.3452C188.16 34.1742 188.102 34.0098 188.008 33.8661C187.913 33.7224 187.786 33.6037 187.636 33.5202L184.795 31.9498C184.619 31.8549 184.474 31.7125 184.377 31.5388C184.279 31.3651 184.232 31.1673 184.241 30.9681C184.25 30.7689 184.316 30.5764 184.43 30.4127C184.544 30.2491 184.701 30.121 184.885 30.0431L187.857 28.7431C188.015 28.674 188.153 28.5677 188.26 28.4334C188.368 28.299 188.441 28.1406 188.474 27.9718L189.089 24.7842C189.126 24.59 189.218 24.4103 189.352 24.2653C189.486 24.1203 189.659 24.0158 189.849 23.9635C190.04 23.9112 190.241 23.9133 190.431 23.9695C190.62 24.0257 190.79 24.1338 190.921 24.2815L193.074 26.7082C193.189 26.8366 193.332 26.9353 193.493 26.9957C193.654 27.0561 193.827 27.0764 193.998 27.0548L197.218 26.6562C197.413 26.6325 197.612 26.6641 197.791 26.7474C197.97 26.8306 198.122 26.9622 198.23 27.1273C198.338 27.2924 198.398 27.4844 198.402 27.6817C198.407 27.879 198.357 28.0737 198.257 28.2439L196.615 31.0432C196.528 31.1917 196.479 31.359 196.471 31.5308C196.463 31.7026 196.497 31.8737 196.57 32.0295L197.943 34.9762C198.028 35.1551 198.061 35.3541 198.038 35.5507C198.015 35.7473 197.938 35.9335 197.815 36.0884C197.691 36.2432 197.527 36.3604 197.341 36.4267C197.155 36.493 196.954 36.5057 196.76 36.4634Z" fill="#FFE588"/>
<path d="M288.404 38.3518L287.096 38.0641C287.027 38.0494 286.955 38.0517 286.887 38.0707C286.819 38.0897 286.756 38.1249 286.705 38.1733L285.728 39.0867C285.668 39.1425 285.594 39.1804 285.514 39.1962C285.434 39.2121 285.351 39.2052 285.275 39.1763C285.199 39.1474 285.132 39.0978 285.083 39.0329C285.033 38.9681 285.003 38.8906 284.995 38.8094L284.863 37.4782C284.858 37.4064 284.834 37.3371 284.795 37.2766C284.756 37.216 284.703 37.1662 284.64 37.1315L283.469 36.4833C283.397 36.4439 283.338 36.3853 283.298 36.3141C283.259 36.2428 283.239 36.1618 283.243 36.0802C283.247 35.9986 283.273 35.9197 283.32 35.8525C283.366 35.7852 283.43 35.7323 283.505 35.6998L284.732 35.1642C284.797 35.1359 284.854 35.0922 284.898 35.0369C284.942 34.9817 284.973 34.9165 284.986 34.847L285.239 33.5314C285.255 33.4514 285.292 33.3774 285.348 33.3176C285.403 33.2579 285.474 33.2149 285.553 33.1934C285.631 33.1719 285.714 33.1729 285.792 33.1962C285.87 33.2195 285.94 33.2641 285.994 33.3251L286.883 34.3253C286.93 34.3787 286.989 34.4197 287.056 34.4448C287.122 34.4699 287.194 34.4783 287.264 34.4691L288.591 34.2958C288.672 34.2861 288.754 34.2992 288.828 34.3335C288.901 34.3678 288.964 34.422 289.009 34.49C289.054 34.558 289.079 34.6372 289.081 34.7186C289.083 34.8 289.063 34.8805 289.022 34.951L288.345 36.1054C288.309 36.1667 288.289 36.2358 288.285 36.3067C288.282 36.3777 288.296 36.4483 288.326 36.5127L288.892 37.7261C288.931 37.8003 288.947 37.884 288.939 37.9673C288.932 38.0505 288.9 38.1298 288.849 38.1957C288.797 38.2616 288.728 38.3113 288.649 38.339C288.57 38.3667 288.485 38.3711 288.404 38.3518Z" fill="#BFD1FF"/>
<path d="M97.8546 120.529L94.6865 119.836C94.5188 119.798 94.3446 119.803 94.1789 119.848C94.0132 119.893 93.861 119.978 93.7355 120.096L91.3642 122.313C91.2197 122.447 91.0405 122.539 90.8468 122.577C90.6531 122.615 90.4525 122.599 90.2678 122.529C90.083 122.459 89.9214 122.339 89.8011 122.182C89.6809 122.026 89.6067 121.839 89.5871 121.642L89.2718 118.411C89.2547 118.24 89.1964 118.075 89.102 117.932C89.0076 117.788 88.8798 117.669 88.7297 117.586L85.889 116.016C85.716 115.92 85.5733 115.778 85.477 115.605C85.3807 115.432 85.3346 115.236 85.344 115.038C85.3533 114.841 85.4178 114.65 85.53 114.487C85.6423 114.324 85.7978 114.196 85.979 114.118L88.9514 112.818C89.1088 112.748 89.2472 112.642 89.3545 112.508C89.4619 112.373 89.5352 112.215 89.568 112.046L90.1829 108.853C90.2206 108.659 90.3118 108.48 90.4462 108.335C90.5805 108.19 90.7527 108.085 90.9433 108.033C91.1339 107.98 91.3353 107.983 91.5247 108.039C91.7142 108.095 91.8842 108.203 92.0155 108.351L94.1686 110.777C94.2828 110.906 94.4265 111.004 94.5874 111.065C94.7482 111.125 94.9214 111.146 95.0918 111.124L98.3119 110.725C98.5077 110.702 98.7062 110.733 98.885 110.817C99.0638 110.9 99.2158 111.031 99.3238 111.197C99.4319 111.362 99.4917 111.554 99.4965 111.751C99.5014 111.948 99.451 112.143 99.3512 112.313L97.7091 115.112C97.6224 115.261 97.573 115.428 97.5651 115.6C97.5573 115.772 97.5912 115.943 97.664 116.099L99.0376 119.045C99.1212 119.224 99.1532 119.423 99.13 119.619C99.1068 119.815 99.0293 120 98.9063 120.155C98.7832 120.309 98.6196 120.426 98.4338 120.492C98.2479 120.558 98.0473 120.571 97.8546 120.529Z" fill="#BFD1FF"/>
<path d="M335.654 72.6774H159.057V322.789H335.654V72.6774Z" fill="#C4B9FD"/>
<path d="M335.655 322.788H159.057L158.979 213.202L335.655 142.641V322.788Z" fill="#A797F0"/>
<path d="M335.654 72.2667H159.057V166.21L335.654 96.9199V72.2667Z" fill="#A797F0"/>
<path d="M335.654 72.2667H159.057V166.21L335.654 96.9199V72.2667Z" fill="#A797F0"/>
<path d="M335.654 72.6774H159.057V322.789H335.654V72.6774Z" fill="#C4B9FD"/>
<path d="M335.655 322.788H159.057L158.979 213.202L335.655 142.641V322.788Z" fill="#A797F0"/>
<path d="M335.654 72.2667H159.057V166.21L335.654 96.9199V72.2667Z" fill="#A797F0"/>
<path d="M335.654 72.6774H159.057V322.789H335.654V72.6774Z" fill="#95B3FF"/>
<path d="M335.655 322.788H159.057L158.979 213.202L335.655 142.641V322.788Z" fill="#527EEA"/>
<path d="M335.654 72.2667H159.057V166.21L335.654 96.9199V72.2667Z" fill="#557DE6"/>
<path d="M327.621 84.0553H167.091V311.411H327.621V84.0553Z" fill="white"/>
<g opacity="0.73">
<path opacity="0.73" d="M279.701 72.5442H218.04V94.4033H279.701V72.5442Z" fill="#0F2A5A"/>
</g>
<path d="M278.187 72.2667H216.526V92.5086H278.187V72.2667Z" fill="#1D55B3"/>
<path d="M278.187 86.9352H216.526V92.5079H278.187V86.9352Z" fill="#557DE6"/>
<path d="M236.397 60.4393L228.539 73.6248H266.173L258.557 60.4237L236.397 60.4393Z" fill="#1D55B3"/>
<path d="M184.248 119.059V151.358H216.516V119.059H184.248ZM212.783 147.616H187.987V122.803H212.783V147.616Z" fill="#6BA5FD"/>
<path d="M199.556 146.007C198.311 146.006 197.098 145.61 196.092 144.875L182.974 135.361C182.405 134.947 182.024 134.324 181.914 133.629C181.804 132.934 181.975 132.223 182.388 131.654C182.801 131.085 183.424 130.703 184.119 130.593C184.813 130.483 185.523 130.653 186.092 131.067L199.21 140.583C199.345 140.681 199.513 140.721 199.678 140.694C199.842 140.668 199.99 140.578 200.088 140.443L221.599 111.555C222.026 111.009 222.649 110.652 223.335 110.559C224.021 110.467 224.716 110.647 225.272 111.061C225.827 111.475 226.198 112.09 226.306 112.775C226.414 113.459 226.249 114.159 225.848 114.724L204.347 143.582C203.892 144.208 203.319 144.737 202.659 145.14C201.999 145.543 201.266 145.812 200.502 145.931C200.189 145.981 199.873 146.006 199.556 146.007Z" fill="#FF6D6D"/>
<path d="M184.248 163.251V195.548H216.516V163.251H184.248ZM212.783 191.806H187.987V166.993H212.783V191.806Z" fill="#6BA5FD"/>
<path d="M199.552 190.197C198.307 190.197 197.094 189.801 196.087 189.067L182.97 179.551C182.688 179.346 182.45 179.088 182.268 178.791C182.086 178.494 181.964 178.164 181.91 177.819C181.855 177.475 181.869 177.124 181.95 176.785C182.032 176.446 182.179 176.126 182.384 175.844C182.588 175.563 182.846 175.324 183.143 175.142C183.44 174.96 183.77 174.838 184.114 174.783C184.458 174.729 184.81 174.743 185.148 174.824C185.487 174.906 185.806 175.053 186.088 175.258L199.193 184.774C199.26 184.822 199.336 184.857 199.416 184.877C199.496 184.896 199.58 184.899 199.661 184.886C199.743 184.873 199.821 184.844 199.892 184.801C199.962 184.757 200.023 184.7 200.071 184.633L221.583 155.747C221.787 155.459 222.047 155.215 222.347 155.029C222.648 154.843 222.982 154.719 223.331 154.664C223.679 154.609 224.036 154.624 224.378 154.709C224.721 154.793 225.044 154.946 225.327 155.157C225.61 155.368 225.848 155.634 226.027 155.938C226.206 156.243 226.323 156.58 226.37 156.93C226.417 157.28 226.393 157.636 226.301 157.977C226.209 158.318 226.049 158.637 225.832 158.916L204.341 187.774C203.886 188.4 203.312 188.929 202.653 189.332C201.993 189.735 201.26 190.004 200.496 190.123C200.183 190.172 199.868 190.197 199.552 190.197Z" fill="#FF6D6D"/>
<path d="M184.248 207.44V239.737H216.516V207.44H184.248ZM212.783 235.995H187.987V211.182H212.783V235.995Z" fill="#6BA5FD"/>
<path d="M199.552 234.388C198.306 234.387 197.094 233.99 196.087 233.256L182.97 223.742C182.688 223.537 182.45 223.279 182.268 222.981C182.086 222.684 181.964 222.354 181.91 222.01C181.855 221.666 181.869 221.314 181.95 220.975C182.032 220.637 182.179 220.317 182.384 220.035C182.588 219.753 182.846 219.514 183.143 219.332C183.44 219.15 183.77 219.029 184.114 218.974C184.458 218.92 184.81 218.933 185.148 219.015C185.487 219.096 185.806 219.244 186.088 219.448L199.205 228.963C199.272 229.012 199.347 229.048 199.428 229.067C199.508 229.086 199.591 229.089 199.673 229.075C199.755 229.063 199.833 229.034 199.904 228.99C199.974 228.947 200.035 228.89 200.083 228.822L221.595 199.936C221.799 199.648 222.059 199.404 222.36 199.218C222.66 199.032 222.994 198.908 223.343 198.853C223.692 198.798 224.048 198.813 224.391 198.898C224.733 198.982 225.056 199.135 225.339 199.346C225.622 199.557 225.86 199.823 226.039 200.127C226.218 200.432 226.335 200.769 226.382 201.119C226.429 201.469 226.406 201.825 226.313 202.166C226.221 202.507 226.061 202.826 225.844 203.105L204.353 231.963C203.899 232.589 203.325 233.119 202.665 233.522C202.005 233.925 201.272 234.193 200.508 234.312C200.192 234.363 199.872 234.388 199.552 234.388Z" fill="#FF6D6D"/>
<path d="M184.248 251.63V283.929H216.516V251.63H184.248ZM212.783 280.186H187.987V255.374H212.783V280.186Z" fill="#6BA5FD"/>
<path d="M199.552 278.577C198.306 278.577 197.093 278.18 196.087 277.445L182.97 267.931C182.688 267.726 182.45 267.468 182.268 267.171C182.086 266.874 181.964 266.543 181.91 266.199C181.855 265.855 181.869 265.503 181.95 265.165C182.032 264.826 182.179 264.506 182.384 264.224C182.588 263.942 182.846 263.704 183.143 263.522C183.44 263.34 183.77 263.218 184.114 263.163C184.458 263.109 184.81 263.123 185.148 263.204C185.487 263.285 185.806 263.433 186.088 263.638L199.205 273.152C199.34 273.25 199.508 273.291 199.673 273.265C199.838 273.239 199.985 273.148 200.083 273.013L221.595 244.126C222.021 243.579 222.644 243.222 223.33 243.13C224.017 243.037 224.712 243.217 225.267 243.631C225.822 244.046 226.194 244.661 226.301 245.345C226.409 246.03 226.245 246.729 225.844 247.294L204.353 276.152C203.899 276.778 203.325 277.308 202.665 277.711C202.005 278.114 201.272 278.383 200.508 278.501C200.192 278.552 199.872 278.577 199.552 278.577Z" fill="#FF6D6D"/>
<path d="M306.568 121.477H230.706V124.129H306.568V121.477Z" fill="#6BA5FD"/>
<path d="M243.944 129.747H230.706V132.399H243.944V129.747Z" fill="#6BA5FD"/>
<path d="M311.388 129.747H250.69V132.399H311.388V129.747Z" fill="#6BA5FD"/>
<path d="M266.951 139.365H230.706V142.017H266.951V139.365Z" fill="#6BA5FD"/>
<path d="M303.196 139.365H274.775V142.017H303.196V139.365Z" fill="#6BA5FD"/>
<path d="M292.271 166.991H230.706V169.643H292.271V166.991Z" fill="#6BA5FD"/>
<path d="M268.636 175.261H230.706V177.913H268.636V175.261Z" fill="#6BA5FD"/>
<path d="M288.986 175.261H274.775V177.913H288.986V175.261Z" fill="#6BA5FD"/>
<path d="M310.301 175.261H296.09V177.913H310.301V175.261Z" fill="#6BA5FD"/>
<path d="M266.951 184.879H230.706V187.531H266.951V184.879Z" fill="#6BA5FD"/>
<path d="M288.985 211.956H230.706V214.608H288.985V211.956Z" fill="#6BA5FD"/>
<path d="M262.25 220.225H230.706V222.877H262.25V220.225Z" fill="#6BA5FD"/>
<path d="M311.385 220.225H262.25V222.877H311.385V220.225Z" fill="#6BA5FD"/>
<path d="M266.951 229.844H230.706V232.496H266.951V229.844Z" fill="#6BA5FD"/>
<path d="M296.453 229.844H274.775V232.496H296.453V229.844Z" fill="#6BA5FD"/>
<path d="M258.877 257.509H230.706V260.161H258.877V257.509Z" fill="#6BA5FD"/>
<path d="M292.272 257.509H264.101V260.161H292.272V257.509Z" fill="#6BA5FD"/>
<path d="M246.477 265.78H230.706V268.432H246.477V265.78Z" fill="#6BA5FD"/>
<path d="M311.385 265.78H253.578V268.432H311.385V265.78Z" fill="#6BA5FD"/>
<path d="M266.951 275.399H230.706V278.051H266.951V275.399Z" fill="#6BA5FD"/>
<path d="M296.454 275.399H264.101V278.051H296.454V275.399Z" fill="#6BA5FD"/>
<path d="M251.207 68.1926C251.735 65.9528 250.349 63.7086 248.111 63.1799C245.873 62.6513 243.63 64.0385 243.102 66.2783C242.573 68.518 243.959 70.7623 246.198 71.2909C248.436 71.8196 250.679 70.4324 251.207 68.1926Z" fill="white"/>
<path opacity="0.11" d="M159.057 213.171L335.654 142.642V96.9197L159.057 166.21V213.171Z" fill="#F7D14A"/>
<path d="M370.412 113.36C370.016 112.793 363.108 109.709 363.108 109.709L363.735 111.642C363.957 112.329 364.411 112.917 365.019 113.305C365.627 113.693 366.352 113.857 367.068 113.769L370.412 113.36Z" fill="white"/>
<g opacity="0.33">
<path opacity="0.33" d="M370.724 117.504C370.7 117.478 370.253 117.773 369.91 117.962C368.795 118.579 366.69 119.146 363.208 118.869C363.117 119.402 363.401 120.019 363.311 120.552C364.579 120.546 365.835 120.308 367.017 119.848C369.224 119.038 370.775 117.556 370.724 117.504Z" fill="#6E5348"/>
</g>
<path opacity="0.22" d="M358.363 281.873C356.149 278.605 354.136 276.385 351.131 273.355C351.176 273.875 351.223 274.395 351.278 274.915C351.392 276.009 351.51 276.879 351.637 277.654C354.365 280.427 356.277 282.58 358.363 285.658C360.983 289.529 362.954 292.439 364.172 296.861C364.569 298.305 364.823 299.686 365.211 301.505C365.246 301.383 365.279 301.264 365.312 301.147C365.454 300.627 365.567 300.179 365.658 299.75C364.992 296.826 364.716 295.005 364.183 293.065C362.954 288.654 360.978 285.742 358.363 281.873Z" fill="#6E5348"/>
<path d="M156.653 110.239C157.054 107.045 157.545 104.421 157.921 102.623C157.273 102.233 156.594 101.895 155.891 101.614C152.311 100.169 149.101 100.613 147.023 100.852C143.938 101.209 139.798 101.531 134.099 101.614C133.779 102.871 133.525 104.144 133.339 105.428C132.934 108.222 131.174 120.334 138.154 127.767C138.674 128.328 139.573 129.601 141.258 130.457C141.523 130.607 141.798 130.74 142.079 130.856C141.794 133.347 141.11 135.775 140.054 138.049C142.836 138.03 145.618 139.782 148.4 139.767C151.573 139.744 154.746 137.945 157.927 137.922C157.069 134.507 156.476 131.03 156.153 127.522C155.463 120.043 156.167 114.141 156.653 110.239Z" fill="#F2A884"/>
<path d="M160.561 119.552C161.58 117.442 161.149 115.123 159.597 114.372C158.045 113.621 155.96 114.723 154.941 116.832C153.921 118.942 154.353 121.261 155.905 122.012C157.457 122.763 159.541 121.662 160.561 119.552Z" fill="#F2A884"/>
<g opacity="0.33">
<path opacity="0.33" d="M149.431 129.527C149.407 129.501 148.96 129.794 148.619 129.985C147.503 130.602 145.591 131.176 142.107 130.898C142.017 131.432 141.934 131.964 141.835 132.498C143.16 132.528 144.478 132.315 145.726 131.871C147.933 131.061 149.483 129.579 149.431 129.527Z" fill="#6E5348"/>
</g>
<path d="M157.261 317.978L156.347 324.42C156.551 324.743 157.592 326.313 159.638 326.748C160.551 326.938 161.499 326.878 162.381 326.575C162.345 327.309 162.471 328.042 162.749 328.723C163.615 330.816 165.763 331.655 167.871 332.482C169.637 333.176 173.228 334.58 177.385 333.377C178.277 333.118 179.136 332.757 179.945 332.302C179.999 330.874 179.684 329.457 179.031 328.187C178.182 326.587 176.623 325.369 173.542 322.996C171.48 321.408 170.23 320.637 169.883 319.059C169.738 318.395 169.835 317.962 169.518 317.269C168.931 315.986 167.613 315.312 166.591 314.943L157.261 317.978Z" fill="#162C48"/>
<path d="M118.207 316.371C117.081 316.397 116.061 316.83 115.46 317.515C115.031 318.002 114.556 318.447 114.041 318.843C112.372 320.132 110.66 320.675 109.993 320.947C108.315 321.628 106.517 323.316 105.765 327.657C105.538 328.96 106.796 330.153 108.602 330.35C109.174 330.413 109.791 330.463 110.444 330.496C113.388 330.643 117.423 330.843 120.338 329.201C123.135 327.624 124.611 324.507 124.611 324.507C125.503 324.671 126.417 324.671 127.31 324.507C127.95 324.39 128.569 324.176 129.144 323.871C129.981 323.422 130.457 322.706 130.457 321.954V318.586C130.457 317.224 128.898 316.132 126.993 316.175L118.207 316.371Z" fill="#162C48"/>
<path d="M127.694 186.125C127.013 187.338 126.014 188.798 124.422 195.043C123.263 199.591 122.643 202.729 122.317 203.734C118.912 214.267 120.339 236.906 119.279 258.161C118.701 269.734 118.24 267.848 117.409 282.859C116.624 296.92 116.473 308.481 116.473 316.248C117.185 317.307 118.15 318.171 119.279 318.763C120.438 319.351 121.719 319.657 123.019 319.657C124.318 319.657 125.599 319.351 126.759 318.763C129.184 317.496 130.188 315.253 130.968 313.504C131.39 312.552 131.704 311.555 131.903 310.532C131.903 309.247 131.903 307.346 131.903 305.042C131.927 291.475 133.578 284.691 134.006 280.344C134.699 273.332 134.526 270.136 137.28 260.906C140.722 249.267 143.454 237.43 145.461 225.46L146.864 225.688C146.864 227.581 146.935 230.729 147.331 234.606C148.073 241.846 149.32 245.324 150.605 253.817C151.087 257.001 152.718 259.216 153.175 263.65C154.958 280.898 154.462 309.904 154.579 313.733C155.982 315.79 155.046 316.706 156.449 318.76C157.066 318.72 160.312 319.756 161.358 319.453C163.468 318.826 164.315 317.909 165.565 317.396C166.778 316.896 168.683 316.65 171.644 317.853C171.495 316.829 171.28 315.142 171.176 313.05C171.043 310.38 171.121 307.703 171.41 305.046C172.288 296.509 171.316 283.604 171.176 278.061C171.023 272.013 171.59 271.029 171.176 264.34C170.547 254.191 170.928 246.471 171.41 232.781C171.851 220.242 172.336 214.813 170.708 206.024C170.165 203.091 169.463 200.191 168.605 197.334L166.735 189.101C137.692 181.185 129.527 182.877 127.694 186.125Z" fill="#1E3A60"/>
<path d="M161.236 206.812C158.86 206.813 156.501 206.398 154.268 205.587L154.51 204.944C158.63 206.44 163.132 206.52 167.302 205.169L167.522 205.821C165.562 206.455 163.519 206.789 161.459 206.812H161.236Z" fill="#4B6180"/>
<path d="M126.112 205.4C125.157 205.4 124.202 205.336 123.254 205.208L123.351 204.528C126.817 204.998 130.346 204.574 133.602 203.296L133.862 203.934C131.605 204.816 129.214 205.309 126.791 205.39C126.565 205.4 126.339 205.4 126.112 205.4Z" fill="#4B6180"/>
<path d="M141.838 133.184C143.084 137.464 145.048 139.019 149.553 138.904C153.956 138.79 155.69 137.171 156.801 132.959C158.198 133.222 161.793 132.219 163.346 132.73C169.582 134.782 174.046 138.23 176.906 140.963C178.207 143.488 179.15 146.181 179.71 148.966C180.379 152.327 179.883 152.93 180.645 156.742C181.491 161.002 182.4 161.746 182.75 164.975C182.992 167.272 182.833 169.593 182.282 171.836C184.889 171.886 187.482 171.446 189.926 170.539C190.248 170.42 190.513 170.312 190.699 170.234C190.321 171.016 190.16 171.885 190.231 172.751C190.269 173.184 190.418 174.63 191.632 175.724C192.105 176.143 192.664 176.456 193.269 176.639C193.142 177.784 192.741 178.883 192.1 179.84C190.335 182.421 187.77 182.208 183.218 185.56C182.253 186.269 182.163 186.427 181.581 186.704C179.296 187.777 176.433 187.408 174.333 186.247C172.636 185.307 171.806 184.059 170.828 182.588C170.098 181.49 168.176 178.601 169.191 177.098C169.655 176.413 170.46 176.417 170.594 175.727C170.732 175.001 169.941 174.484 169.425 173.668C168.508 172.217 168.946 170.574 169.191 169.095C169.487 167.296 169.677 164.639 169.191 160.862L168.255 166.123C167.957 167.32 167.8 168.548 167.788 169.782C167.763 172.373 168.846 172.754 168.489 174.583C168.21 176.011 167.507 176.363 167.554 177.785C167.588 178.783 167.944 178.92 168.255 180.073C168.92 182.532 167.694 183.387 168.021 186.933C168.084 187.599 168.15 187.817 168.255 188.991C168.429 190.819 168.498 191.748 168.255 192.421C167.952 193.263 167.608 193.258 166.852 194.707C166.585 195.225 166.354 195.76 166.159 196.309C165.915 196.931 158.711 201.705 145.353 200.425C140.721 199.982 133.372 198.623 125.014 194.022C124.888 193.574 124.809 193.114 124.78 192.65C124.753 192.19 124.77 191.656 125.248 189.677C125.653 188.006 125.861 187.16 126.183 186.704C126.675 186.011 125.445 185.862 125.49 185.331C125.539 184.638 126.516 184.371 125.958 183.503C125.137 182.222 125.116 180.539 125.49 179.386C125.88 178.188 126.448 178.325 126.893 176.871C127.172 176.063 127.252 175.2 127.127 174.354C127.004 173.633 126.795 173.463 126.66 172.526C126.579 171.974 126.562 171.414 126.608 170.858C126.694 169.846 126.985 169.109 127.361 168.18C127.91 166.821 128.18 166.669 128.296 165.894C128.39 165.199 128.31 164.491 128.063 163.835C127.825 164.344 127.591 164.878 127.361 165.436C127.361 165.436 126.978 166.365 126.668 167.265C125.988 169.189 126.076 172.891 125.975 174.812C125.854 176.925 125.691 179.78 123.871 182.359C123.379 183.052 120.989 186.252 117.325 186.475C115.791 186.554 114.262 186.239 112.884 185.56C112.42 185.305 112.338 185.189 111.715 184.867C111.005 184.508 110.118 184.158 108.209 183.725C107.246 183.505 106.685 183.416 105.87 183.267C102.709 182.685 101.128 182.4 100.501 181.894C100.019 181.513 98.8085 180.315 99.0977 176.868L96.0596 174.808C96.899 174.566 97.6898 174.179 98.3962 173.664C99.2277 173.059 100.58 172.071 100.735 170.463C100.859 169.166 100.137 168.137 99.7993 167.719C100.783 167.85 101.734 168.16 102.605 168.634C103.601 169.184 103.71 169.541 104.708 170.005C105.314 170.288 105.373 170.203 107.514 170.699C109.504 171.155 109.983 171.349 110.786 171.156C111.298 171.029 111.777 170.793 112.189 170.463C112.004 169.529 112.189 168.976 112.423 168.634C112.842 168.017 113.809 167.502 113.826 167.49C114.715 166.97 114.519 165.28 114.762 163.831C114.992 162.445 115.409 162.576 115.931 160.859C116.319 159.523 116.477 158.131 116.398 156.742C116.329 153.261 117.367 148.488 118.267 145.995C120.278 140.435 124.85 137.268 126.45 136.162C131.925 132.338 139.613 133.25 141.838 133.184Z" fill="#527EEA"/>
<path d="M85.4983 168.401C85.9608 168.247 86.276 168.035 86.6675 168.172C86.8576 168.245 87.0238 168.369 87.1476 168.531C87.2715 168.692 87.3481 168.885 87.369 169.087C87.3898 169.434 87.1854 169.796 85.966 170.687C85.0126 171.391 83.9955 172.004 82.9278 172.518C81.7274 173.081 81.1281 173.362 80.5894 173.433C80.2187 173.48 79.4081 173.617 77.785 173.889C77.6083 173.912 77.444 173.992 77.3174 174.118C77.186 174.279 77.1143 174.481 77.1143 174.69C77.1143 174.898 77.186 175.1 77.3174 175.262C77.4601 175.423 77.6519 175.533 77.8632 175.574C78.0746 175.615 78.2936 175.586 78.4866 175.49C78.4294 175.509 77.9201 175.693 77.785 176.184C77.7447 176.343 77.745 176.511 77.7858 176.67C77.8266 176.83 77.9068 176.977 78.0189 177.097C78.4588 177.569 79.2106 177.31 80.5894 177.326C81.5819 177.338 81.5403 177.475 82.6939 177.555C84.5993 177.687 84.9457 177.333 86.9013 177.326C89.0232 177.326 88.895 177.733 90.1751 177.555C91.734 177.338 92.9205 176.586 93.9147 175.955C95.5655 174.915 96.0193 174.131 97.1885 174.125C98.0442 174.125 98.2278 174.535 98.8236 174.353C100.223 173.929 100.436 171.266 100.461 170.923C100.509 170.23 100.575 169.283 99.9928 168.408C99.8196 168.15 99.5459 167.826 98.1221 167.035C96.6671 166.227 95.8703 165.787 94.6163 165.435C93.5548 165.119 92.4517 164.965 91.3443 164.978C89.5082 165.011 89.212 165.512 86.9013 165.671C85.7027 165.749 85.5831 165.628 84.3308 165.671C81.4589 165.77 80.5201 165.692 79.8879 166.364C79.7961 166.461 79.3596 166.921 79.4202 167.507C79.4773 168.046 79.9277 168.469 80.3555 168.651C80.9722 168.912 81.2701 168.561 82.4601 168.422C84.1056 168.209 84.3447 168.789 85.4983 168.401Z" fill="#F2A884"/>
<path d="M189.995 171.6C190.269 170.836 190.889 170.421 191.864 169.771C192.886 169.09 193.35 169.097 195.138 168.17C196.523 167.456 196.293 167.423 196.775 167.255C198.382 166.691 199.335 167.589 202.144 168.17C203.83 168.554 205.56 168.708 207.287 168.627C209.165 168.523 210.368 168.14 211.027 168.856C211.416 169.279 211.529 169.993 211.261 170.456C210.964 170.976 210.221 171.149 208.456 171.149C206.732 171.15 205.011 170.997 203.313 170.692C203.483 171.577 203.799 172.427 204.247 173.209C206.326 176.805 210.59 177.627 211.494 177.781C211.712 177.747 211.935 177.771 212.141 177.852C212.346 177.932 212.527 178.066 212.664 178.239C213.027 178.74 212.956 179.577 212.43 179.84C212.083 180.014 211.624 179.912 211.261 179.612C211.313 179.752 211.482 180.227 211.261 180.527C210.959 180.934 209.975 180.952 208.924 180.298C208.554 180.455 208.156 180.533 207.755 180.527C206.889 180.504 206.667 180.074 205.884 180.069C205.13 180.069 205.075 180.461 204.247 180.527C203.608 180.577 203.241 180.371 202.378 180.069C201.138 179.636 200.837 179.69 199.806 179.376C198.074 178.856 197.838 178.381 195.599 177.317C192.666 175.93 192.134 176.303 191.157 175.259C191.09 175.185 189.38 173.318 189.995 171.6Z" fill="#F2A884"/>
<path d="M119.675 169.381C119.639 169.381 119.602 169.373 119.57 169.357C119.537 169.34 119.508 169.317 119.486 169.287C119.013 168.66 117.706 167.192 115.762 167.114C115.353 167.099 114.945 167.145 114.55 167.251C114.49 167.267 114.427 167.259 114.373 167.229C114.319 167.199 114.279 167.149 114.262 167.09C114.254 167.06 114.253 167.029 114.257 166.998C114.262 166.968 114.273 166.938 114.289 166.912C114.305 166.886 114.326 166.863 114.352 166.846C114.377 166.828 114.405 166.815 114.435 166.809C114.878 166.69 115.336 166.639 115.793 166.656C117.939 166.743 119.362 168.336 119.874 169.017C119.892 169.041 119.905 169.069 119.913 169.098C119.92 169.127 119.921 169.157 119.916 169.187C119.912 169.217 119.901 169.245 119.885 169.271C119.869 169.296 119.849 169.318 119.824 169.336C119.781 169.368 119.729 169.384 119.675 169.381Z" fill="#1D55B3"/>
<path d="M116.585 176.639H116.573C116.512 176.636 116.455 176.609 116.414 176.565C116.373 176.52 116.351 176.46 116.353 176.4C116.353 176.271 116.497 173.279 114.259 171.766C113.558 171.307 112.748 171.041 111.912 170.993C111.881 170.993 111.85 170.986 111.822 170.973C111.793 170.961 111.768 170.942 111.747 170.919C111.726 170.897 111.71 170.87 111.699 170.84C111.689 170.811 111.685 170.78 111.687 170.749C111.689 170.718 111.698 170.688 111.712 170.66C111.726 170.632 111.746 170.608 111.77 170.588C111.794 170.568 111.821 170.554 111.851 170.545C111.881 170.536 111.912 170.534 111.943 170.537C112.863 170.589 113.753 170.883 114.522 171.39C116.933 173.011 116.838 176.079 116.819 176.417C116.817 176.477 116.792 176.534 116.748 176.576C116.704 176.618 116.646 176.64 116.585 176.639Z" fill="#1D55B3"/>
<path d="M99.0549 177.093C99.0019 177.093 98.9505 177.075 98.909 177.042C98.8675 177.009 98.8383 176.963 98.8263 176.911C98.8138 176.852 98.825 176.79 98.8574 176.74C98.8897 176.689 98.9408 176.653 98.9995 176.639C100.165 176.397 101.237 175.828 102.09 174.997C102.858 174.239 103.406 173.286 103.675 172.24C103.689 172.179 103.727 172.127 103.781 172.094C103.834 172.062 103.898 172.052 103.959 172.066C103.988 172.073 104.017 172.085 104.042 172.102C104.067 172.12 104.088 172.142 104.104 172.168C104.12 172.194 104.131 172.223 104.136 172.253C104.141 172.283 104.139 172.314 104.132 172.344C103.842 173.47 103.252 174.496 102.426 175.313C101.508 176.207 100.354 176.82 99.0999 177.081C99.0854 177.086 99.0703 177.09 99.0549 177.093Z" fill="#1D55B3"/>
<path d="M187.154 178.251C187.108 178.252 187.063 178.238 187.024 178.213C186.485 177.869 186.019 177.42 185.654 176.894C185.29 176.367 185.033 175.774 184.9 175.147C184.766 174.521 184.758 173.874 184.877 173.245C184.996 172.615 185.238 172.016 185.59 171.481C185.624 171.43 185.677 171.393 185.737 171.381C185.797 171.368 185.86 171.379 185.912 171.412C185.938 171.427 185.96 171.448 185.978 171.473C185.995 171.497 186.008 171.525 186.014 171.554C186.021 171.584 186.022 171.614 186.016 171.644C186.011 171.674 186 171.702 185.983 171.727C185.664 172.212 185.445 172.756 185.337 173.327C185.23 173.897 185.237 174.484 185.358 175.052C185.479 175.62 185.712 176.158 186.042 176.635C186.373 177.113 186.795 177.519 187.284 177.832C187.309 177.848 187.331 177.87 187.348 177.895C187.365 177.919 187.377 177.948 187.383 177.977C187.389 178.007 187.389 178.037 187.383 178.067C187.377 178.096 187.365 178.124 187.348 178.149C187.327 178.181 187.298 178.206 187.264 178.224C187.23 178.242 187.192 178.251 187.154 178.251Z" fill="#1D55B3"/>
<path d="M169.319 169.85C169.275 169.85 169.233 169.838 169.196 169.816C169.159 169.794 169.129 169.762 169.109 169.724C169.095 169.697 169.087 169.667 169.085 169.637C169.083 169.607 169.088 169.577 169.097 169.548C169.107 169.52 169.123 169.493 169.143 169.471C169.163 169.448 169.187 169.43 169.215 169.417C169.891 169.088 170.604 168.84 171.338 168.679C172.952 168.335 174.627 168.397 176.211 168.861C176.24 168.869 176.267 168.882 176.291 168.901C176.315 168.92 176.335 168.943 176.35 168.969C176.365 168.996 176.374 169.025 176.378 169.055C176.381 169.085 176.379 169.116 176.37 169.145C176.352 169.204 176.311 169.253 176.256 169.282C176.202 169.311 176.138 169.317 176.079 169.299C174.571 168.859 172.977 168.799 171.44 169.126C170.743 169.276 170.065 169.509 169.422 169.819C169.391 169.837 169.355 169.848 169.319 169.85Z" fill="#1D55B3"/>
<path d="M147.443 142.249C146.421 142.253 145.405 142.077 144.443 141.729C140.33 140.216 139.03 136.115 138.81 135.316C138.803 135.286 138.801 135.255 138.806 135.225C138.81 135.195 138.821 135.166 138.837 135.14C138.854 135.113 138.875 135.091 138.9 135.073C138.925 135.056 138.954 135.043 138.984 135.037C139.043 135.021 139.106 135.028 139.16 135.058C139.213 135.089 139.253 135.139 139.269 135.198C139.479 135.968 140.716 139.878 144.615 141.308C146.041 141.816 147.576 141.936 149.063 141.655C149.123 141.643 149.186 141.656 149.237 141.69C149.288 141.724 149.324 141.777 149.337 141.837C149.342 141.867 149.341 141.897 149.335 141.927C149.328 141.956 149.316 141.984 149.298 142.009C149.281 142.034 149.259 142.055 149.233 142.071C149.208 142.088 149.179 142.099 149.15 142.104C148.586 142.204 148.015 142.253 147.443 142.249Z" fill="#1D55B3"/>
<path d="M128.28 163.827C128.25 163.828 128.219 163.822 128.191 163.811C128.163 163.799 128.138 163.783 128.116 163.761C128.094 163.74 128.077 163.715 128.065 163.687C128.054 163.659 128.048 163.629 128.048 163.598C128.033 161.804 128.443 160.031 129.245 158.426C129.647 157.656 130.135 156.933 130.7 156.273C131.145 155.737 131.559 155.174 131.938 154.588C132.98 152.93 133.714 151.096 134.103 149.175C134.118 149.116 134.155 149.066 134.206 149.033C134.258 149.001 134.319 148.99 134.379 149.002C134.439 149.014 134.492 149.049 134.526 149.099C134.56 149.15 134.572 149.212 134.561 149.272C134.16 151.243 133.407 153.124 132.337 154.826C131.948 155.425 131.525 156.001 131.069 156.551C129.372 158.501 128.462 161.014 128.515 163.6C128.514 163.661 128.489 163.72 128.444 163.762C128.4 163.805 128.341 163.828 128.28 163.827Z" fill="#1D55B3"/>
<path d="M169.092 160.854C169.036 160.855 168.982 160.835 168.939 160.798C168.896 160.761 168.868 160.71 168.86 160.655C168.626 158.844 168.22 157.06 167.648 155.326C166.69 152.432 165.89 151.55 165.169 151.026C164.673 150.668 164.119 150.397 163.532 150.225C163.503 150.217 163.476 150.203 163.452 150.184C163.429 150.165 163.409 150.141 163.395 150.115C163.381 150.088 163.372 150.059 163.369 150.029C163.366 149.999 163.369 149.968 163.378 149.939C163.397 149.881 163.438 149.832 163.492 149.804C163.547 149.775 163.61 149.77 163.669 149.788C164.307 149.975 164.908 150.268 165.448 150.655C166.231 151.224 167.093 152.165 168.093 155.183C168.673 156.943 169.084 158.755 169.321 160.594C169.325 160.624 169.322 160.655 169.314 160.684C169.306 160.713 169.292 160.74 169.273 160.764C169.254 160.788 169.231 160.807 169.204 160.822C169.178 160.836 169.148 160.846 169.118 160.849L169.092 160.854Z" fill="#1D55B3"/>
<path d="M132.547 186.679C131.473 186.677 130.407 186.486 129.399 186.116C128.318 185.714 127.305 185.149 126.396 184.44C126.372 184.422 126.351 184.399 126.336 184.373C126.321 184.347 126.311 184.318 126.307 184.288C126.304 184.258 126.306 184.228 126.314 184.199C126.323 184.17 126.337 184.143 126.356 184.119C126.395 184.071 126.451 184.04 126.513 184.033C126.574 184.026 126.636 184.043 126.685 184.081C127.556 184.76 128.527 185.301 129.562 185.686C130.823 186.152 132.175 186.316 133.511 186.166C133.572 186.159 133.633 186.176 133.682 186.213C133.73 186.251 133.762 186.306 133.769 186.367C133.773 186.397 133.77 186.428 133.762 186.457C133.753 186.486 133.739 186.513 133.72 186.536C133.701 186.56 133.677 186.579 133.651 186.594C133.624 186.608 133.595 186.617 133.565 186.62C133.227 186.66 132.887 186.679 132.547 186.679Z" fill="#1D55B3"/>
<path d="M157.867 179.259C157.715 179.259 157.564 179.259 157.412 179.259C157.38 179.26 157.349 179.255 157.319 179.244C157.29 179.233 157.263 179.216 157.24 179.194C157.217 179.171 157.2 179.145 157.188 179.116C157.176 179.086 157.171 179.055 157.171 179.023C157.172 178.992 157.18 178.96 157.194 178.932C157.207 178.903 157.226 178.878 157.25 178.857C157.274 178.836 157.302 178.821 157.332 178.812C157.362 178.802 157.394 178.799 157.426 178.803C159.999 178.866 162.55 178.322 164.874 177.213C165.643 176.85 166.387 176.437 167.101 175.976C167.153 175.942 167.216 175.931 167.277 175.943C167.337 175.955 167.39 175.991 167.425 176.042C167.442 176.067 167.454 176.095 167.46 176.124C167.466 176.154 167.466 176.184 167.46 176.214C167.453 176.244 167.441 176.272 167.424 176.297C167.407 176.321 167.385 176.343 167.359 176.359C166.626 176.83 165.863 177.253 165.075 177.626C162.823 178.697 160.361 179.255 157.867 179.259Z" fill="#1D55B3"/>
<path d="M148.11 196.734C143.209 196.744 138.341 195.924 133.713 194.307C130.922 193.328 128.24 192.061 125.71 190.528C125.684 190.513 125.662 190.492 125.644 190.468C125.626 190.444 125.613 190.416 125.606 190.386C125.599 190.357 125.598 190.326 125.603 190.297C125.608 190.267 125.619 190.238 125.636 190.213C125.669 190.161 125.721 190.124 125.781 190.11C125.841 190.096 125.904 190.106 125.956 190.138C128.458 191.654 131.111 192.907 133.87 193.877C138.52 195.498 143.412 196.311 148.335 196.28C148.396 196.28 148.454 196.304 148.497 196.347C148.54 196.39 148.564 196.448 148.564 196.508C148.564 196.569 148.54 196.627 148.497 196.67C148.454 196.713 148.396 196.737 148.335 196.737L148.11 196.734Z" fill="#1D55B3"/>
<path d="M152.439 107.354C152.39 107.272 152.324 107.202 152.245 107.149C152.166 107.095 152.077 107.06 151.983 107.045C151.888 107.03 151.792 107.036 151.701 107.063C151.609 107.089 151.525 107.135 151.453 107.198C150.627 107.9 149.712 108.492 148.734 108.959C146.589 109.982 143.262 110.793 142.586 109.685C142.45 109.462 142.354 109.046 142.709 108.226C142.273 108.579 141.81 108.897 141.324 109.178C138.175 110.991 134.88 110.738 133.092 110.426C132.989 110.417 132.297 110.349 131.949 109.791C131.563 109.176 131.738 108.193 132.479 107.571C132.334 107.598 131.168 107.801 130.519 107.063C129.8 106.245 130.281 104.91 130.458 104.42C131.189 102.39 133.274 101.613 133.787 101.438C133.325 101.647 132.804 101.684 132.316 101.544C131.757 101.371 131.196 100.896 131.104 100.485C130.842 99.2143 134.771 96.6715 138.907 95.6211C143.768 94.3939 148.108 95.4478 150.513 96.0649C151.82 96.4 153.103 96.8239 154.353 97.3337C154.576 97.1707 154.897 96.9471 155.292 96.6993C156.118 96.1793 156.721 95.8031 157.417 95.6003C158.246 95.3688 159.124 95.3761 159.949 95.6211C159.457 95.7081 158.981 95.8725 158.539 96.1082C157.631 96.6058 156.891 97.3616 156.412 98.2801C157.113 97.8649 157.934 97.7015 158.74 97.8169C159.546 97.9322 160.289 98.3194 160.845 98.9145C160.526 98.8284 160.191 98.8148 159.866 98.8748C159.541 98.9348 159.233 99.0668 158.966 99.2611C158.513 99.6106 158.204 100.115 158.099 100.677C158.728 100.833 159.31 101.138 159.795 101.566C160.405 102.182 160.85 102.94 161.089 103.773C161.633 105.562 161.436 109.935 160.223 115.56C159.661 115.3 159.043 115.184 158.425 115.222C156.184 115.379 154.978 117.648 154.871 117.869C154.821 118.059 154.772 118.155 154.722 118.155C154.469 118.155 154.215 115.654 153.96 110.654C153.791 110.116 153.591 109.588 153.36 109.074C153.094 108.479 152.786 107.905 152.439 107.354Z" fill="#162C48"/>
<path d="M139.981 124.036L148.271 122.698L146.653 125.53C146.459 125.871 146.192 126.165 145.871 126.391C145.551 126.617 145.184 126.77 144.798 126.839C144.412 126.908 144.015 126.891 143.636 126.789C143.257 126.687 142.905 126.504 142.605 126.251L139.981 124.036Z" fill="white"/>
<path d="M381.481 55.3222L378.76 54.6824C378.616 54.649 378.466 54.6534 378.324 54.6954C378.182 54.7374 378.052 54.8156 377.944 54.9234L375.909 56.9558C375.785 57.0795 375.632 57.1638 375.465 57.1991C375.299 57.2343 375.126 57.2191 374.968 57.1552C374.809 57.0913 374.67 56.9812 374.567 56.8374C374.463 56.6936 374.4 56.5218 374.383 56.3414L374.111 53.3777C374.097 53.2211 374.047 53.0705 373.966 52.9389C373.885 52.8074 373.776 52.6987 373.647 52.6224L371.209 51.1827C371.061 51.0947 370.938 50.9642 370.856 50.8059C370.773 50.6476 370.733 50.4677 370.741 50.2867C370.749 50.1056 370.804 49.9304 370.9 49.781C370.996 49.6315 371.129 49.5136 371.284 49.4407L373.838 48.2492C373.973 48.1861 374.091 48.0889 374.183 47.9659C374.275 47.8429 374.338 47.6979 374.366 47.5432L374.895 44.6205C374.926 44.441 375.004 44.2745 375.119 44.1401C375.235 44.0057 375.384 43.9089 375.548 43.8607C375.713 43.8125 375.887 43.815 376.051 43.8678C376.214 43.9205 376.361 44.0215 376.473 44.1591L378.322 46.3855C378.419 46.5029 378.542 46.5933 378.679 46.6489C378.817 46.7045 378.965 46.7237 379.111 46.7047L381.875 46.3433C382.043 46.3211 382.214 46.3497 382.368 46.4258C382.522 46.5019 382.653 46.6225 382.746 46.774C382.839 46.9255 382.891 47.1019 382.895 47.2832C382.9 47.4644 382.857 47.6434 382.771 47.7998L381.361 50.3611C381.285 50.4967 381.242 50.6501 381.236 50.8076C381.229 50.9651 381.258 51.1221 381.321 51.2646L382.5 53.962C382.572 54.1262 382.6 54.3087 382.58 54.4888C382.56 54.6689 382.493 54.8394 382.387 54.981C382.281 55.1226 382.14 55.2296 381.98 55.2899C381.82 55.3502 381.647 55.3613 381.481 55.3222Z" fill="#BFD1FF"/>
<path d="M448.335 185.582L445.614 184.943C445.469 184.909 445.32 184.914 445.178 184.956C445.036 184.998 444.905 185.076 444.797 185.184L442.763 187.216C442.639 187.34 442.485 187.424 442.319 187.459C442.152 187.495 441.98 187.479 441.821 187.415C441.662 187.352 441.524 187.241 441.42 187.098C441.317 186.954 441.253 186.782 441.237 186.602L440.965 183.638C440.95 183.481 440.901 183.331 440.82 183.199C440.739 183.068 440.629 182.959 440.501 182.883L438.062 181.443C437.914 181.355 437.792 181.224 437.709 181.066C437.626 180.908 437.587 180.728 437.595 180.547C437.603 180.366 437.658 180.191 437.754 180.041C437.849 179.892 437.983 179.774 438.138 179.701L440.691 178.509C440.826 178.446 440.945 178.349 441.037 178.226C441.129 178.103 441.192 177.958 441.22 177.803L441.748 174.881C441.779 174.701 441.857 174.535 441.973 174.4C442.088 174.266 442.237 174.169 442.402 174.121C442.567 174.073 442.741 174.075 442.904 174.128C443.068 174.181 443.214 174.282 443.326 174.419L445.175 176.646C445.273 176.763 445.395 176.854 445.533 176.909C445.67 176.965 445.818 176.984 445.964 176.965L448.728 176.604C448.897 176.581 449.067 176.61 449.221 176.686C449.375 176.762 449.506 176.883 449.6 177.034C449.693 177.186 449.744 177.362 449.749 177.543C449.753 177.725 449.71 177.904 449.624 178.06L448.214 180.621C448.139 180.757 448.096 180.91 448.089 181.068C448.082 181.225 448.112 181.382 448.175 181.525L449.354 184.222C449.426 184.386 449.453 184.569 449.433 184.749C449.413 184.929 449.346 185.1 449.24 185.241C449.134 185.383 448.993 185.49 448.833 185.55C448.673 185.61 448.5 185.622 448.335 185.582Z" fill="#BFD1FF"/>
</g>
<defs>
<clipPath id="clip0_1_994">
<rect width="485" height="364" fill="white"/>
</clipPath>
</defs>
</svg>
