<svg width="568" height="427" viewBox="0 0 568 427" fill="none" xmlns="http://www.w3.org/2000/svg">
<path d="M88.8918 207.739C105.496 202.707 125.413 203.483 137.185 190.752C146.281 180.916 147.116 165.346 141.758 153.073C136.399 140.801 125.857 131.463 114.427 124.466C102.84 117.373 89.9061 112.151 79.9643 102.897C70.0226 93.6432 63.6961 78.4877 69.7564 66.3399C77.4757 50.8676 98.8152 49.6129 116.044 51.2894C151.9 54.7782 187.453 61.5636 223.449 63.0163C259.445 64.4686 296.668 60.2251 328.316 43.0381C347.059 32.8606 363.301 18.4504 382.397 8.95448C401.493 -0.541713 425.555 -4.41201 443.528 7.06773C459.912 17.5358 467.04 38.1962 467.634 57.612C468.224 77.0277 463.498 96.1746 461.648 115.511C459.798 134.848 461.251 155.685 472.625 171.443C479.668 181.203 489.89 188.136 498.341 196.709C520.197 218.874 529.213 252.87 521.204 282.932C516.32 301.27 505.201 317.736 490.499 329.677C480.284 337.971 466.327 347.908 453.983 352.775C436.712 359.585 414.617 359.887 396.272 360.584C355.958 362.11 315.36 356.489 277.054 343.829C246.185 333.627 215.323 318.744 182.923 321.474C155.801 323.76 130.126 338.384 102.988 336.307C72.6526 333.983 45.8368 308.064 42.5255 277.863C39.2142 247.662 59.7781 216.56 88.8918 207.739Z" fill="#F3F5FF"/>
<path d="M568 414.654C568 421.469 440.849 426.999 284 426.999C127.151 426.999 0 421.469 0 414.654C0 407.835 127.151 402.309 284 402.309C440.849 402.309 568 407.835 568 414.654Z" fill="#F3F5FF"/>
<path d="M94.226 126.06C96.2496 129.103 97.3722 132.595 98.246 136.322C98.3006 136.548 98.3527 136.775 98.4048 137.003C99.3361 141.005 100.251 145.012 102.528 148.369C105.173 152.274 109.579 155.21 111.984 159.066C112.144 159.322 112.293 159.584 112.438 159.851C112.996 160.909 113.4 162.036 113.572 163.275C114.16 167.457 111.84 171.407 110.269 175.336C110.237 175.408 110.208 175.482 110.179 175.556C110.126 175.691 110.075 175.824 110.026 175.959C107.272 183.24 107.209 191.503 109.859 198.821C111.911 204.491 115.579 208.085 119.251 212.628C121.241 215.087 121.69 217.259 121.154 219.116C121.094 219.324 121.023 219.529 120.937 219.727C119.562 223.003 115.083 225.222 110.899 226.24C103.14 228.132 94.5353 226.984 87.8462 222.511C82.7291 219.084 78.6055 213.284 79.0399 207.246C79.0563 207.027 79.0775 206.808 79.1075 206.589C79.1296 206.396 79.1577 206.209 79.1911 206.018C79.6628 203.348 81.0253 200.646 80.237 198.049C79.2606 194.85 75.5291 193.42 73.5447 190.725C71.1729 187.506 71.7048 182.945 73.5671 179.363C73.6672 179.169 73.7695 178.978 73.878 178.793C73.8935 178.761 73.9112 178.733 73.9289 178.704C76.0759 175.037 79.3657 172.199 82.1081 168.951C83.6313 167.145 85.0188 165.091 85.8627 162.893C85.9378 162.691 86.0129 162.489 86.0792 162.281C86.6042 160.717 86.8391 159.083 86.6389 157.426C86.1588 153.45 83.2847 150.172 80.1281 147.705C77.2582 145.46 74.0413 143.647 71.3446 141.212C71.1082 140.997 70.8698 140.776 70.6432 140.548C70.6122 140.523 70.5841 140.492 70.5557 140.465C65.9135 135.852 63.6294 128.988 64.5857 122.519C64.8133 120.979 65.2628 119.408 65.9785 118.013C66.094 117.788 66.2184 117.568 66.3482 117.35C68.2695 114.136 74.9189 115.445 77.869 116.002C82.641 116.903 87.4039 119.114 91.0706 122.406C92.3227 123.53 93.3575 124.754 94.226 126.06Z" fill="#7995D7"/>
<path d="M91.5425 144.537C88.169 138.629 83.0276 133.941 78.0511 129.401C75.2266 126.823 72.3058 124.158 69.7373 121.302C68.7448 120.198 67.7264 118.887 66.9592 117.477C66.8307 117.692 66.7064 117.912 66.5908 118.138C67.358 119.466 68.3164 120.691 69.2549 121.735C71.8449 124.614 74.7764 127.292 77.6141 129.88C82.6526 134.473 87.8612 139.227 91.1797 145.215C91.2849 145.399 91.3872 145.59 91.4872 145.779C91.51 145.824 91.5333 145.864 91.5535 145.911C92.0514 146.862 92.4978 147.834 92.8927 148.82C90.9136 149.019 88.9658 148.206 87.6263 147.444C86.5968 146.857 85.6131 146.141 84.6604 145.45C83.8999 144.896 83.1132 144.326 82.2974 143.817C79.0221 141.765 75.1483 140.721 71.2555 140.672C71.4821 140.9 71.7205 141.122 71.9573 141.336L71.9592 141.339C75.4883 141.491 78.9757 142.499 81.9533 144.365C82.7489 144.861 83.5271 145.426 84.2809 145.974C85.2469 146.674 86.2439 147.4 87.3068 148.005C88.771 148.842 90.9237 149.729 93.1392 149.444C94.3906 152.745 95.1322 156.215 95.5732 159.764C95.6029 159.982 95.6275 160.203 95.6502 160.422C95.9217 162.769 96.0644 165.153 96.1427 167.543C93.4262 165.22 90.2295 163.46 86.8093 162.439C86.7686 162.428 86.7323 162.417 86.6919 162.406C86.6253 162.613 86.5501 162.815 86.475 163.018C86.5249 163.03 86.5744 163.046 86.6221 163.06C90.1462 164.114 93.4297 165.971 96.1686 168.43C96.228 170.701 96.2368 172.975 96.2441 175.232C96.2444 175.484 96.2472 175.734 96.2472 175.986C96.2494 176.207 96.2491 176.425 96.251 176.645C96.2516 177.019 96.2542 177.395 96.2573 177.767C96.2775 180.94 96.3767 184.138 96.6601 187.284C88.6987 186.397 81.0385 183.493 74.4904 178.917C74.3818 179.102 74.2795 179.293 74.1794 179.488C80.8437 184.129 88.6353 187.063 96.7258 187.943C97.2366 193.102 98.2768 198.103 100.342 202.594C93.7034 204.913 86.7386 206.297 79.7198 206.714C79.6898 206.932 79.6687 207.152 79.6523 207.371C86.7907 206.95 93.8713 205.545 100.62 203.184C101.64 205.287 102.888 207.272 104.425 209.102C108.803 214.319 114.709 217.453 121.549 219.852C121.636 219.653 121.706 219.448 121.766 219.24C115.021 216.873 109.208 213.79 104.923 208.686C103.437 206.918 102.227 205 101.236 202.968C101.141 202.77 101.048 202.574 100.957 202.377C98.9287 197.984 97.897 193.079 97.3859 188.008C97.361 187.792 97.3405 187.575 97.3199 187.354C97.0286 184.189 96.9263 180.963 96.9051 177.765C96.9023 177.35 96.9017 176.937 96.9007 176.519C101.429 175.688 106.067 175.543 110.639 176.083C110.687 175.948 110.738 175.816 110.791 175.681C110.821 175.607 110.85 175.533 110.881 175.461C106.228 174.893 101.508 175.03 96.8972 175.861C96.8969 175.652 96.8969 175.439 96.8944 175.228C96.8878 173.174 96.8789 171.11 96.8341 169.043C96.8271 168.74 96.8205 168.437 96.8095 168.134C96.7359 165.478 96.5866 162.83 96.2835 160.22C101.692 158.569 107.582 158.515 113.05 159.976C112.906 159.709 112.757 159.446 112.596 159.19L112.594 159.188C107.221 157.877 101.494 157.976 96.204 159.564C95.7421 155.89 94.9545 152.295 93.6153 148.877L93.6134 148.87L93.6093 148.861L93.5758 148.713C93.5689 148.714 93.562 148.716 93.5528 148.716C93.1156 147.619 92.6225 146.537 92.0618 145.477C92.0138 145.385 91.9655 145.298 91.9153 145.208C93.6207 142.024 96.085 139.248 99.0171 137.128C98.965 136.9 98.9129 136.673 98.8586 136.447C95.8621 138.564 93.329 141.341 91.5425 144.537Z" fill="#E5E6EB"/>
<path d="M86.8552 211.143C84.5914 211.11 83.0575 213.303 81.4825 214.927C79.8522 216.607 77.6402 217.9 75.2987 217.802C72.9572 217.704 70.6284 215.85 70.5854 213.511C70.5482 211.486 72.1396 209.748 73.951 208.839C75.7625 207.931 77.81 207.638 79.7556 207.07C81.7016 206.503 83.6832 205.55 84.701 203.799C85.7187 202.049 85.2822 199.372 83.4104 198.595C81.981 198.001 80.3015 198.697 79.1852 199.767C78.0686 200.838 77.3387 202.24 76.4039 203.472C72.7249 208.321 65.5337 210.122 59.9984 207.581C57.8605 206.599 55.7902 204.558 56.2142 202.246C56.7468 199.346 60.3201 198.726 62.7765 198.934C65.6123 199.174 68.2458 200.523 71.095 200.666C74.8258 200.854 81.5346 197.817 80.8104 193.197C80.5203 191.346 77.8378 191.201 76.4412 191.542C74.7601 191.952 73.3304 192.991 71.8207 193.787C64.6476 197.57 56.2562 195.706 50.6072 190.141C45.7443 185.351 51.9776 183.511 56.1419 183.104C59.0002 182.825 61.9528 183.363 64.4686 184.766C65.8333 185.528 67.1273 186.535 68.6723 186.77C70.2176 187.006 72.1023 186.029 72.0869 184.469C72.0708 182.843 70.2072 181.973 68.6524 181.491C65.8526 180.623 63.0527 179.756 60.2528 178.889C58.6791 178.401 57.0539 177.886 55.8186 176.796C54.5833 175.707 53.8433 173.876 54.5151 172.373C55.2696 170.686 57.5038 170.097 59.2865 170.595C61.0692 171.093 62.499 172.39 63.8568 173.647C66.3132 175.919 68.7696 178.192 71.226 180.465C72.2302 181.394 73.5327 182.395 74.829 181.955C76.1959 181.491 76.5795 179.728 76.4374 178.293C76.134 175.232 74.4978 172.479 72.7902 169.92C71.0826 167.36 69.2314 164.811 68.3967 161.851C67.5624 158.89 67.9721 155.351 70.2678 153.301C73.5978 150.328 79.4665 152.185 81.544 156.133C83.6216 160.081 82.5833 165.066 80.1869 168.83C79.1511 170.456 77.8287 172.419 78.7236 174.126C79.6493 175.892 82.3749 175.808 83.9502 174.584C85.5259 173.36 86.3517 171.438 87.4699 169.786C88.5878 168.135 90.3638 166.595 92.3398 166.88C94.4107 167.178 95.741 169.569 95.3275 171.617C94.9142 173.665 93.1457 175.242 91.1755 175.945C87.7831 177.157 83.5159 176.331 80.9376 178.845C79.6098 180.139 79.0857 182.245 79.8052 183.953C80.5244 185.661 82.523 186.776 84.3272 186.345C87.2161 185.654 88.1818 182.01 90.5119 180.17C92.7331 178.415 96.2862 178.674 98.2299 180.731C100.173 182.788 100.225 186.345 98.3414 188.457C96.9501 190.018 94.8375 190.694 92.8117 191.216C90.7862 191.739 88.6623 192.211 87.0267 193.514C85.3914 194.817 84.4336 197.251 85.4984 199.05C86.9692 201.534 90.9416 200.911 93.027 198.913C95.1128 196.915 96.1748 194.058 98.1516 191.953C100.129 189.848 103.902 188.796 105.747 191.017C107.513 193.142 106.005 196.527 103.718 198.079C101.43 199.63 98.5769 200.118 96.1707 201.479C93.7642 202.84 91.7605 205.785 92.9595 208.273C94.0145 210.464 97.0739 211.012 99.3279 210.094C101.582 209.176 103.216 207.222 104.779 205.358C106.343 203.495 108.04 201.574 110.338 200.773C112.637 199.972 115.681 200.773 116.506 203.061C117.281 205.211 115.805 207.562 113.977 208.938C112.149 210.313 109.929 211.138 108.227 212.666C106.524 214.192 105.467 216.881 106.767 218.763C108.15 220.765 111.168 220.589 113.474 219.813C115.781 219.034 118.217 217.865 120.535 218.609C122.339 219.189 123.675 220.992 123.702 222.884C123.73 224.775 122.446 226.616 120.66 227.247C117.807 228.252 114.165 226.418 111.833 228.344C110.492 229.45 110.209 231.433 110.56 233.135C110.911 234.838 111.777 236.386 112.384 238.012C113.761 241.704 113.682 246.158 111.258 249.267C108.834 252.375 103.748 253.396 100.82 250.755C98.5734 248.731 98.1611 245.351 98.4806 242.347C98.8001 239.343 99.6982 236.373 99.4927 233.356C99.2872 230.342 97.5575 227.111 94.5998 226.471C92.556 226.03 90.4762 226.912 88.6196 227.874C86.7631 228.835 84.8503 229.92 82.7595 229.917C80.6686 229.91 78.4133 228.3 78.587 226.219C78.6747 225.166 79.355 224.242 80.1746 223.574C83.3012 221.027 89.2482 220.686 89.9544 215.809C90.2316 213.899 89.0521 211.173 86.8552 211.143Z" fill="#7995D7" fill-opacity="0.76"/>
<path d="M42.2389 210.308C42.3708 210.523 42.5025 210.738 42.6341 210.951C42.8507 211.296 43.0673 211.643 43.287 211.983C48.2307 219.716 54.0941 227.279 55.7833 236.298C55.873 236.774 55.9494 237.26 56.0157 237.745C56.0495 237.972 56.0798 238.199 56.1066 238.429C57.102 246.506 55.7376 255.412 60.8082 261.663C66.2877 268.412 76.3563 268.472 84.4781 271.59C85.6197 272.028 86.7363 272.539 87.8131 273.119C88.065 273.251 88.3141 273.387 88.5604 273.532C93.9366 276.596 98.3818 281.3 101.058 286.88C102.828 290.577 103.7 294.515 103.992 298.585C104.182 301.264 103.524 304.076 105.623 306.166C108.293 308.814 113.995 309.007 118.847 308.502C119.074 308.48 119.3 308.452 119.527 308.427C121.581 308.181 123.443 307.821 124.801 307.487C131.494 305.845 137.862 300.911 139.037 294.13C140.952 283.09 128.988 272.684 132.072 261.912C133.154 258.138 135.992 254.983 137.489 251.424C137.588 251.187 137.683 250.954 137.768 250.714C138.086 249.832 138.313 248.924 138.403 247.969C138.94 242.212 134.08 237.152 128.682 235.056C124.142 233.294 119.214 233.035 114.352 232.518C114.097 232.49 113.839 232.462 113.581 232.43C112.92 232.357 112.262 232.276 111.603 232.181C105.87 231.374 99.8072 229.378 96.5477 224.596C93.3721 219.931 93.5865 213.685 90.8943 208.723C88.5297 204.365 84.2196 201.551 79.4463 199.913L79.4429 199.913C79.2291 199.84 79.0126 199.77 78.796 199.704C77.1112 199.166 75.3786 198.771 73.6587 198.505C66.8174 197.437 59.797 197.93 52.9636 196.783C46.514 195.704 39.868 192.74 36.5526 187.194C36.3515 186.871 36.1697 186.533 35.9977 186.191C35.9645 186.344 35.9345 186.492 35.9048 186.645C34.3093 194.82 37.8413 203.088 42.2389 210.308Z" fill="#7995D7"/>
<path d="M42.6193 201.95C37.7267 197.429 35.1333 191.766 35.5601 186.645C35.5898 186.492 35.6198 186.344 35.653 186.191C35.825 186.533 36.0068 186.871 36.2079 187.194C35.999 191.978 38.5033 197.216 43.0847 201.453C45.5603 203.74 48.4142 205.645 51.2567 207.445L51.2601 207.444C51.4754 207.585 51.6901 207.72 51.9048 207.854C52.1984 208.041 52.4882 208.221 52.778 208.404C54.4423 209.451 56.1603 210.529 57.8003 211.668C61.0374 213.909 64.0453 216.425 66.8749 219.117C72.0885 213.632 76.0779 206.911 78.4513 199.704C78.6679 199.77 78.8844 199.84 79.0981 199.913C76.6945 207.217 72.6501 214.029 67.3667 219.587C70.2026 222.317 72.8566 225.22 75.3897 228.199C75.539 228.373 75.6852 228.549 75.8311 228.723C78.4185 231.79 80.8742 234.924 83.2555 238.022C86.1838 241.828 89.1409 245.746 92.0428 249.797C100.523 246.074 107.893 239.968 113.236 232.43C113.494 232.462 113.753 232.49 114.007 232.518C108.604 240.258 101.1 246.537 92.4497 250.364C95.3762 254.469 98.2404 258.706 100.959 263.091C101.083 263.293 101.207 263.491 101.331 263.693C102.874 266.206 104.369 268.765 105.797 271.382C107.622 271.092 109.501 270.225 111.2 268.854C113.453 267.035 115.182 264.598 116.865 262.221C118.477 259.948 120.306 257.369 122.697 255.481C126.843 252.202 132.38 251.26 136.18 250.84C136.593 250.796 137.006 250.752 137.423 250.714C137.339 250.954 137.243 251.187 137.144 251.424C136.849 251.452 136.551 251.48 136.257 251.515C132.538 251.928 127.13 252.845 123.119 256.017C120.805 257.845 119.008 260.38 117.411 262.634C115.713 265.03 113.955 267.508 111.628 269.383C109.91 270.77 108.01 271.672 106.14 272.012C107.329 274.207 108.472 276.445 109.554 278.718C114.379 288.825 117.596 298.764 119.182 308.427C118.955 308.452 118.729 308.48 118.502 308.502C116.924 298.913 113.726 289.048 108.937 279.008C107.82 276.669 106.648 274.374 105.417 272.116C105.306 271.899 105.187 271.681 105.069 271.467C103.71 268.996 102.292 266.565 100.831 264.185C97.0831 267.779 92.8418 270.928 88.2156 273.532C87.9694 273.387 87.7203 273.251 87.4684 273.119C92.1965 270.509 96.5837 267.3 100.455 263.576C97.7006 259.116 94.7864 254.809 91.8076 250.639C91.674 250.446 91.5373 250.26 91.4041 250.071C88.5367 246.071 85.6137 242.2 82.7191 238.439C80.3271 235.333 77.8638 232.187 75.2726 229.12C69.3761 233.297 62.7317 236.449 55.7619 238.429C55.7351 238.199 55.7048 237.972 55.671 237.745C62.5161 235.794 69.0383 232.695 74.835 228.6C72.3284 225.652 69.7006 222.78 66.8944 220.082C66.7325 219.921 66.5674 219.763 66.4023 219.609C63.5948 216.939 60.616 214.448 57.4149 212.226C55.7853 211.099 54.071 210.021 52.4143 208.983C52.0206 208.735 51.6266 208.485 51.2295 208.234C48.4843 209.717 45.4198 210.623 42.2894 210.951C42.1578 210.738 42.0261 210.523 41.8942 210.308C44.9195 210.035 47.8933 209.201 50.5703 207.819C47.8096 206.061 45.0438 204.193 42.6193 201.95Z" fill="#E5E6EB"/>
<path d="M476.756 95.2888C474.619 98.2534 473.366 101.7 472.349 105.392C472.286 105.615 472.226 105.84 472.166 106.066C471.083 110.029 470.016 114 467.614 117.267C464.823 121.07 460.309 123.836 457.758 127.599C457.587 127.849 457.429 128.105 457.275 128.367C456.678 129.402 456.233 130.514 456.012 131.745C455.267 135.902 457.436 139.936 458.856 143.923C458.885 143.995 458.91 144.07 458.935 144.146C458.986 144.283 459.03 144.417 459.074 144.554C461.549 151.934 461.3 160.193 458.373 167.406C456.107 172.994 452.306 176.446 448.464 180.847C446.383 183.23 445.853 185.382 446.317 187.258C446.368 187.47 446.431 187.675 446.51 187.878C447.76 191.202 452.151 193.59 456.293 194.766C463.977 196.95 472.617 196.129 479.471 191.91C484.715 188.681 489.056 183.04 488.85 176.991C488.844 176.772 488.831 176.552 488.809 176.332C488.793 176.138 488.771 175.95 488.746 175.758C488.377 173.073 487.117 170.321 488.004 167.755C489.1 164.595 492.885 163.308 494.968 160.69C497.462 157.563 497.102 152.985 495.379 149.335C495.284 149.138 495.189 148.942 495.088 148.753C495.076 148.722 495.057 148.692 495.041 148.663C493.036 144.917 489.854 141.957 487.237 138.608C485.785 136.746 484.475 134.64 483.717 132.412C483.648 132.207 483.581 132.002 483.521 131.792C483.057 130.21 482.884 128.568 483.149 126.919C483.777 122.965 486.776 119.798 490.022 117.452C492.976 115.317 496.26 113.627 499.047 111.295C499.29 111.09 499.536 110.877 499.773 110.659C499.805 110.635 499.833 110.605 499.862 110.58C504.676 106.145 507.22 99.3731 506.51 92.8721C506.34 91.3239 505.951 89.7379 505.288 88.3168C505.181 88.0873 505.067 87.8622 504.944 87.6399C503.148 84.355 496.452 85.4121 493.485 85.8572C488.68 86.5772 483.837 88.6058 480.049 91.7564C478.754 92.8324 477.675 94.0161 476.756 95.2888Z" fill="#7995D7"/>
<path d="M479.198 113.665C482.794 107.889 488.107 103.399 493.253 99.0511C496.173 96.5818 499.194 94.0286 501.868 91.2724C502.904 90.2072 503.971 88.9352 504.791 87.5547C504.911 87.775 505.025 88.0001 505.132 88.2299C504.315 89.5275 503.311 90.716 502.335 91.7232C499.636 94.5027 496.606 97.0676 493.673 99.5464C488.464 103.946 483.078 108.499 479.533 114.357C479.422 114.537 479.312 114.724 479.205 114.909C479.183 114.953 479.157 114.993 479.135 115.039C478.602 115.97 478.119 116.923 477.686 117.895C479.656 118.168 481.632 117.43 482.999 116.719C484.05 116.171 485.061 115.493 486.039 114.839C486.822 114.313 487.63 113.774 488.464 113.296C491.813 111.369 495.725 110.472 499.617 110.572C499.38 110.79 499.134 111.003 498.891 111.208L498.888 111.211C495.355 111.229 491.832 112.105 488.786 113.857C487.971 114.323 487.173 114.858 486.399 115.376C485.408 116.04 484.385 116.727 483.299 117.291C481.803 118.073 479.618 118.877 477.415 118.508C476.041 121.759 475.167 125.2 474.592 128.73C474.554 128.945 474.52 129.166 474.491 129.384C474.128 131.719 473.898 134.096 473.727 136.481C476.531 134.263 479.792 132.625 483.249 131.734C483.29 131.725 483.324 131.715 483.365 131.705C483.425 131.915 483.492 132.12 483.561 132.325C483.511 132.335 483.46 132.349 483.413 132.362C479.849 133.281 476.499 135.013 473.667 137.366C473.522 139.634 473.427 141.905 473.333 144.161C473.323 144.412 473.314 144.662 473.301 144.915C473.292 145.135 473.285 145.352 473.273 145.573C473.26 145.946 473.241 146.322 473.225 146.693C473.083 149.863 472.866 153.055 472.461 156.188C480.452 155.603 488.214 152.991 494.932 148.667C495.033 148.855 495.128 149.051 495.223 149.249C488.385 153.634 480.489 156.271 472.37 156.845C471.666 161.98 470.435 166.938 468.203 171.348C474.747 173.916 481.654 175.562 488.653 176.245C488.675 176.465 488.688 176.685 488.694 176.904C481.579 176.214 474.554 174.542 467.9 171.928C466.801 173.99 465.478 175.926 463.875 177.697C459.3 182.743 453.28 185.653 446.354 187.791C446.275 187.588 446.212 187.383 446.161 187.171C452.99 185.062 458.918 182.2 463.392 177.262C464.945 175.552 466.227 173.681 467.294 171.687C467.398 171.493 467.496 171.302 467.593 171.108C469.788 166.794 471.006 161.933 471.71 156.885C471.742 156.669 471.77 156.453 471.798 156.233C472.212 153.082 472.436 149.862 472.578 146.667C472.597 146.252 472.613 145.839 472.629 145.422C468.136 144.421 463.505 144.099 458.918 144.467C458.874 144.33 458.83 144.195 458.779 144.059C458.754 143.983 458.729 143.908 458.7 143.835C463.37 143.444 468.083 143.76 472.657 144.765C472.667 144.556 472.673 144.343 472.686 144.132C472.771 142.08 472.856 140.018 472.979 137.954C472.998 137.651 473.017 137.349 473.039 137.046C473.213 134.395 473.462 131.755 473.866 129.158C468.522 127.304 462.64 127.027 457.119 128.28C457.274 128.018 457.431 127.762 457.602 127.512L457.605 127.509C463.025 126.403 468.743 126.719 473.97 128.506C474.57 124.852 475.492 121.289 476.96 117.924L476.963 117.917L476.97 117.908L477.007 117.761C477.014 117.763 477.02 117.765 477.029 117.765C477.509 116.686 478.043 115.624 478.643 114.586C478.693 114.496 478.747 114.41 478.801 114.322C477.216 111.076 474.858 108.209 472.01 105.979C472.07 105.753 472.13 105.528 472.193 105.305C475.107 107.533 477.535 110.404 479.198 113.665Z" fill="#E5E6EB"/>
<path d="M482.908 178C485.171 177.949 486.724 180.128 488.312 181.738C489.957 183.406 492.18 184.681 494.522 184.563C496.861 184.445 499.175 182.571 499.197 180.231C499.216 178.207 497.613 176.481 495.791 175.588C493.973 174.695 491.924 174.419 489.973 173.869C488.022 173.318 486.033 172.381 485.001 170.639C483.968 168.897 484.382 166.217 486.248 165.424C487.672 164.819 489.357 165.5 490.481 166.561C491.608 167.623 492.35 169.017 493.294 170.242C497.013 175.06 504.22 176.8 509.735 174.212C511.863 173.213 513.918 171.155 513.473 168.847C512.917 165.95 509.337 165.361 506.885 165.589C504.05 165.854 501.426 167.225 498.579 167.392C494.85 167.611 488.117 164.631 488.802 160.004C489.076 158.151 491.757 157.984 493.155 158.312C494.841 158.708 496.28 159.736 497.796 160.519C505 164.241 513.375 162.307 518.979 156.695C523.799 151.863 517.552 150.077 513.385 149.705C510.524 149.449 507.576 150.012 505.072 151.437C503.715 152.21 502.427 153.227 500.883 153.476C499.343 153.725 497.449 152.764 497.452 151.203C497.455 149.577 499.311 148.692 500.861 148.197C503.652 147.306 506.446 146.415 509.236 145.524C510.809 145.023 512.428 144.494 513.653 143.394C514.881 142.295 515.604 140.457 514.919 138.96C514.152 137.279 511.914 136.709 510.133 137.222C508.356 137.735 506.938 139.045 505.59 140.312C503.153 142.605 500.716 144.899 498.279 147.192C497.281 148.129 495.987 149.141 494.689 148.712C493.316 148.26 492.918 146.5 493.048 145.064C493.326 142.001 494.939 139.235 496.625 136.661C498.31 134.087 500.141 131.522 500.95 128.555C501.761 125.588 501.319 122.052 499.008 120.021C495.652 117.076 489.799 118.982 487.754 122.948C485.711 126.914 486.791 131.89 489.218 135.633C490.27 137.251 491.608 139.202 490.727 140.917C489.815 142.691 487.091 142.63 485.506 141.419C483.918 140.208 483.078 138.293 481.945 136.65C480.812 135.008 479.025 133.484 477.052 133.785C474.981 134.101 473.671 136.503 474.103 138.547C474.532 140.592 476.316 142.154 478.292 142.841C481.692 144.024 485.954 143.162 488.552 145.654C489.891 146.936 490.434 149.039 489.73 150.753C489.023 152.466 487.034 153.599 485.228 153.182C482.333 152.515 481.336 148.88 478.99 147.06C476.755 145.324 473.203 145.612 471.278 147.685C469.352 149.759 469.33 153.316 471.23 155.413C472.635 156.961 474.753 157.619 476.783 158.125C478.813 158.63 480.941 159.085 482.589 160.374C484.234 161.663 485.212 164.089 484.164 165.896C482.712 168.393 478.734 167.803 476.632 165.823C474.532 163.843 473.446 160.995 471.451 158.907C469.456 156.818 465.674 155.798 463.846 158.034C462.101 160.174 463.635 163.546 465.936 165.079C468.238 166.611 471.095 167.075 473.513 168.415C475.931 169.756 477.958 172.684 476.78 175.183C475.745 177.382 472.689 177.956 470.428 177.057C468.165 176.158 466.514 174.217 464.935 172.367C463.357 170.517 461.643 168.611 459.338 167.829C457.034 167.047 453.997 167.874 453.192 170.168C452.434 172.325 453.93 174.664 455.771 176.024C457.608 177.384 459.834 178.19 461.551 179.703C463.265 181.216 464.345 183.896 463.06 185.788C461.696 187.801 458.675 187.651 456.364 186.894C454.05 186.136 451.604 184.987 449.293 185.75C447.493 186.344 446.174 188.158 446.161 190.05C446.149 191.942 447.449 193.772 449.242 194.387C452.103 195.37 455.73 193.504 458.075 195.41C459.427 196.506 459.727 198.488 459.389 200.193C459.054 201.898 458.202 203.451 457.608 205.084C456.26 208.787 456.377 213.243 458.827 216.329C461.28 219.415 466.372 220.393 469.279 217.729C471.508 215.686 471.89 212.304 471.546 209.302C471.202 206.3 470.28 203.337 470.46 200.321C470.64 197.304 472.342 194.058 475.293 193.393C477.333 192.934 479.419 193.801 481.285 194.746C483.151 195.69 485.07 196.761 487.163 196.738C489.253 196.715 491.495 195.084 491.302 193.005C491.207 191.954 490.519 191.035 489.695 190.375C486.545 187.853 480.597 187.563 479.849 182.695C479.555 180.786 480.711 178.05 482.908 178Z" fill="#7995D7" fill-opacity="0.76"/>
<path d="M527.277 175.102C527.154 175.324 527.034 175.545 526.911 175.763C526.709 176.118 526.51 176.473 526.305 176.824C521.721 184.774 516.209 192.596 514.937 201.683C514.867 202.164 514.814 202.652 514.77 203.141C514.748 203.368 514.725 203.596 514.71 203.827C514.085 211.942 515.856 220.776 511.076 227.251C505.911 234.246 495.857 234.763 487.885 238.25C486.765 238.739 485.675 239.3 484.624 239.927C484.378 240.072 484.138 240.217 483.898 240.375C478.667 243.679 474.44 248.581 472.025 254.28C470.424 258.054 469.733 262.026 469.629 266.105C469.563 268.791 470.345 271.572 468.344 273.753C465.799 276.521 460.114 276.975 455.243 276.691C455.015 276.679 454.788 276.663 454.561 276.644C452.496 276.493 450.621 276.222 449.248 275.95C442.486 274.614 435.9 269.976 434.417 263.255C431.998 252.313 443.474 241.374 439.9 230.75C438.647 227.033 435.667 224.01 434.009 220.524C433.899 220.293 433.792 220.06 433.697 219.827C433.34 218.96 433.072 218.062 432.936 217.113C432.137 211.387 436.759 206.112 442.056 203.77C446.511 201.804 451.423 201.319 456.256 200.581C456.509 200.54 456.764 200.499 457.02 200.459C457.68 200.354 458.333 200.243 458.987 200.118C464.676 199.049 470.642 196.781 473.679 191.853C476.637 187.05 476.138 180.819 478.601 175.74C480.763 171.279 484.94 168.271 489.631 166.416H489.634C489.846 166.334 490.06 166.255 490.272 166.179C491.932 165.564 493.644 165.091 495.348 164.746C502.136 163.367 509.169 163.539 515.944 162.082C522.337 160.709 528.84 157.445 531.899 151.753C532.085 151.422 532.253 151.076 532.407 150.727C532.448 150.877 532.483 151.024 532.521 151.175C534.488 159.27 531.34 167.69 527.277 175.102Z" fill="#7995D7"/>
<path d="M525.318 166.787C530 162.047 532.33 156.271 531.67 151.175C531.632 151.024 531.597 150.877 531.556 150.727C531.402 151.076 531.234 151.422 531.048 151.753C531.474 156.523 529.214 161.87 524.832 166.311C522.461 168.709 519.699 170.742 516.943 172.67L516.94 172.67C516.728 172.82 516.52 172.964 516.311 173.108C516.027 173.308 515.746 173.501 515.465 173.697C513.852 174.82 512.185 175.975 510.597 177.187C507.466 179.574 504.577 182.226 501.875 185.043C496.413 179.802 492.123 173.27 489.421 166.179C489.209 166.255 488.995 166.334 488.783 166.416C491.52 173.603 495.87 180.222 501.405 185.534C498.696 188.391 496.177 191.414 493.784 194.505C493.642 194.685 493.506 194.868 493.367 195.048C490.924 198.23 488.613 201.473 486.374 204.676C483.625 208.611 480.85 212.661 478.138 216.838C469.494 213.506 461.851 207.743 456.169 200.459C455.913 200.499 455.658 200.54 455.405 200.581C461.157 208.064 468.939 213.995 477.756 217.425C475.019 221.659 472.355 226.021 469.838 230.526C469.725 230.734 469.608 230.939 469.494 231.147C468.067 233.726 466.691 236.352 465.384 239.032C463.547 238.824 461.63 238.042 459.872 236.749C457.539 235.038 455.699 232.68 453.909 230.381C452.194 228.187 450.25 225.694 447.775 223.916C443.481 220.83 437.909 220.142 434.093 219.896C433.679 219.871 433.262 219.846 432.846 219.827C432.94 220.06 433.048 220.293 433.158 220.524C433.452 220.536 433.752 220.552 434.049 220.574C437.78 220.817 443.226 221.485 447.377 224.47C449.773 226.192 451.683 228.641 453.381 230.82C455.187 233.137 457.059 235.529 459.468 237.301C461.249 238.606 463.187 239.42 465.072 239.675C463.986 241.919 462.944 244.208 461.968 246.528C457.612 256.843 454.849 266.922 453.71 276.644C453.937 276.663 454.164 276.679 454.392 276.691C455.528 267.038 458.272 257.039 462.596 246.79C463.607 244.404 464.671 242.058 465.798 239.744C465.899 239.524 466.009 239.303 466.116 239.082C467.36 236.551 468.664 234.06 470.015 231.614C473.924 235.031 478.305 237.985 483.047 240.375C483.287 240.217 483.527 240.072 483.773 239.927C478.93 237.537 474.4 234.533 470.363 230.99C472.91 226.406 475.625 221.971 478.41 217.671C478.536 217.472 478.662 217.28 478.788 217.084C481.469 212.958 484.212 208.957 486.93 205.066C489.178 201.855 491.495 198.602 493.942 195.418C500.025 199.322 506.806 202.167 513.859 203.827C513.874 203.596 513.896 203.368 513.919 203.141C506.992 201.503 500.334 198.705 494.355 194.878C496.726 191.82 499.22 188.831 501.9 186.006C502.052 185.84 502.209 185.675 502.367 185.512C505.051 182.718 507.914 180.092 511.008 177.728C512.586 176.527 514.247 175.371 515.857 174.259C516.239 173.994 516.621 173.725 517.006 173.457C519.816 174.813 522.919 175.578 526.06 175.763C526.183 175.545 526.303 175.324 526.426 175.102C523.392 174.969 520.381 174.271 517.644 173.012C520.321 171.13 522.998 169.138 525.318 166.787Z" fill="#E5E6EB"/>
<path d="M445.537 134.105H122.085V310.562H445.537V134.105Z" fill="#33568E"/>
<path d="M455.74 321.862H110.648V123.798H455.74V321.862ZM454.282 110.832H112.11C104.132 110.832 97.667 117.291 97.667 125.255V332.363C97.667 340.329 104.132 346.788 112.11 346.788H454.282C462.26 346.788 468.725 340.329 468.725 332.363V125.255C468.725 117.291 462.26 110.832 454.282 110.832Z" fill="#33568E"/>
<path d="M445.537 134.105H122.085V310.562H445.537V134.105Z" fill="#E5E6EB"/>
<path d="M445.512 310.695H120.028V133.354H445.512V310.695ZM109.138 122.496V321.552H456.399V122.496H109.138Z" fill="#7995D7"/>
<path d="M291.546 335.085C291.546 339.58 287.897 343.228 283.395 343.228C278.892 343.228 275.242 339.58 275.242 335.085C275.242 330.59 278.892 326.945 283.395 326.945C287.897 326.945 291.546 330.59 291.546 335.085Z" fill="#050F64"/>
<path d="M324.368 346.895H241.947V388.548H324.368V346.895Z" fill="#050F64"/>
<path d="M414.033 414.396H155.381L167.61 386.793H401.803L414.033 414.396Z" fill="#33568E"/>
<path d="M378.23 110.706V401.121H187.432V110.706C187.432 102.821 181.033 96.4219 173.138 96.4219H363.929V96.425L363.932 96.4219C371.831 96.4219 378.23 102.821 378.23 110.706Z" fill="white"/>
<path d="M354.218 96.4219C360.15 97.9445 364.472 104.754 364.472 110.709L364.62 386.935H202.235L202.09 110.706C202.09 105.498 199.466 99.9054 195.299 96.4219H188.676C194.611 97.9445 198.933 104.754 198.933 110.709L199.081 390.087H367.777L367.629 110.706C367.629 105.498 365.005 99.9054 360.838 96.4219H354.218Z" fill="#7995D7"/>
<path d="M188.419 110.705H159.818C159.818 102.82 166.219 96.4219 174.122 96.4219C182.019 96.4219 188.419 102.82 188.419 110.705Z" fill="#050F64"/>
<path d="M222.761 147.641H252.177V118.267H222.761V147.641ZM255.187 150.646H219.752V115.262H255.187V150.646Z" fill="#7995D7"/>
<path d="M347.551 120.801H259.708V123.806H347.551V120.801Z" fill="#33568E"/>
<path d="M347.551 131.887H259.708V134.892H347.551V131.887Z" fill="#7995D7"/>
<path d="M321.452 142.969H259.708V145.974H321.452V142.969Z" fill="#7995D7"/>
<path d="M222.761 193.082H252.177V163.708H222.761V193.082ZM255.187 196.088H219.752V160.703H255.187V196.088Z" fill="#7995D7"/>
<path d="M347.551 165.137H259.708V168.142H347.551V165.137Z" fill="#33568E"/>
<path d="M347.551 176.219H259.708V179.224H347.551V176.219Z" fill="#7995D7"/>
<path d="M321.452 187.305H259.708V190.31H321.452V187.305Z" fill="#7995D7"/>
<path d="M235.569 189.933L224.856 182.743C224.166 182.28 223.983 181.346 224.447 180.658C224.91 179.969 225.845 179.786 226.535 180.249L234.773 185.778L246.978 168.005C247.448 167.32 248.385 167.146 249.07 167.615C249.755 168.084 249.93 169.02 249.46 169.704L235.569 189.933Z" fill="#FFCA32"/>
<path d="M222.761 238.519H252.177V209.146H222.761V238.519ZM255.187 241.527H219.752V206.141H255.187V241.527Z" fill="#7995D7"/>
<path d="M347.551 210.578H259.708V213.583H347.551V210.578Z" fill="#33568E"/>
<path d="M347.551 221.66H259.708V224.664H347.551V221.66Z" fill="#7995D7"/>
<path d="M321.452 232.738H259.708V235.746H321.452V232.738Z" fill="#7995D7"/>
<path d="M235.569 235.374L224.856 228.183C224.166 227.72 223.983 226.787 224.447 226.1C224.91 225.409 225.845 225.226 226.535 225.69L234.773 231.219L246.978 213.446C247.448 212.762 248.385 212.588 249.07 213.055C249.755 213.524 249.93 214.461 249.46 215.145L235.569 235.374Z" fill="#FFCA32"/>
<path d="M222.761 282.855H252.177V253.48H222.761V282.855ZM255.187 285.859H219.752V250.473H255.187V285.859Z" fill="#7995D7"/>
<path d="M347.551 256.012H259.708V259.019H347.551V256.012Z" fill="#33568E"/>
<path d="M347.551 267.098H259.708V270.102H347.551V267.098Z" fill="#7995D7"/>
<path d="M321.452 278.18H259.708V281.184H321.452V278.18Z" fill="#7995D7"/>
<path d="M235.569 279.709L224.856 272.518C224.166 272.054 223.983 271.121 224.447 270.431C224.91 269.744 225.845 269.561 226.535 270.021L234.773 275.551L246.978 257.777C247.448 257.093 248.385 256.919 249.07 257.389C249.755 257.859 249.93 258.792 249.46 259.479L235.569 279.709Z" fill="#FFCA32"/>
<path d="M222.761 328.293H252.177V298.918H222.761V328.293ZM255.187 331.297H219.752V295.914H255.187V331.297Z" fill="#7995D7"/>
<path d="M347.551 300.348H259.708V303.352H347.551V300.348Z" fill="#33568E"/>
<path d="M347.551 312.539H259.708V315.547H347.551V312.539Z" fill="#7995D7"/>
<path d="M321.452 323.621H259.708V326.629H321.452V323.621Z" fill="#7995D7"/>
<path d="M222.761 373.735H252.177V344.363H222.761V373.735ZM255.187 376.742H219.752V341.355H255.187V376.742Z" fill="#7995D7"/>
<path d="M347.551 345.789H259.708V348.793H347.551V345.789Z" fill="#33568E"/>
<path d="M347.551 356.871H259.708V359.875H347.551V356.871Z" fill="#7995D7"/>
<path d="M321.452 367.949H259.708V370.954H321.452V367.949Z" fill="#7995D7"/>
<path d="M235.569 370.584L224.856 363.397C224.166 362.933 223.983 361.997 224.447 361.31C224.91 360.623 225.845 360.437 226.535 360.9L234.773 366.429L246.978 348.656C247.448 347.972 248.385 347.798 249.07 348.268C249.755 348.738 249.93 349.671 249.46 350.355L235.569 370.584Z" fill="#FFCA32"/>
<path d="M315.694 156.757V214.27C315.694 221.887 309.51 228.059 301.886 228.059H140.332C132.708 228.059 126.523 221.887 126.523 214.27V156.757C126.523 149.141 132.708 142.969 140.332 142.969H301.886C309.51 142.969 315.694 149.141 315.694 156.757Z" fill="white"/>
<path d="M315.694 156.757V165.667H126.523V156.757C126.523 149.141 132.708 142.969 140.332 142.969H301.886C309.51 142.969 315.694 149.141 315.694 156.757Z" fill="#33568E"/>
<path d="M195.912 177.328H168.695V178.755H195.912V177.328Z" fill="#33568E"/>
<path d="M210.409 182.867H168.695V184.294H210.409V182.867Z" fill="#7995D7"/>
<path d="M210.409 188.41H168.695V189.837H210.409V188.41Z" fill="#7995D7"/>
<path d="M157.132 190.652C153.189 190.652 149.982 187.448 149.982 183.511C149.982 179.574 153.189 176.37 157.132 176.37C161.075 176.37 164.283 179.574 164.283 183.511C164.283 187.448 161.075 190.652 157.132 190.652ZM157.132 175.109C152.486 175.109 148.719 178.871 148.719 183.511C148.719 188.151 152.486 191.913 157.132 191.913C161.779 191.913 165.546 188.151 165.546 183.511C165.546 178.871 161.779 175.109 157.132 175.109Z" fill="#33568E"/>
<path d="M162.587 184.776C161.75 187.308 159.016 188.682 156.48 187.846C153.945 187.01 152.569 184.28 153.406 181.748C154.244 179.217 156.978 177.842 159.513 178.678C162.048 179.515 163.424 182.245 162.587 184.776Z" fill="#FFCA32"/>
<path d="M195.912 201.707H168.695V203.134H195.912V201.707Z" fill="#33568E"/>
<path d="M210.409 207.25H168.695V208.677H210.409V207.25Z" fill="#7995D7"/>
<path d="M210.409 211.684H168.695V213.109H210.409V211.684Z" fill="#7995D7"/>
<path d="M157.132 215.035C153.189 215.035 149.982 211.831 149.982 207.894C149.982 203.956 153.189 200.753 157.132 200.753C161.075 200.753 164.283 203.956 164.283 207.894C164.283 211.831 161.075 215.035 157.132 215.035ZM157.132 199.492C152.486 199.492 148.719 203.254 148.719 207.894C148.719 212.535 152.486 216.296 157.132 216.296C161.779 216.296 165.546 212.535 165.546 207.894C165.546 203.254 161.779 199.492 157.132 199.492Z" fill="#33568E"/>
<path d="M280.264 177.328H253.047V178.755H280.264V177.328Z" fill="#33568E"/>
<path d="M294.761 182.867H253.047V184.294H294.761V182.867Z" fill="#7995D7"/>
<path d="M294.761 188.41H253.047V189.837H294.761V188.41Z" fill="#7995D7"/>
<path d="M244.716 184.776C243.878 187.308 241.145 188.682 238.61 187.846C236.074 187.01 234.698 184.28 235.535 181.748C236.373 179.217 239.107 177.842 241.642 178.678C244.177 179.515 245.553 182.245 244.716 184.776Z" fill="#FFCA32"/>
<path d="M280.264 201.707H253.047V203.134H280.264V201.707Z" fill="#33568E"/>
<path d="M294.761 207.25H253.047V208.677H294.761V207.25Z" fill="#7995D7"/>
<path d="M294.761 211.684H253.047V213.109H294.761V211.684Z" fill="#7995D7"/>
<path d="M241.48 176.37C245.423 176.37 248.631 179.574 248.631 183.511C248.631 187.448 245.423 190.652 241.48 190.652C237.537 190.652 234.329 187.448 234.329 183.511C234.329 179.574 237.537 176.37 241.48 176.37ZM241.48 191.913C246.127 191.913 249.894 188.151 249.894 183.511C249.894 178.871 246.127 175.109 241.48 175.109C236.834 175.109 233.066 178.871 233.066 183.511C233.066 188.151 236.834 191.913 241.48 191.913Z" fill="#33568E"/>
<path d="M241.48 215.035C237.537 215.035 234.329 211.831 234.329 207.894C234.329 203.956 237.537 200.753 241.48 200.753C245.423 200.753 248.631 203.956 248.631 207.894C248.631 211.831 245.423 215.035 241.48 215.035ZM241.48 199.492C236.834 199.492 233.066 203.254 233.066 207.894C233.066 212.535 236.834 216.296 241.48 216.296C246.127 216.296 249.894 212.535 249.894 207.894C249.894 203.254 246.127 199.492 241.48 199.492Z" fill="#33568E"/>
<path d="M244.716 209.163C243.878 211.695 241.145 213.068 238.61 212.233C236.074 211.397 234.698 208.667 235.535 206.135C236.373 203.603 239.107 202.229 241.642 203.065C244.177 203.901 245.553 206.631 244.716 209.163Z" fill="#FFCA32"/>
<path d="M437.988 204.414V261.927C437.988 269.544 431.803 275.716 424.179 275.716H329.008C321.384 275.716 315.199 269.544 315.199 261.927V204.414C315.199 196.798 321.384 190.625 329.008 190.625H424.179C431.803 190.625 437.988 196.798 437.988 204.414Z" fill="white"/>
<path d="M437.988 204.414V213.323H315.199V204.414C315.199 196.798 321.384 190.625 329.008 190.625H424.179C431.803 190.625 437.988 196.798 437.988 204.414Z" fill="#33568E"/>
<path d="M338.825 237.038H352.791V223.088H338.825V237.038ZM354.221 238.466H337.395V221.66H354.221V238.466Z" fill="#33568E"/>
<path d="M345.018 235.705L339.932 232.288C339.603 232.07 339.515 231.626 339.736 231.298C339.957 230.973 340.399 230.885 340.727 231.106L344.639 233.732L350.435 225.289C350.659 224.965 351.104 224.883 351.429 225.106C351.754 225.327 351.836 225.772 351.615 226.097L345.018 235.705Z" fill="#FFCA32"/>
<path d="M338.825 261.421H352.791V247.471H338.825V261.421ZM354.221 262.846H337.395V246.043H354.221V262.846Z" fill="#33568E"/>
<path d="M403.847 237.038H389.877V223.088H403.847V237.038ZM388.447 221.66V238.466H405.274V221.66H388.447Z" fill="#33568E"/>
<path d="M389.877 261.421H403.847V247.471H389.877V261.421ZM405.274 262.846H388.447V246.043H405.274V262.846Z" fill="#33568E"/>
<path d="M410.221 234.072C410.221 234.939 410.672 235.371 411.569 235.371H415.603V237.105H411.569C409.476 237.105 408.428 236.093 408.428 234.072V228.01C408.428 225.989 409.476 224.98 411.569 224.98H415.603V226.711H411.569C410.672 226.711 410.221 227.143 410.221 228.01V234.072Z" fill="#33568E"/>
<path d="M414.707 251.287C414.707 250.42 414.259 249.988 413.362 249.988H410.221V258.648H413.362C414.259 258.648 414.707 258.216 414.707 257.349V251.287ZM413.362 248.254C415.455 248.254 416.5 249.266 416.5 251.287V257.349C416.5 259.37 415.455 260.381 413.362 260.381H408.428V248.254H413.362Z" fill="#33568E"/>
<path d="M360.547 231.671H364.064L362.305 225.609L360.547 231.671ZM367.236 236.003H365.443L364.61 233.402H359.998L359.164 236.003H357.371L361.137 223.875H363.47L367.236 236.003Z" fill="#33568E"/>
<path d="M359.164 255.183V258.648H362.302C363.202 258.648 363.65 258.216 363.65 257.349V256.482C363.65 255.615 363.202 255.183 362.302 255.183H359.164ZM359.164 249.988V253.452H362.302C363.202 253.452 363.65 253.017 363.65 252.15V251.287C363.65 250.42 363.202 249.988 362.302 249.988H359.164ZM362.302 248.254C364.395 248.254 365.443 249.266 365.443 251.287V252.15C365.443 253.421 364.935 254.143 363.919 254.316C364.935 254.489 365.443 255.211 365.443 256.482V257.349C365.443 259.37 364.395 260.378 362.302 260.378H357.371V248.254H362.302Z" fill="#33568E"/>
<path d="M395.606 146.785V229.033C395.606 236.65 389.421 242.822 381.798 242.822H220.241C212.617 242.822 206.433 236.65 206.433 229.033V146.785C206.433 139.169 212.617 132.996 220.241 132.996H381.798C389.421 132.996 395.606 139.169 395.606 146.785Z" fill="white"/>
<path d="M395.606 146.785V155.694H206.433V146.785C206.433 139.169 212.617 132.996 220.241 132.996H381.798C389.421 132.996 395.606 139.169 395.606 146.785Z" fill="#33568E"/>
<path d="M232.277 180.513H246.246V166.564H232.277V180.513ZM247.675 181.94H230.848V165.137H247.675V181.94Z" fill="#33568E"/>
<path d="M278.041 167.352H250.824V168.779H278.041V167.352Z" fill="#33568E"/>
<path d="M292.539 172.895H250.824V174.322H292.539V172.895Z" fill="#7995D7"/>
<path d="M292.539 177.328H250.824V178.755H292.539V177.328Z" fill="#7995D7"/>
<path d="M232.277 203.786H246.246V189.837H232.277V203.786ZM247.675 205.213H230.848V188.41H247.675V205.213Z" fill="#33568E"/>
<path d="M278.041 191.734H250.824V193.161H278.041V191.734Z" fill="#33568E"/>
<path d="M292.539 196.168H250.824V197.595H292.539V196.168Z" fill="#7995D7"/>
<path d="M292.539 201.707H250.824V203.134H292.539V201.707Z" fill="#7995D7"/>
<path d="M238.47 202.458L233.382 199.044C233.055 198.824 232.968 198.38 233.188 198.053C233.408 197.726 233.852 197.639 234.18 197.859L238.092 200.485L243.888 192.044C244.111 191.719 244.556 191.637 244.881 191.859C245.207 192.083 245.289 192.526 245.066 192.851L238.47 202.458Z" fill="#FFCA32"/>
<path d="M232.277 228.168H246.246V214.221H232.277V228.168ZM247.675 229.596H230.848V212.793H247.675V229.596Z" fill="#33568E"/>
<path d="M278.041 215.008H250.824V216.433H278.041V215.008Z" fill="#33568E"/>
<path d="M292.539 220.551H250.824V221.975H292.539V220.551Z" fill="#7995D7"/>
<path d="M292.539 226.094H250.824V227.522H292.539V226.094Z" fill="#7995D7"/>
<path d="M314.407 180.513H328.377V166.564H314.407V180.513ZM329.807 181.94H312.98V165.137H329.807V181.94Z" fill="#33568E"/>
<path d="M360.172 167.352H332.956V168.779H360.172V167.352Z" fill="#33568E"/>
<path d="M374.668 172.895H332.956V174.322H374.668V172.895Z" fill="#7995D7"/>
<path d="M374.668 177.328H332.956V178.755H374.668V177.328Z" fill="#7995D7"/>
<path d="M320.603 178.075L315.514 174.661C315.189 174.441 315.1 173.997 315.321 173.671C315.539 173.343 315.984 173.256 316.312 173.476L320.224 176.102L326.02 167.662C326.244 167.337 326.689 167.254 327.014 167.477C327.34 167.699 327.422 168.144 327.197 168.469L320.603 178.075Z" fill="#FFCA32"/>
<path d="M314.407 203.786H328.377V189.837H314.407V203.786ZM329.807 205.213H312.98V188.41H329.807V205.213Z" fill="#33568E"/>
<path d="M360.172 191.734H332.956V193.161H360.172V191.734Z" fill="#33568E"/>
<path d="M374.668 196.168H332.956V197.595H374.668V196.168Z" fill="#7995D7"/>
<path d="M374.668 201.707H332.956V203.134H374.668V201.707Z" fill="#7995D7"/>
<path d="M314.407 228.168H328.377V214.221H314.407V228.168ZM329.807 229.596H312.98V212.793H329.807V229.596Z" fill="#33568E"/>
<path d="M360.172 215.008H332.956V216.433H360.172V215.008Z" fill="#33568E"/>
<path d="M374.668 220.551H332.956V221.975H374.668V220.551Z" fill="#7995D7"/>
<path d="M374.668 226.094H332.956V227.522H374.668V226.094Z" fill="#7995D7"/>
<path d="M320.603 226.84L315.514 223.426C315.189 223.205 315.1 222.763 315.321 222.436C315.539 222.108 315.984 222.023 316.312 222.24L320.224 224.866L326.02 216.427C326.244 216.102 326.689 216.02 327.014 216.241C327.34 216.465 327.422 216.909 327.197 217.234L320.603 226.84Z" fill="#FFCA32"/>
<path d="M43.2422 386.623C40.6099 389.17 38.9841 392.689 38.9841 396.572C38.9841 404.343 45.4899 410.645 53.516 410.645H178.942V414.11H53.0747C43.3902 414.11 35.5146 406.241 35.5146 396.572C35.5146 391.888 37.3397 387.484 40.6585 384.174C43.9742 380.86 48.3832 379.035 53.0747 379.035H178.942V382.5H53.516C49.5055 382.5 45.8693 384.076 43.2422 386.623Z" fill="#050F64"/>
<path d="M70.9609 322.516C67.9148 322.516 65.1559 323.783 63.1601 325.832C61.1634 327.878 59.9287 330.709 59.9287 333.836C59.9287 340.091 64.8677 345.157 70.9609 345.157H173.057V322.516H70.9609Z" fill="white"/>
<path d="M56.0251 355.056C53.7265 357.272 52.3028 360.336 52.3028 363.716C52.3028 370.481 57.9925 375.966 65.0097 375.966H177.934V379.431H64.568C55.8906 379.431 48.833 372.382 48.833 363.716C48.833 359.52 50.4699 355.573 53.4412 352.607C56.4128 349.64 60.364 348.004 64.568 348.004H177.934V351.468H65.0097C61.5023 351.468 58.3236 352.84 56.0251 355.056Z" fill="#FFCA32"/>
<path d="M72.9646 322.655H179.532V319.188H72.5223C68.5664 319.188 64.8476 320.726 62.0521 323.519C59.2544 326.312 57.7139 330.026 57.7139 333.976C57.7139 342.131 64.357 348.764 72.5223 348.764H179.532V345.299H72.9646C66.4588 345.299 61.1849 340.23 61.1849 333.976C61.1849 330.848 62.5032 328.018 64.6354 325.972C66.7666 323.923 69.7121 322.655 72.9646 322.655Z" fill="#FF654F"/>
<path d="M54.489 383.473C50.4765 383.473 46.8429 385.046 44.2138 387.593C41.5835 390.14 39.957 393.655 39.957 397.542C39.957 405.313 46.4631 411.615 54.489 411.615H174.695V383.473H54.489Z" fill="white"/>
<path d="M65.9787 351.328C62.4701 351.328 59.2927 352.699 56.9935 354.916C54.6937 357.132 53.2715 360.193 53.2715 363.575C53.2715 370.341 58.9606 375.826 65.9787 375.826H173.682V351.328H65.9787Z" fill="white"/>
<path d="M162.059 364.643L176.876 364.747C176.868 364.239 176.772 363.751 176.469 363.357C176.121 362.899 175.553 362.66 174.989 362.556C174.424 362.455 173.843 362.477 173.27 362.445C171.865 362.367 170.479 361.957 169.258 361.254C168.621 360.891 168.025 360.447 167.335 360.191L163.296 360.267C162.74 360.86 162.379 361.635 162.202 362.436C162.041 363.158 162.019 363.902 162.059 364.643Z" fill="#050F64"/>
<path d="M144.299 364.621L159.115 364.788C159.11 364.28 159.016 363.792 158.714 363.394C158.368 362.937 157.801 362.694 157.238 362.59C156.673 362.486 156.092 362.505 155.519 362.471C154.114 362.386 152.73 361.969 151.513 361.263C150.877 360.898 150.282 360.45 149.594 360.191L145.555 360.251C144.996 360.841 144.632 361.613 144.452 362.414C144.287 363.136 144.262 363.88 144.299 364.621Z" fill="#050F64"/>
<path d="M126.61 310.883C127.22 306.952 130.908 304.256 134.846 304.868H134.855L165.162 307.919C165.19 307.923 165.218 307.923 165.247 307.926C165.322 307.932 165.396 307.941 165.47 307.951L165.591 307.964L165.591 307.97C168.252 308.376 170.219 310.656 170.254 313.323L170.253 313.332C170.255 313.502 170.248 313.676 170.235 313.849L170.23 313.89H170.233L167.231 359.96L162.783 359.86L159.658 318.922L134.938 319.092C134.197 319.218 133.425 319.23 132.642 319.108H132.634C128.696 318.499 125.999 314.817 126.61 310.883Z" fill="#050F64"/>
<path d="M165.969 299.529L163.241 298.129L162.042 301.108L164.964 302.025C165.705 302.278 166.491 301.956 166.758 301.297C167.024 300.635 166.678 299.86 165.969 299.529Z" fill="#EA8096"/>
<path d="M161.659 301.421L163.181 297.991C159.468 296.068 155.799 294.095 152.509 291.813C150.868 290.671 149.332 289.445 147.961 288.118C146.592 286.787 145.382 285.359 144.371 283.805C142.339 280.71 141.041 277.154 140.16 273.377C139.728 271.485 139.401 269.54 139.134 267.57L138.95 266.088L138.796 264.591L138.721 263.844L138.661 263.09L138.542 261.58C138.536 261.508 138.529 261.432 138.52 261.36C138.442 260.72 138.232 260.127 137.918 259.597C137.601 259.068 137.201 258.595 136.713 258.21C135.741 257.444 134.463 257.019 133.107 257.148H133.095C131.703 257.283 130.512 257.986 129.726 259.027C128.929 260.064 128.575 261.442 128.817 262.863L129.142 264.477L129.305 265.284L129.486 266.091C129.608 266.631 129.724 267.166 129.851 267.706L130.253 269.32C130.813 271.473 131.446 273.623 132.214 275.76C132.995 277.894 133.907 280.016 135.018 282.068C136.127 284.117 137.441 286.094 138.965 287.897C140.485 289.704 142.222 291.305 144.054 292.698C145.889 294.089 147.819 295.271 149.773 296.308C151.729 297.345 153.711 298.244 155.695 299.079C157.681 299.911 159.67 300.677 161.659 301.421Z" fill="white"/>
<path d="M155.588 293.879C158.077 295.401 160.71 296.804 163.367 298.179L162.663 299.764C162.707 299.815 162.751 299.868 162.798 299.922L163.609 298.093L163.454 298.015C161.004 296.744 158.285 295.307 155.677 293.711L155.588 293.879ZM154.125 292.955L154.175 292.766C153.711 292.463 153.252 292.157 152.802 291.845C151.053 290.628 149.573 289.427 148.278 288.169C146.877 286.808 145.678 285.37 144.714 283.892C144.215 283.132 143.751 282.328 143.321 281.48L143.132 281.521C143.562 282.375 144.035 283.198 144.557 283.996C145.569 285.543 146.779 286.975 148.148 288.305C149.518 289.632 151.054 290.858 152.695 292C153.164 292.324 153.641 292.643 154.125 292.955ZM145.369 293.935C146.735 294.884 148.22 295.783 149.871 296.659C151.627 297.592 153.513 298.475 155.809 299.44C156.62 299.777 157.455 300.117 158.361 300.474L158.298 300.25C157.492 299.931 156.687 299.603 155.882 299.266C153.897 298.431 151.915 297.532 149.96 296.495C148.434 295.685 146.922 294.786 145.46 293.768C145.43 293.825 145.399 293.879 145.369 293.935ZM136.419 284.683L136.564 284.563C136.081 283.806 135.628 283.034 135.205 282.252C134.094 280.203 133.182 278.082 132.401 275.947C131.632 273.81 130.999 271.66 130.439 269.507L130.037 267.893C130.034 267.88 130.032 267.871 130.028 267.858L129.854 267.934H129.855L130.257 269.551C130.883 271.956 131.526 274.068 132.225 276.01C133.082 278.359 134.003 280.43 135.04 282.344C135.476 283.148 135.936 283.929 136.419 284.683ZM128.948 263.722L129.15 263.779L129.004 263.051C128.762 261.629 129.116 260.251 129.912 259.214C130.699 258.174 131.889 257.471 133.281 257.335H133.294C134.335 257.234 135.33 257.464 136.177 257.921L136.292 257.77C135.378 257.266 134.333 257.048 133.276 257.149H133.262C132.568 257.218 131.911 257.42 131.311 257.754C130.705 258.092 130.184 258.546 129.763 259.104C128.92 260.198 128.575 261.651 128.818 263.082L128.948 263.722ZM140.294 273.331L140.471 273.261C140.195 272.029 139.95 270.705 139.728 269.261L139.544 269.305C139.754 270.667 139.999 272.01 140.294 273.331ZM139.017 265.125L139.198 265.043L139.169 264.759L139.093 264.012L138.915 261.752C138.909 261.679 138.902 261.6 138.892 261.525C138.814 260.875 138.603 260.257 138.266 259.687C138.142 259.482 138.009 259.286 137.865 259.104L137.749 259.261C137.877 259.428 137.996 259.602 138.105 259.785C138.419 260.314 138.629 260.907 138.706 261.547C138.716 261.619 138.722 261.695 138.728 261.767L138.848 263.277L138.908 264.031L138.982 264.778L139.017 265.125Z" fill="#155BCC"/>
<path d="M109.344 312.449C119.772 315.463 126.39 311.472 137.887 305.391C137.887 305.391 136.522 268.229 136.279 266.886C135.431 262.202 132.422 258.353 128.176 256.786C127.763 256.631 127.341 256.499 126.91 256.392C125.437 256.02 123.87 255.91 122.264 256.111C121.841 256.162 121.424 256.231 121.014 256.319C120.122 256.502 119.263 256.767 118.438 257.098C113.786 258.958 110.308 262.993 109.168 267.88C108.893 269.049 108.755 270.272 108.767 271.524L109.344 312.449Z" fill="white"/>
<path d="M113.96 260.041C111.607 262.159 109.916 264.974 109.177 268.139C108.893 269.35 108.757 270.605 108.767 271.866L108.917 282.511L109.258 282.584L109.108 271.859C109.098 270.611 109.234 269.388 109.511 268.218C110.23 265.126 111.887 262.377 114.185 260.302L113.96 260.041ZM137.105 269.337H136.764C136.849 270.951 136.958 273.366 137.081 276.197L137.418 276.257C137.299 273.41 137.19 270.973 137.105 269.337ZM137.814 285.875H137.476C137.65 290.399 137.827 294.964 137.964 298.576L138.301 298.431C138.162 294.838 137.991 290.339 137.814 285.875ZM109.136 298.069L109.306 310.215L109.647 310.244L109.476 298.069H109.136ZM137.606 306.057C127.537 311.401 121.202 315.013 112.487 313.447L112.388 313.774C113.793 314.03 115.157 314.156 116.507 314.156C123.091 314.156 128.765 311.142 136.617 306.971C136.869 306.839 137.272 306.618 137.65 306.42L137.606 306.057ZM128.635 256.803C128.209 256.649 127.772 256.51 127.336 256.403C126.31 256.141 125.253 256.012 124.189 256.012C123.65 256.012 123.105 256.043 122.563 256.109C122.515 256.116 122.47 256.119 122.423 256.128L122.607 256.45C124.213 256.248 125.778 256.358 127.251 256.734C127.684 256.838 128.106 256.97 128.519 257.125C132.403 258.562 135.25 261.901 136.358 266.049L136.699 265.992C135.556 261.658 132.611 258.272 128.635 256.803Z" fill="#33568E"/>
<path d="M124.305 260.887C124.869 260.742 125.433 260.597 125.997 260.449C129.223 272.189 130.803 284.644 130.496 297.428C129.629 298.679 128.743 299.909 127.841 301.116C127.113 299.827 126.366 298.559 125.601 297.314C126.948 285.007 126.475 272.738 124.305 260.887Z" fill="#FF654F"/>
<path d="M128.728 249.774L128.085 258.935C125.994 260.089 123.994 259.953 122.085 258.525L122.728 249.367L128.728 249.774Z" fill="#F4BCC7"/>
<path d="M128.258 249.774L127.967 253.916C127.534 254.052 127.076 254.124 126.602 254.134C126.45 254.134 126.299 254.131 126.148 254.121C124.496 254.008 122.999 253.141 122.085 251.823L122.258 249.367L128.258 249.774Z" fill="#EA8096"/>
<path d="M130.67 243.936L130.087 249.298C129.854 251.438 128.051 253.075 125.885 253.106H125.885C123.917 253.138 122.118 251.971 121.386 250.155C120.902 248.954 120.484 247.567 120.094 246.111C119.469 243.784 120.146 241.262 121.938 239.639C123.466 238.255 125.288 237.914 127.426 238.699C129.585 239.494 130.917 241.656 130.67 243.936Z" fill="#F4BCC7"/>
<path d="M130.962 241.294C130.962 241.294 131.942 243.116 131.701 246.413C131.701 246.413 132.509 243.119 131.976 240.496L130.962 241.294Z" fill="#050F64"/>
<path d="M118.82 245.541C118.82 245.541 115.992 241.153 119.102 237.865C122.454 234.324 124.614 234.74 126.931 235.406C129.862 236.25 131.431 237.294 132.562 237.07C133.166 236.954 133.707 236.452 133.799 236.796C133.891 237.14 134.014 239.16 132.289 240.639C130.565 242.117 128.353 241.856 126.198 240.699C124.042 239.542 123.012 239.665 122.078 240.986C121.087 242.388 122.365 244.992 122.365 244.992L121.692 245.222C121.692 245.222 119.187 243.716 118.82 245.541Z" fill="#050F64"/>
<path d="M122.142 245.974C122.065 247.074 120.996 247.897 119.755 247.811C118.514 247.726 117.57 246.768 117.647 245.668C117.724 244.571 118.793 243.748 120.034 243.83C121.276 243.915 122.219 244.876 122.142 245.974Z" fill="#F4BCC7"/>
<path d="M117.643 256.781L122.273 263.887L123.788 260.397L127.293 263.253L127.381 256.469C126.968 256.314 126.62 256.201 126.189 256.094L123.669 258.839L120.166 256.012C119.275 256.198 118.467 256.45 117.643 256.781Z" fill="#155BCC"/>
<path d="M108.881 310.721C109.582 306.802 113.331 304.195 117.254 304.895C117.257 304.895 117.259 304.895 117.262 304.898L147.411 308.637C147.426 308.64 147.44 308.64 147.454 308.64C147.584 308.653 147.711 308.671 147.838 308.69L147.919 308.7V308.703C150.518 309.166 152.423 311.417 152.455 314.043L152.454 314.053C152.456 314.223 152.448 314.396 152.434 314.57L152.431 314.611H152.433L149.921 359.874L144.795 359.697L141.837 319.519L117.017 319.119C116.273 319.226 115.501 319.22 114.721 319.081H114.713C110.79 318.381 108.179 314.636 108.881 310.721Z" fill="#050F64"/>
<path d="M153.341 314.716L152.862 323.348H153.293L153.775 314.672C153.781 314.584 153.786 314.499 153.79 314.417L153.799 314.237H153.794V314.146C153.762 311.434 151.888 309.105 149.284 308.465L149.286 308.433L148.798 308.367C148.662 308.345 148.528 308.329 148.401 308.317L148.366 308.314L146.687 308.105L146.596 308.531L148.319 308.742C148.334 308.745 148.347 308.745 148.362 308.749C148.491 308.758 148.619 308.774 148.746 308.796L148.826 308.805V308.808C151.426 309.272 153.33 311.523 153.363 314.152V314.158C153.363 314.328 153.356 314.502 153.343 314.675L153.339 314.716H153.341ZM124.305 319.328V319.76L142.342 320.05L145.3 360.219L151.236 360.424L152.056 345.648L151.629 345.579L150.83 359.979L145.702 359.803L142.744 319.625L124.305 319.328Z" fill="#155BCC"/>
<path d="M150.333 303.812L147.532 302.566L146.5 305.609L149.469 306.362C150.222 306.57 150.99 306.208 151.219 305.533C151.448 304.858 151.059 304.102 150.333 303.812Z" fill="#F4BCC7"/>
<path d="M146.054 306.451L147.382 302.942C143.568 301.227 139.795 299.462 136.384 297.366C134.681 296.316 133.08 295.181 131.638 293.93C130.196 292.675 128.908 291.316 127.812 289.822C125.611 286.846 124.117 283.366 123.028 279.646C122.491 277.779 122.056 275.853 121.681 273.905L121.414 272.433L121.177 270.948L121.06 270.204L120.958 269.454L120.755 267.956C120.746 267.884 120.734 267.808 120.722 267.739C120.609 267.102 120.366 266.522 120.023 266.008C119.677 265.497 119.251 265.047 118.741 264.693C117.729 263.981 116.429 263.628 115.083 263.83L115.07 263.833C113.688 264.044 112.538 264.813 111.811 265.895C111.073 266.973 110.797 268.369 111.117 269.775L111.531 271.37L111.739 272.165L111.965 272.962C112.116 273.492 112.262 274.022 112.419 274.551L112.91 276.143C113.589 278.262 114.341 280.374 115.227 282.464C116.125 284.554 117.154 286.619 118.378 288.605C119.599 290.591 121.021 292.492 122.642 294.207C124.26 295.925 126.084 297.432 127.991 298.718C129.9 300.007 131.893 301.079 133.902 302.006C135.912 302.933 137.941 303.721 139.969 304.443C141.998 305.165 144.027 305.821 146.054 306.451Z" fill="white"/>
<path d="M139.562 299.269C142.131 300.65 144.839 301.905 147.568 303.131L146.954 304.755C147 304.802 147.048 304.852 147.097 304.903L147.806 303.033L147.645 302.961C145.129 301.829 142.335 300.546 139.642 299.099L139.562 299.269ZM138.049 298.431L138.09 298.235C137.609 297.961 137.134 297.68 136.668 297.394C134.853 296.278 133.308 295.158 131.946 293.976C130.471 292.693 129.193 291.325 128.149 289.9C127.609 289.169 127.101 288.393 126.624 287.57L126.438 287.624C126.915 288.45 127.433 289.248 127.998 290.014C129.094 291.505 130.382 292.863 131.823 294.118C133.265 295.367 134.867 296.505 136.569 297.554C137.056 297.854 137.549 298.144 138.049 298.431ZM129.362 299.893C130.779 300.767 132.312 301.58 134.009 302.365C135.814 303.197 137.746 303.973 140.092 304.808C140.921 305.101 141.774 305.395 142.698 305.7L142.622 305.48C141.8 305.205 140.978 304.925 140.156 304.632C138.127 303.91 136.098 303.122 134.088 302.195C132.52 301.47 130.96 300.66 129.443 299.723C129.417 299.78 129.389 299.837 129.362 299.893ZM119.91 291.152L120.049 291.022C119.524 290.297 119.029 289.55 118.563 288.794C117.34 286.808 116.312 284.743 115.413 282.653C114.527 280.563 113.775 278.45 113.096 276.332L112.604 274.74C112.601 274.73 112.598 274.718 112.594 274.708L112.424 274.79C112.425 274.794 112.425 274.794 112.425 274.794L112.917 276.386C113.675 278.753 114.435 280.824 115.241 282.725C116.228 285.023 117.262 287.038 118.404 288.891C118.884 289.673 119.386 290.427 119.91 291.152ZM111.285 270.639L111.49 270.683L111.303 269.964C110.982 268.558 111.259 267.161 111.997 266.083C112.724 265.002 113.873 264.233 115.256 264.022L115.269 264.018C116.303 263.864 117.309 264.034 118.18 264.447L118.287 264.289C117.345 263.836 116.29 263.675 115.24 263.832L115.227 263.836C114.538 263.943 113.893 264.182 113.312 264.548C112.726 264.917 112.231 265.399 111.841 265.979C111.061 267.12 110.797 268.589 111.12 270.005L111.285 270.639ZM123.149 279.604L123.321 279.522C122.977 278.305 122.659 277 122.356 275.569L122.175 275.626C122.461 276.972 122.78 278.302 123.149 279.604ZM121.417 271.48L121.592 271.389L121.548 271.105L121.431 270.364L121.127 268.12C121.117 268.044 121.105 267.968 121.091 267.893C120.977 267.25 120.732 266.644 120.364 266.093C120.229 265.894 120.085 265.708 119.931 265.535L119.824 265.695C119.962 265.856 120.089 266.023 120.209 266.197C120.552 266.711 120.794 267.291 120.907 267.924C120.921 267.997 120.931 268.072 120.941 268.145L121.145 269.642L121.246 270.393L121.363 271.137L121.417 271.48Z" fill="#155BCC"/>
<path d="M172.059 309.228L128.742 307.337L128.806 305.887L172.123 307.778L172.059 309.228Z" fill="#155BCC"/>
<path d="M173.404 308.742L146.5 307.567L155.773 285.938L182.678 287.113L173.404 308.742Z" fill="#155BCC"/>
<path d="M165.44 299.302C164.795 301.534 163.601 303.148 162.773 302.908C161.946 302.668 161.799 300.667 162.444 298.435C163.09 296.206 164.285 294.589 165.112 294.828C165.939 295.068 166.086 297.07 165.44 299.302Z" fill="white"/>
<path d="M532.555 344.588C532.555 383.102 501.289 414.324 462.721 414.324C424.153 414.324 392.89 383.102 392.89 344.588C392.89 306.078 424.153 274.855 462.721 274.855C501.289 274.855 532.555 306.078 532.555 344.588Z" fill="#33568E"/>
<path d="M520.251 345.096C520.251 376.545 494.721 402.039 463.228 402.039C431.734 402.039 406.204 376.545 406.204 345.096C406.204 313.65 431.734 288.156 463.228 288.156C494.721 288.156 520.251 313.65 520.251 345.096Z" fill="white"/>
<path d="M463.902 291.48H461.699V300.56H463.902V291.48Z" fill="#050F64"/>
<path d="M461.847 347.034C461.578 347.034 461.304 346.987 461.032 346.889C459.804 346.438 459.176 345.083 459.624 343.856L475.813 299.681C476.264 298.454 477.622 297.824 478.85 298.275C480.078 298.722 480.709 300.081 480.261 301.307L464.072 345.48C463.719 346.438 462.813 347.034 461.847 347.034Z" fill="#FFCA32"/>
<path d="M494.281 369.3C493.824 369.3 493.356 369.165 492.949 368.887L460.512 346.779C459.432 346.041 459.154 344.572 459.893 343.494C460.629 342.416 462.103 342.135 463.183 342.873L495.62 364.981C496.7 365.719 496.977 367.188 496.239 368.266C495.781 368.938 495.039 369.3 494.281 369.3Z" fill="#FFCA32"/>
<path d="M469.658 345.325C469.658 348.745 466.883 351.516 463.458 351.516C460.036 351.516 457.261 348.745 457.261 345.325C457.261 341.908 460.036 339.137 463.458 339.137C466.883 339.137 469.658 341.908 469.658 345.325Z" fill="#DCAB28"/>
<path d="M417.517 343.57H408.428V345.774H417.517V343.57Z" fill="#050F64"/>
<path d="M463.902 390.117H461.699V399.196H463.902V390.117Z" fill="#050F64"/>
<path d="M517.405 343.57H508.313V345.774H517.405V343.57Z" fill="#050F64"/>
<path d="M435.636 298.282C435.09 298.595 434.903 299.288 435.219 299.83L436.769 302.513C437.081 303.055 437.776 303.241 438.319 302.926C438.865 302.614 439.048 301.92 438.735 301.378L437.185 298.695C436.873 298.153 436.179 297.967 435.636 298.282Z" fill="#E5E6EB"/>
<path d="M415.236 317.536C414.924 318.078 415.11 318.772 415.653 319.087L418.336 320.632C418.879 320.947 419.576 320.761 419.889 320.219C420.201 319.674 420.015 318.98 419.472 318.668L416.789 317.12C416.247 316.808 415.552 316.994 415.236 317.536Z" fill="#E5E6EB"/>
<path d="M415.236 372.312C415.552 372.854 416.247 373.04 416.789 372.728L419.472 371.18C420.015 370.868 420.201 370.174 419.889 369.629C419.576 369.087 418.879 368.901 418.336 369.216L415.653 370.761C415.11 371.076 414.924 371.77 415.236 372.312Z" fill="#E5E6EB"/>
<path d="M435.636 391.59C436.179 391.905 436.873 391.719 437.185 391.177L438.735 388.494C439.048 387.952 438.865 387.259 438.319 386.947C437.776 386.631 437.081 386.817 436.769 387.36L435.219 390.042C434.903 390.584 435.09 391.278 435.636 391.59Z" fill="#E5E6EB"/>
<path d="M489.371 391.59C489.914 391.278 490.1 390.584 489.788 390.042L488.238 387.36C487.923 386.817 487.228 386.631 486.685 386.947C486.142 387.259 485.956 387.952 486.269 388.494L487.818 391.177C488.134 391.719 488.828 391.905 489.371 391.59Z" fill="#E5E6EB"/>
<path d="M508.679 372.312C508.991 371.77 508.805 371.076 508.262 370.761L505.579 369.216C505.037 368.901 504.342 369.087 504.027 369.629C503.714 370.174 503.9 370.868 504.443 371.18L507.126 372.728C507.669 373.04 508.366 372.854 508.679 372.312Z" fill="#E5E6EB"/>
<path d="M508.679 317.536C508.366 316.994 507.669 316.808 507.126 317.12L504.443 318.668C503.9 318.98 503.714 319.674 504.027 320.219C504.342 320.761 505.037 320.947 505.579 320.632L508.262 319.087C508.805 318.772 508.991 318.078 508.679 317.536Z" fill="#E5E6EB"/>
<path d="M489.371 298.282C488.828 297.967 488.134 298.153 487.818 298.695L486.269 301.378C485.956 301.92 486.142 302.614 486.685 302.926C487.228 303.241 487.923 303.055 488.238 302.513L489.788 299.83C490.1 299.288 489.914 298.595 489.371 298.282Z" fill="#E5E6EB"/>
<path d="M156.083 88.4889C156.484 87.5633 156.707 86.5432 156.707 85.4707C156.707 81.2688 153.296 77.8622 149.088 77.8622C147.972 77.8622 146.914 78.1037 145.959 78.5337C146.202 77.6907 146.335 76.8014 146.335 75.8803C146.335 70.5838 142.035 66.2901 136.731 66.2901C135.079 66.2901 133.524 66.7072 132.166 67.4408C130.426 61.7626 125.137 57.6328 118.881 57.6328C111.207 57.6328 104.987 63.8444 104.987 71.5068C104.987 71.8845 105.006 72.2578 105.036 72.6276C104.697 72.5815 104.352 72.556 104.001 72.556C99.7925 72.556 96.3815 75.9626 96.3815 80.1645C96.3815 80.6238 96.4244 81.073 96.5027 81.51C96.462 81.5093 96.4222 81.5071 96.3815 81.5071C92.3848 81.5071 89.1095 84.5802 88.79 88.4889H156.083Z" fill="white"/>
<path d="M427.824 65.1189C426.956 62.7845 425.226 60.8681 423.022 59.7553C423.483 58.6156 423.736 57.3704 423.736 56.0656C423.736 50.6289 419.322 46.2214 413.88 46.2214C413.391 46.2214 412.911 46.2573 412.444 46.3257C410.887 39.4726 404.753 34.3555 397.42 34.3555C390.989 34.3555 385.48 38.2913 383.173 43.8819C381.91 43.2965 380.505 42.9693 379.024 42.9693C373.579 42.9693 369.165 47.3768 369.165 52.8135C369.165 53.3034 369.2 53.7851 369.27 54.2561C368.613 54.1174 367.928 54.0439 367.23 54.0439C361.784 54.0439 357.371 58.4514 357.371 63.8885C357.371 64.3049 357.396 64.7157 357.447 65.1189H427.824Z" fill="white"/>
</svg>
