<svg width="475" height="397" viewBox="0 0 475 397" fill="none" xmlns="http://www.w3.org/2000/svg">
<path d="M371.863 192.321C371.582 190.519 369.896 189.286 368.091 189.568C366.291 189.85 365.059 191.54 365.346 193.342C365.816 196.419 366.421 206.061 363.098 209.94C362.379 210.78 361.509 211.283 360.417 211.482L360.72 193.12C360.763 190.452 358.618 188.266 355.948 188.266C353.268 188.266 351.112 190.477 351.182 193.159L352.041 228.006C350.901 227.821 349.993 227.316 349.253 226.449C345.93 222.569 346.53 212.928 347.005 209.851C347.286 208.048 346.054 206.358 344.255 206.076C342.45 205.795 340.764 207.027 340.483 208.83C340.245 210.346 338.337 223.845 344.233 230.74C346.259 233.112 349.004 234.456 352.209 234.665L352.582 249.83H359.785L360.309 218.144C363.438 217.899 366.124 216.562 368.118 214.232C374.008 207.337 372.1 193.838 371.863 192.321Z" fill="#BDBDBD"/>
<path d="M64.4764 221.166C64.2981 220.017 63.2227 219.231 62.0771 219.41C60.9261 219.59 60.1425 220.667 60.3208 221.817C60.6235 223.778 61.0072 229.924 58.8889 232.397C58.4296 232.932 57.8784 233.253 57.1813 233.38L57.3758 221.675C57.4028 219.974 56.0356 218.58 54.3334 218.58C52.6258 218.58 51.2533 219.99 51.2965 221.7L51.8423 243.915C51.1128 243.796 50.54 243.472 50.0644 242.92C47.9461 240.448 48.3298 234.302 48.6324 232.34C48.8107 231.191 48.0272 230.114 46.8762 229.934C45.7306 229.755 44.6552 230.541 44.4769 231.69C44.3256 232.656 43.1098 241.259 46.8654 245.657C48.1569 247.167 49.9077 248.027 51.9503 248.157L52.1882 257.829H56.776L57.111 237.627C59.1104 237.471 60.818 236.619 62.0879 235.133C65.8435 230.738 64.6277 222.133 64.4764 221.166Z" fill="#BDBDBD"/>
<path fill-rule="evenodd" clip-rule="evenodd" d="M475 313.384C475 359.564 368.664 397 237.497 397C106.331 397 0 359.564 0 313.384C0 267.204 106.331 229.766 237.497 229.766C368.664 229.766 475 267.204 475 313.384Z" fill="url(#paint0_linear_1_972)"/>
<path d="M256.374 212.736C256.374 212.736 256.234 220.837 256.369 221.648C256.504 222.459 253.202 227.207 251.851 226.996C250.5 226.786 247.799 226.335 247.409 225.884C247.02 225.434 247.193 224.371 247.328 223.4C247.469 222.429 248.479 213.608 248.479 213.157C248.479 212.707 254.872 211.505 256.374 212.736Z" fill="#FFD3BC"/>
<path fill-rule="evenodd" clip-rule="evenodd" d="M251.088 220.824C249.402 221.738 248.451 224.519 248.213 224.554C247.97 224.588 247.527 224.519 247.527 224.244C247.527 223.97 247.597 223.042 247.284 223.042C246.976 223.042 246.635 224.554 246.565 226.753C246.495 228.952 245.717 234.196 246.565 234.862C247.1 235.281 251.99 237.852 252.126 238.195C252.261 238.539 252.023 240.946 252.434 241.324C252.844 241.703 253.806 242.628 254.563 242.661C255.319 242.699 259.675 243.142 261.739 242.661C263.798 242.179 266.402 241.184 266.473 240.908C266.543 240.637 265.959 234.794 265.305 234.072C264.652 233.35 259.95 226.891 259.572 226.306C259.194 225.722 258.924 224.313 258.924 223.489C258.924 222.664 258.178 220.865 256.789 220.431C255.346 219.98 252.358 220.137 251.088 220.824Z" fill="url(#paint1_linear_1_972)"/>
<path d="M207.066 217.524C207.066 217.524 207.066 222.241 206.931 223.053C206.796 223.864 210.097 228.611 211.448 228.401C212.799 228.191 215.501 227.74 215.89 227.289C216.285 226.838 216.112 225.776 215.971 224.805C215.831 223.834 214.961 218.395 214.961 217.945C214.961 217.493 208.568 216.292 207.066 217.524Z" fill="#FFD3BC"/>
<path d="M211.322 112.844C209.414 119.803 205.794 143.644 205.794 155.23C205.794 166.815 204.637 196.358 204.637 200.847C204.637 205.336 204.156 216.475 205.313 217.055C206.475 217.635 209.176 219.375 212.846 218.796C216.52 218.215 217.482 215.895 217.579 213.768C217.677 211.641 218.547 196.365 219.417 190.467C220.287 184.569 223.378 173.195 225.404 165.878C227.43 158.561 232.164 143.85 233.418 143.905C234.677 143.962 242.496 176.193 243.145 178.02C243.799 179.847 245.041 205.801 245.123 207.979C245.204 210.157 245.123 212.254 246.49 213.141C247.862 214.028 252.05 216.206 254.223 216.368C256.4 216.529 257.849 213.061 258.254 212.012C258.659 210.963 259.372 176.248 259.113 166.726C258.859 157.203 259.61 139.444 259.167 133.654C258.729 127.863 257.314 115.454 256.416 112.844C255.514 110.233 211.322 112.844 211.322 112.844Z" fill="#192B59"/>
<path fill-rule="evenodd" clip-rule="evenodd" d="M197.91 32.2338C199.736 30.2041 208.247 20.5968 209.939 20.2587C211.63 19.9206 215.743 19.1762 216.656 18.2289C217.574 17.2822 221.454 5.09121 219.92 2.87373C218.385 0.656796 212.457 1.28593 210.663 5.05981C208.869 8.83424 208.955 10.8115 205.994 13.4174C203.033 16.0239 190.128 26.5881 188.923 27.6555C187.724 28.7234 190.107 33.9071 191.993 34.8062C193.879 35.7048 197.91 32.2338 197.91 32.2338Z" fill="url(#paint2_linear_1_972)"/>
<path fill-rule="evenodd" clip-rule="evenodd" d="M221.459 34.0512C217.109 34.9644 209.884 35.7374 207.495 36.5099C205.112 37.2825 195.71 40.5846 195.78 39.1797C195.85 37.7748 200.13 31.5924 199.357 30.96C198.584 30.3281 193.953 29.5551 193.181 28.5716C192.408 27.5881 191.36 25.27 190.306 25.5508C189.252 25.8315 177.05 37.2116 177.882 41.5681C179.855 51.8392 208.695 59.3231 209.354 63.803C210.013 68.2828 207.117 111.235 208.695 112.816C210.273 114.397 226.987 120.458 235.411 120.985C243.836 121.512 258.61 118.575 259.415 116.354C260.226 114.134 255.308 71.4573 255.876 71.4573C256.448 71.4573 256.611 84.8915 263.025 88.3656C267.261 90.6589 273.087 88.2964 274.2 87.0311C275.318 85.7662 270.223 67.9047 267.915 61.8825C265.608 55.8597 263.403 43.4134 258.188 38.9963C252.974 34.5797 245.614 35.3317 243.079 34.2941C240.545 33.2565 232.045 33.9993 229.9 33.7753C227.76 33.5513 221.459 34.0512 221.459 34.0512Z" fill="url(#paint3_linear_1_972)"/>
<path fill-rule="evenodd" clip-rule="evenodd" d="M275.85 80.318C275.85 80.318 268.349 82.5874 267.76 83.3685C267.176 84.1497 266.139 87.2744 267.76 88.576C269.387 89.8782 271.17 90.8514 273.099 89.3496C275.028 87.8479 276.784 85.8251 277.898 85.5709C279.016 85.3161 282.345 85.7948 283.745 85.2447C285.144 84.6945 287.803 74.0734 286.727 73.4297C285.657 72.7859 275.85 80.318 275.85 80.318Z" fill="url(#paint4_linear_1_972)"/>
<path d="M221.585 33.5654C219.164 33.0628 214.49 28.4872 214.063 23.8386C213.641 19.309 210.318 6.57913 221.898 1.80497C232.765 -2.67489 243.946 1.93372 245.556 7.45876C247.059 12.6181 234.3 12.8502 229.626 16.2102C224.946 19.5702 224.627 21.8013 223.46 21.27C222.293 20.7388 221.585 33.5654 221.585 33.5654Z" fill="#192B59"/>
<path fill-rule="evenodd" clip-rule="evenodd" d="M221.364 24.4767C221.213 26.5514 220.694 36.5866 221.559 38.064C222.358 39.4202 223.774 43.3634 229.329 43.1898C234.879 43.0161 238.483 37.4554 238.786 36.804C239.088 36.1522 238.44 28.1154 238.44 26.7689C238.44 25.4218 230.977 22.2506 227.984 22.3377C224.99 22.4248 221.51 22.5259 221.364 24.4767Z" fill="url(#paint5_linear_1_972)"/>
<path d="M221.822 24.2315C222.449 24.2131 221.708 28.0378 222.843 29.2875C223.978 30.5372 228.917 37.0549 234.142 36.4176C238.665 35.8669 238.017 31.9681 238.665 28.7579C239.26 25.8431 241.135 25.5926 241.794 17.9826C242.054 15.037 243.442 10.4268 240.886 9.57472C238.336 8.72267 228.744 6.45001 226.361 9.57472C223.978 12.6994 223.751 20.198 222.503 19.2323C221.254 18.2666 218.644 13.5515 217.11 16.1076C215.58 18.6643 218.471 24.3278 221.822 24.2315Z" fill="#F2DAD4"/>
<path fill-rule="evenodd" clip-rule="evenodd" d="M262.109 63.0234L246.897 82.2758C246.108 83.2766 246.838 84.7486 248.113 84.7264L276.224 84.2482C276.694 84.2406 277.132 84.0167 277.407 83.6423L291.776 64.4186C292.457 63.5086 291.803 62.213 290.668 62.2227L263.282 62.4488C262.822 62.4532 262.396 62.6641 262.109 63.0234Z" fill="url(#paint6_linear_1_972)"/>
<path d="M286.247 70.2131C284.766 70.363 282.615 71.1961 282.615 71.9708C282.615 72.7455 284.345 72.9581 284.82 73.0305C285.296 73.103 285.917 73.2518 285.739 73.4898C285.56 73.7284 285.204 74.9202 284.253 74.7114C283.302 74.5031 279.135 74.4431 278.33 74.4431C277.53 74.4431 276.574 75.0094 276.514 75.6051C276.455 76.2007 276.277 76.3202 275.801 76.35C275.326 76.3798 274.461 76.8266 274.461 77.6008C274.461 78.3754 276.374 79.0728 276.374 79.3465C276.374 79.6202 280.124 81.9129 280.859 82.3392C281.594 82.7649 282.967 83.8491 283.739 83.8491C284.512 83.8491 285.809 83.1133 285.906 82.0487C286.003 80.984 287.533 80.2094 287.549 79.6868C287.571 79.1642 287.068 78.7768 287.127 78.4479C287.181 78.1185 288.516 77.6538 288.516 76.8212C288.516 75.9892 287.997 74.8661 287.916 74.5177C287.841 74.1688 287.533 73.4141 287.841 73.3173C288.149 73.2204 289.235 72.2137 289.04 71.2842C288.846 70.3554 286.928 70.1444 286.247 70.2131Z" fill="#FFD3BC"/>
<path fill-rule="evenodd" clip-rule="evenodd" d="M212.159 222.417C213.85 223.332 214.796 226.113 215.039 226.148C215.277 226.182 215.726 226.113 215.726 225.838C215.726 225.563 215.655 224.636 215.963 224.636C216.271 224.636 216.617 226.148 216.682 228.347C216.752 230.546 217.536 235.789 216.682 236.456C216.153 236.874 211.262 239.446 211.127 239.789C210.987 240.135 211.23 242.537 210.814 242.915C210.403 243.294 209.441 244.224 208.684 244.257C207.933 244.289 203.572 244.738 201.514 244.257C199.455 243.775 196.845 242.78 196.774 242.504C196.71 242.228 197.293 236.387 197.942 235.666C198.596 234.944 203.297 228.484 203.675 227.9C204.053 227.316 204.329 225.907 204.329 225.082C204.329 224.257 205.075 222.458 206.458 222.025C207.906 221.574 210.889 221.73 212.159 222.417Z" fill="url(#paint7_linear_1_972)"/>
<defs>
<linearGradient id="paint0_linear_1_972" x1="237.5" y1="229.766" x2="238" y2="279" gradientUnits="userSpaceOnUse">
<stop stop-color="#E9E9E9"/>
<stop offset="1" stop-color="#FAFBFE"/>
</linearGradient>
<linearGradient id="paint1_linear_1_972" x1="260.107" y1="229.527" x2="247.806" y2="220.213" gradientUnits="userSpaceOnUse">
<stop stop-color="#4D9CFF"/>
<stop offset="1" stop-color="#1769D4"/>
</linearGradient>
<linearGradient id="paint2_linear_1_972" x1="225.151" y1="20.5449" x2="201.904" y2="17.9535" gradientUnits="userSpaceOnUse">
<stop stop-color="#F2BFAC"/>
<stop offset="1" stop-color="#F2DAD4"/>
</linearGradient>
<linearGradient id="paint3_linear_1_972" x1="197.363" y1="48.523" x2="276.656" y2="108.564" gradientUnits="userSpaceOnUse">
<stop stop-color="#4D9CFF"/>
<stop offset="1" stop-color="#1769D4"/>
</linearGradient>
<linearGradient id="paint4_linear_1_972" x1="277.13" y1="83.7813" x2="278.316" y2="103.855" gradientUnits="userSpaceOnUse">
<stop stop-color="#F2BFAC"/>
<stop offset="1" stop-color="#F2DAD4"/>
</linearGradient>
<linearGradient id="paint5_linear_1_972" x1="228.254" y1="28.7191" x2="235.954" y2="44.7818" gradientUnits="userSpaceOnUse">
<stop stop-color="#F2BFAC"/>
<stop offset="1" stop-color="#F2DAD4"/>
</linearGradient>
<linearGradient id="paint6_linear_1_972" x1="264.146" y1="63.9095" x2="277.551" y2="88.5417" gradientUnits="userSpaceOnUse">
<stop stop-color="#F6DBDB"/>
<stop offset="1" stop-color="#EB9A99"/>
</linearGradient>
<linearGradient id="paint7_linear_1_972" x1="203.14" y1="231.121" x2="215.441" y2="240.435" gradientUnits="userSpaceOnUse">
<stop stop-color="#4D9CFF"/>
<stop offset="1" stop-color="#1769D4"/>
</linearGradient>
</defs>
</svg>
