<svg width="98" height="56" viewBox="0 0 98 56" fill="none" xmlns="http://www.w3.org/2000/svg">
<path fill-rule="evenodd" clip-rule="evenodd" d="M58.4578 3.51605C65.5165 5.28741 71.5929 6.83668 71.9605 6.95895C72.3518 7.08901 70.6432 8.42211 67.844 10.1697C63.1947 13.0731 62.8073 13.2192 54.225 15.3129L45.3915 17.4681L33.1581 14.522C26.4297 12.9018 20.514 11.4794 20.0118 11.3613C19.1483 11.1584 19.113 11.4075 19.3653 15.9101C19.5125 18.5301 19.7832 21.0341 19.9673 21.4752C20.2327 22.1113 20.0477 22.2766 19.0699 22.2766C17.9138 22.2766 17.8567 22.1703 18.1478 20.5592C18.3182 19.6149 18.4679 17.0903 18.4805 14.9493L18.5032 11.0567L14.7499 10.1555C12.6858 9.6595 10.9981 9.1443 11 9.01058C11.0034 8.79442 43.9289 0.425328 45.1396 0.332363C45.406 0.312213 51.3992 1.74469 58.4578 3.51605ZM86.5471 3.25456C86.5471 3.37088 85.1853 4.33304 83.5202 5.39229C79.0003 8.26869 69.695 14.8275 66.8662 17.1305C65.4981 18.2452 59.8511 23.6775 54.3176 29.2022C48.7845 34.7274 44.0872 39.1902 43.8795 39.1201C43.3526 38.941 23.1733 22.0742 23.3152 21.9313C23.3787 21.8672 27.5344 23.9678 32.5508 26.5983L41.6706 31.3816L43.647 30.0045C44.7343 29.2471 50.9115 24.7596 57.3744 20.0326C69.218 11.37 76.1967 7.04275 82.4306 4.49516C85.8967 3.07871 86.5471 2.8827 86.5471 3.25456ZM33.3043 6.28163C25.635 8.21924 24.8064 8.46837 25.1032 8.74909C25.3691 9.00097 40.8628 5.17842 41.3166 4.74978C41.9084 4.1897 40.5761 4.44478 33.3043 6.28163ZM32.5537 8.6607C30.4262 9.18277 28.965 9.69842 29.3069 9.80604C30.0368 10.0364 36.2106 8.57049 36.8823 8.00767C37.5076 7.48377 37.0964 7.54558 32.5537 8.6607ZM37.7502 9.11591C34.7514 9.88527 32.3992 10.6111 32.5237 10.7284C32.8932 11.0782 43.4446 8.46882 43.4446 8.02781C43.4446 7.80433 43.3899 7.64313 43.3235 7.66923C43.2572 7.69534 40.749 8.34609 37.7502 9.11591ZM44.6553 9.63935C41.459 10.46 38.2185 11.2797 37.4548 11.4602C36.691 11.6406 36.1772 11.8939 36.3138 12.0225C36.5487 12.2446 52.1799 8.63231 52.606 8.2577C53.209 7.72693 49.7811 8.32273 44.6553 9.63935ZM44.4732 11.9937C40.502 13.0571 39.2075 13.581 40.579 13.57C41.4764 13.5622 49.7976 11.3846 50.1298 11.07C50.6553 10.5731 48.4072 10.9404 44.4732 11.9937ZM88 12.6596C88 13.4491 87.7423 14.0371 87.3946 14.0417C86.0541 14.0604 78.3242 17.3939 74.1176 19.7674C68.6475 22.8541 61.2387 28.0298 55.6324 32.6804C52.3203 35.4276 51.9459 35.6561 53.857 33.763C59.4947 28.1773 70.2839 19.9864 76.8955 16.2719C79.4555 14.8339 87.1985 11.3228 87.8789 11.2912C87.9453 11.288 88 11.9039 88 12.6596ZM38.1173 17.0005L45.6239 18.7288L53.101 16.9048C61.7699 14.7904 62.1651 14.043 49.8857 22.9786C45.5706 26.1188 41.8159 28.6879 41.5418 28.6879C41.2677 28.6879 38.4234 27.3086 35.2217 25.6228L29.3999 22.5573V18.7045C29.3999 15.8153 29.5515 14.904 30.0053 15.0615C30.3385 15.1769 33.9887 16.0498 38.1173 17.0005ZM31.095 29.8438C34.456 32.8301 33.4337 32.1817 26.8491 27.1515C24.2596 25.1731 22.2657 23.3638 22.4183 23.1302C22.6943 22.708 25.5575 24.9235 31.095 29.8438ZM79.7669 25.2157C79.7669 26.2099 78.964 26.8561 77.7285 26.8561C74.5525 26.8561 65.1377 30.4652 57.9735 34.4284C56.5201 35.2325 56.1976 35.3228 57.0049 34.7004C58.6825 33.4062 66.8057 29.1102 70.3551 27.6397C74.229 26.0345 79.7669 24.6085 79.7669 25.2157ZM26.9479 28.7346C29.6285 30.5234 31.8214 32.0923 31.8214 32.2219C31.8214 32.3511 31.2984 32.1327 30.6591 31.737C30.0198 31.3408 27.7315 29.9569 25.574 28.6614C23.4164 27.3663 21.6512 26.1211 21.6512 25.8944C21.6512 25.2263 21.8531 25.3343 26.9479 28.7346Z" fill="#E1E9FF"/>
<path d="M0.360352 53L2.39062 40.1328H6.31934L9.03516 46.4873C9.05859 46.54 9.09668 46.6309 9.14941 46.7598C9.44824 47.457 9.65625 48.0664 9.77344 48.5879V48.2627C9.77344 48.0283 9.78516 47.7705 9.80859 47.4893C9.83789 47.2021 9.87891 46.8564 9.93164 46.4521L10.9248 40.1328H14.3613L12.3311 53H8.55176L5.66895 46.4521C5.45801 45.9775 5.29688 45.585 5.18555 45.2744C5.08008 44.9639 4.98926 44.6533 4.91309 44.3428V44.7031C4.91309 44.9375 4.90137 45.1865 4.87793 45.4502C4.86035 45.708 4.8252 46.0537 4.77246 46.4873L3.79688 53H0.360352ZM13.9812 53L19.6854 46.0479L16.2488 40.1328H20.1512L21.5047 42.6641C21.5867 42.8223 21.6658 42.9863 21.742 43.1562C21.824 43.3203 21.9002 43.4873 21.9705 43.6572C22.0467 43.4932 22.1346 43.3291 22.2342 43.165C22.3396 43.001 22.4598 42.8281 22.5945 42.6465L24.5105 40.1328H28.7205L23.7547 46.25L27.7625 53H23.7371L21.8826 49.5635C21.8064 49.4287 21.7273 49.2764 21.6453 49.1064C21.5691 48.9365 21.49 48.7578 21.408 48.5703C21.2967 48.7988 21.1912 48.9951 21.0916 49.1592C20.992 49.3232 20.8953 49.4697 20.8016 49.5986L18.2439 53H13.9812ZM30.7398 53L32.3043 43.1211H29.4215L29.9137 40.1328H39.0016L38.5094 43.1211H35.7584L34.1939 53H30.7398ZM43.26 53L50.7131 39.623L55.4152 53H53.3234L52.2775 49.959H47.1535L45.4572 53H43.26ZM47.9621 48.2451H51.7238L50.7307 45.0635C50.6838 44.9111 50.634 44.709 50.5812 44.457C50.5285 44.2051 50.4641 43.874 50.3879 43.4639C50.259 43.7686 50.1301 44.0586 50.0012 44.334C49.8781 44.6035 49.7551 44.8584 49.632 45.0986L47.9621 48.2451ZM56.4941 50.5479C56.8047 50.9814 57.1475 51.3125 57.5225 51.541C57.8975 51.7695 58.2871 51.8838 58.6914 51.8838C59.0898 51.8838 59.4092 51.7959 59.6494 51.6201C59.8896 51.4385 60.0098 51.2012 60.0098 50.9082C60.0098 50.4922 59.5645 50.0381 58.6738 49.5459C58.6387 49.5283 58.6152 49.5166 58.6035 49.5107C57.7539 49.0303 57.1943 48.6172 56.9248 48.2715C56.6611 47.9199 56.5293 47.498 56.5293 47.0059C56.5293 46.2207 56.8193 45.585 57.3994 45.0986C57.9795 44.6064 58.7354 44.3604 59.667 44.3604C60.2354 44.3604 60.7598 44.4658 61.2402 44.6768C61.7207 44.8877 62.1719 45.207 62.5938 45.6348L61.4248 46.8477C61.1553 46.5137 60.8535 46.2588 60.5195 46.083C60.1855 45.9072 59.834 45.8193 59.4648 45.8193C59.166 45.8193 58.9111 45.9102 58.7002 46.0918C58.4893 46.2734 58.3838 46.4873 58.3838 46.7334C58.3838 47.1377 58.7588 47.5244 59.5088 47.8936C59.7842 48.0342 59.998 48.1455 60.1504 48.2275C60.8008 48.585 61.249 48.9424 61.4951 49.2998C61.7412 49.6514 61.8643 50.0879 61.8643 50.6094C61.8643 51.4414 61.5742 52.1064 60.9941 52.6045C60.4141 53.0967 59.6348 53.3428 58.6562 53.3428C58.0117 53.3428 57.4111 53.2139 56.8545 52.9561C56.3037 52.6924 55.8174 52.3115 55.3955 51.8135L56.4941 50.5479ZM63.9539 50.5479C64.2645 50.9814 64.6072 51.3125 64.9822 51.541C65.3572 51.7695 65.7469 51.8838 66.1512 51.8838C66.5496 51.8838 66.8689 51.7959 67.1092 51.6201C67.3494 51.4385 67.4695 51.2012 67.4695 50.9082C67.4695 50.4922 67.0242 50.0381 66.1336 49.5459C66.0984 49.5283 66.075 49.5166 66.0633 49.5107C65.2137 49.0303 64.6541 48.6172 64.3846 48.2715C64.1209 47.9199 63.9891 47.498 63.9891 47.0059C63.9891 46.2207 64.2791 45.585 64.8592 45.0986C65.4393 44.6064 66.1951 44.3604 67.1268 44.3604C67.6951 44.3604 68.2195 44.4658 68.7 44.6768C69.1805 44.8877 69.6316 45.207 70.0535 45.6348L68.8846 46.8477C68.615 46.5137 68.3133 46.2588 67.9793 46.083C67.6453 45.9072 67.2938 45.8193 66.9246 45.8193C66.6258 45.8193 66.3709 45.9102 66.16 46.0918C65.949 46.2734 65.8436 46.4873 65.8436 46.7334C65.8436 47.1377 66.2186 47.5244 66.9686 47.8936C67.2439 48.0342 67.4578 48.1455 67.6102 48.2275C68.2605 48.585 68.7088 48.9424 68.9549 49.2998C69.201 49.6514 69.324 50.0879 69.324 50.6094C69.324 51.4414 69.034 52.1064 68.4539 52.6045C67.8738 53.0967 67.0945 53.3428 66.116 53.3428C65.4715 53.3428 64.8709 53.2139 64.3143 52.9561C63.7635 52.6924 63.2771 52.3115 62.8553 51.8135L63.9539 50.5479ZM73.0748 47.832H77.3727C77.3551 47.2695 77.1793 46.8271 76.8453 46.5049C76.5172 46.1768 76.0748 46.0127 75.5182 46.0127C74.8854 46.0127 74.3492 46.1768 73.9098 46.5049C73.4703 46.833 73.192 47.2754 73.0748 47.832ZM77.2672 50.4424L78.6295 51.5059C78.1432 52.1445 77.6158 52.6104 77.0475 52.9033C76.4791 53.1963 75.8258 53.3428 75.0875 53.3428C73.8512 53.3428 72.8521 52.9707 72.0904 52.2266C71.3287 51.4766 70.9479 50.4922 70.9479 49.2734C70.9479 47.8438 71.3844 46.6719 72.2574 45.7578C73.1363 44.8379 74.2525 44.3779 75.6061 44.3779C76.7369 44.3779 77.6363 44.7295 78.3043 45.4326C78.9781 46.1299 79.315 47.0674 79.315 48.2451C79.315 48.3447 79.3092 48.4736 79.2975 48.6318C79.2916 48.7842 79.2799 48.9688 79.2623 49.1855H72.9078C72.9078 49.9414 73.0982 50.5449 73.4791 50.9961C73.86 51.4414 74.3668 51.6641 74.9996 51.6641C75.4391 51.6641 75.8551 51.5586 76.2477 51.3477C76.6461 51.1309 76.9859 50.8291 77.2672 50.4424ZM81.2992 50.5479C81.6098 50.9814 81.9525 51.3125 82.3275 51.541C82.7025 51.7695 83.0922 51.8838 83.4965 51.8838C83.8949 51.8838 84.2143 51.7959 84.4545 51.6201C84.6947 51.4385 84.8148 51.2012 84.8148 50.9082C84.8148 50.4922 84.3695 50.0381 83.4789 49.5459C83.4437 49.5283 83.4203 49.5166 83.4086 49.5107C82.559 49.0303 81.9994 48.6172 81.7299 48.2715C81.4662 47.9199 81.3344 47.498 81.3344 47.0059C81.3344 46.2207 81.6244 45.585 82.2045 45.0986C82.7846 44.6064 83.5404 44.3604 84.4721 44.3604C85.0404 44.3604 85.5648 44.4658 86.0453 44.6768C86.5258 44.8877 86.977 45.207 87.3988 45.6348L86.2299 46.8477C85.9604 46.5137 85.6586 46.2588 85.3246 46.083C84.9906 45.9072 84.6391 45.8193 84.2699 45.8193C83.9711 45.8193 83.7162 45.9102 83.5053 46.0918C83.2943 46.2734 83.1889 46.4873 83.1889 46.7334C83.1889 47.1377 83.5639 47.5244 84.3139 47.8936C84.5893 48.0342 84.8031 48.1455 84.9555 48.2275C85.6059 48.585 86.0541 48.9424 86.3002 49.2998C86.5463 49.6514 86.6693 50.0879 86.6693 50.6094C86.6693 51.4414 86.3793 52.1064 85.7992 52.6045C85.2191 53.0967 84.4398 53.3428 83.4613 53.3428C82.8168 53.3428 82.2162 53.2139 81.6596 52.9561C81.1088 52.6924 80.6225 52.3115 80.2006 51.8135L81.2992 50.5479ZM88.759 50.5479C89.0695 50.9814 89.4123 51.3125 89.7873 51.541C90.1623 51.7695 90.552 51.8838 90.9563 51.8838C91.3547 51.8838 91.674 51.7959 91.9143 51.6201C92.1545 51.4385 92.2746 51.2012 92.2746 50.9082C92.2746 50.4922 91.8293 50.0381 90.9387 49.5459C90.9035 49.5283 90.8801 49.5166 90.8684 49.5107C90.0188 49.0303 89.4592 48.6172 89.1897 48.2715C88.926 47.9199 88.7941 47.498 88.7941 47.0059C88.7941 46.2207 89.0842 45.585 89.6643 45.0986C90.2443 44.6064 91.0002 44.3604 91.9318 44.3604C92.5002 44.3604 93.0246 44.4658 93.5051 44.6768C93.9855 44.8877 94.4367 45.207 94.8586 45.6348L93.6897 46.8477C93.4201 46.5137 93.1184 46.2588 92.7844 46.083C92.4504 45.9072 92.0988 45.8193 91.7297 45.8193C91.4309 45.8193 91.176 45.9102 90.965 46.0918C90.7541 46.2734 90.6486 46.4873 90.6486 46.7334C90.6486 47.1377 91.0236 47.5244 91.7736 47.8936C92.049 48.0342 92.2629 48.1455 92.4152 48.2275C93.0656 48.585 93.5139 48.9424 93.76 49.2998C94.0061 49.6514 94.1291 50.0879 94.1291 50.6094C94.1291 51.4414 93.8391 52.1064 93.259 52.6045C92.6789 53.0967 91.8996 53.3428 90.9211 53.3428C90.2766 53.3428 89.676 53.2139 89.1193 52.9561C88.5686 52.6924 88.0822 52.3115 87.6604 51.8135L88.759 50.5479Z" fill="white"/>
</svg>
